<svg width="226" height="140" viewBox="0 0 226 140" fill="none" xmlns="http://www.w3.org/2000/svg">
<path d="M21.5655 4.4043C20.9908 2.68017 18.2034 -0.595697 11.6517 0.0939584C9.64022 0.668781 5.61723 2.7667 5.61723 6.55981C3.74942 6.41613 0.0137856 7.33567 0.0137856 12.1633C-0.129893 14.0311 0.789648 17.7667 5.61723 17.7667H24.1518C25.876 17.3357 29.3242 15.3529 29.3242 10.8702C29.1805 8.71487 27.4275 4.4043 21.5655 4.4043ZM21.5655 4.4043C20.4161 4.69177 18.0311 5.52532 17.6863 6.55981" transform="translate(188.086 8.2334)" stroke="#BDBDBD" stroke-width="1.5"/>
<path d="M15.9483 4.4043C15.3736 2.68017 12.5862 -0.595697 6.03448 0.0939584C4.02299 0.668781 0 2.7667 0 6.55981M15.9483 4.4043C21.8103 4.4043 23.5633 8.71487 23.707 10.8702C23.707 15.3529 20.2587 17.3357 18.5346 17.7667H16.3793M15.9483 4.4043C14.7989 4.69177 12.4139 5.52532 12.0691 6.55981" transform="translate(201.045 1)" stroke="#BDBDBD" stroke-width="1.5"/>
<path d="M0 0H13.7931" transform="translate(173 25.5684)" stroke="#BDBDBD" stroke-width="1.5"/>
<path d="M0 0H112.059" transform="translate(55 137.594)" stroke="black" stroke-width="3"/>
<path d="M18.9776 3.87579C18.4719 2.35855 16.019 -0.524213 10.2535 0.0826834C8.4834 0.588527 4.94317 2.4347 4.94317 5.77263C3.29949 5.64619 0.0121313 6.45539 0.0121313 10.7037C-0.114305 12.3473 0.69489 15.6347 4.94317 15.6347H21.2536C22.7708 15.2554 25.8053 13.5106 25.8053 9.56573C25.6788 7.66908 24.1362 3.87579 18.9776 3.87579ZM18.9776 3.87579C17.9662 4.12876 15.8674 4.86228 15.5639 5.77263" transform="translate(13.2754 57.3652)" stroke="#BDBDBD" stroke-width="1.5"/>
<path d="M14.0345 3.87579C13.5287 2.35855 11.0759 -0.524213 5.31035 0.0826834C3.54023 0.588527 0 2.4347 0 5.77263M14.0345 3.87579C19.193 3.87579 20.7357 7.66908 20.8622 9.56573C20.8622 13.5106 17.8277 15.2554 16.3104 15.6347H14.4138M14.0345 3.87579C13.023 4.12876 10.9242 4.86228 10.6208 5.77263" transform="translate(24.6792 51)" stroke="#BDBDBD" stroke-width="1.5"/>
<path d="M0 0H12.1379" transform="translate(0 72.6211)" stroke="#BDBDBD" stroke-width="1.5"/>
<path d="M0 0V7.32307" transform="translate(163.533 49.5088) rotate(90)" stroke="#1F2855" stroke-width="2"/>
<path d="M0 0V7.32307" transform="translate(163.533 69.8203) rotate(90)" stroke="#1F2855" stroke-width="2"/>
<path d="M0.5 0.5H9.09213H25.1484H35.8685V11.8336H30.1781H13.1546H0.5V0.5Z" transform="translate(175.288 41.9639) rotate(90)" fill="#D7245B" stroke="#1F2855"/>
<path d="M0 53.3921V0H98.2834V53.3921H0Z" transform="translate(59.8545 82.2012)" fill="white" stroke="#1F2855"/>
<path d="M0 35.5947V0H98.6688V35.5947H0Z" transform="translate(59.8545 38.0957)" fill="white" stroke="#1F2855"/>
<path d="M0 3.09519V0H101.752V3.09519H0Z" transform="translate(58.3125 35)" fill="#B6B6B8" stroke="#1F2855"/>
<path d="M102.523 0L104.836 17.7974H98.6688H92.8874H86.7206H80.5538H74.0016H67.8348H61.668H55.8866H49.3344H43.1676H37.3862H31.2194H25.0526H18.5004H13.1044H6.55222H0L3.85425 0H9.63562H15.417H21.1984H26.9797H31.9903H38.1571H43.9384H49.3344H55.8866H61.668H67.6421H73.6162H79.3975H85.1789H90.5749H96.7417H102.523Z" transform="translate(56 64.4043)" fill="white"/>
<path d="M96.7417 0H102.523L104.836 17.7974H98.6688M96.7417 0L98.6688 17.7974M96.7417 0H90.5749M98.6688 17.7974H92.8874M92.8874 17.7974L90.5749 0M92.8874 17.7974H86.7206M90.5749 0H85.1789M85.1789 0L86.7206 17.7974M85.1789 0H79.3975M86.7206 17.7974H80.5538M80.5538 17.7974L79.3975 0M80.5538 17.7974H74.0016M79.3975 0H73.6162M73.6162 0L74.0016 17.7974M73.6162 0H61.668M74.0016 17.7974H67.8348M67.8348 17.7974L67.6421 0H61.668M67.8348 17.7974H61.668M61.668 0H55.8866M61.668 0V17.7974M61.668 17.7974H55.8866M55.8866 17.7974V0M55.8866 17.7974H49.3344M55.8866 0H49.3344M49.3344 0V17.7974M49.3344 0H43.9384M49.3344 17.7974H43.1676M43.1676 17.7974L43.9384 0M43.1676 17.7974H37.3862M43.9384 0H38.1571M38.1571 0L37.3862 17.7974M38.1571 0H31.9903M37.3862 17.7974H31.2194M31.2194 17.7974L31.9903 0M31.2194 17.7974H25.0526M31.9903 0H26.9797M26.9797 0L25.0526 17.7974M26.9797 0H21.1984M25.0526 17.7974H18.5004M18.5004 17.7974L21.1984 0M18.5004 17.7974H13.1044M21.1984 0H15.417M15.417 0L13.1044 17.7974M15.417 0H9.63562M13.1044 17.7974H6.55222M6.55222 17.7974H0L3.85425 0H9.63562M6.55222 17.7974L9.63562 0" transform="translate(56 64.4043)" stroke="#1F2855"/>
<path d="M92.1166 17.7974L90.1894 0H84.0226L86.3352 17.7974H92.1166Z" transform="translate(62.9375 64.4043)" fill="#D7245B"/>
<path d="M80.1684 17.7974L78.6267 0H72.8453L74.0016 17.7974H80.1684Z" transform="translate(62.9375 64.4043)" fill="#D7245B"/>
<path d="M67.4494 17.7974L67.0639 0H61.0899L61.2826 17.7974H67.4494Z" transform="translate(62.9375 64.4043)" fill="#D7245B"/>
<path d="M49.3344 17.7974H55.1158V0H49.3344V17.7974Z" transform="translate(62.9375 64.4043)" fill="#D7245B"/>
<path d="M42.7822 17.7974V0H37.3862L36.6154 17.7974H42.7822Z" transform="translate(62.9375 64.4043)" fill="#D7245B"/>
<path d="M30.834 17.7974L31.6048 0H25.438L24.6672 17.7974H30.834Z" transform="translate(62.9375 64.4043)" fill="#D7245B"/>
<path d="M18.5004 17.7974L20.4275 0H14.6461L11.9482 17.7974H18.5004Z" transform="translate(62.9375 64.4043)" fill="#D7245B"/>
<path d="M6.55222 17.7974L8.86477 0H3.0834L0 17.7974H6.55222Z" transform="translate(62.9375 64.4043)" fill="#D7245B"/>
<path d="M92.1166 17.7974L90.1894 0H84.0226L86.3352 17.7974H92.1166Z" transform="translate(62.9375 64.4043)" stroke="#1F2855"/>
<path d="M80.1684 17.7974L78.6267 0H72.8453L74.0016 17.7974H80.1684Z" transform="translate(62.9375 64.4043)" stroke="#1F2855"/>
<path d="M67.4494 17.7974L67.0639 0H61.0899L61.2826 17.7974H67.4494Z" transform="translate(62.9375 64.4043)" stroke="#1F2855"/>
<path d="M49.3344 17.7974H55.1158V0H49.3344V17.7974Z" transform="translate(62.9375 64.4043)" stroke="#1F2855"/>
<path d="M42.7822 17.7974V0H37.3862L36.6154 17.7974H42.7822Z" transform="translate(62.9375 64.4043)" stroke="#1F2855"/>
<path d="M30.834 17.7974L31.6048 0H25.438L24.6672 17.7974H30.834Z" transform="translate(62.9375 64.4043)" stroke="#1F2855"/>
<path d="M18.5004 17.7974L20.4275 0H14.6461L11.9482 17.7974H18.5004Z" transform="translate(62.9375 64.4043)" stroke="#1F2855"/>
<path d="M6.55222 17.7974L8.86477 0H3.0834L0 17.7974H6.55222Z" transform="translate(62.9375 64.4043)" stroke="#1F2855"/>
<path d="M6.09077 4.0431C6.09077 5.59571 4.83743 6.85108 3.29538 6.85108C1.75333 6.85108 0.5 5.59571 0.5 4.0431V0.5H6.09077V4.0431Z" transform="translate(56 82.2021)" fill="white" stroke="#1F2855"/>
<path d="M6.09077 4.0431C6.09077 5.59571 4.83743 6.85108 3.29538 6.85108C1.75333 6.85108 0.5 5.59571 0.5 4.0431V0.5H6.09077V4.0431Z" transform="translate(62.167 82.2021)" fill="#D7245B" stroke="#1F2855"/>
<path d="M6.09077 4.0431C6.09077 5.59571 4.83743 6.85108 3.29538 6.85108C1.75333 6.85108 0.5 5.59571 0.5 4.0431V0.5H6.09077V4.0431Z" transform="translate(68.334 82.2021)" fill="white" stroke="#1F2855"/>
<path d="M6.09077 4.0431C6.09077 5.59571 4.83743 6.85108 3.29538 6.85108C1.75333 6.85108 0.5 5.59571 0.5 4.0431V0.5H6.09077V4.0431Z" transform="translate(74.5005 82.2021)" fill="#D7245B" stroke="#1F2855"/>
<path d="M6.09077 4.0431C6.09077 5.59571 4.83743 6.85108 3.29538 6.85108C1.75333 6.85108 0.5 5.59571 0.5 4.0431V0.5H6.09077V4.0431Z" transform="translate(80.667 82.2021)" fill="white" stroke="#1F2855"/>
<path d="M6.09077 4.0431C6.09077 5.59571 4.83743 6.85108 3.29538 6.85108C1.75333 6.85108 0.5 5.59571 0.5 4.0431V0.5H6.09077V4.0431Z" transform="translate(86.8345 82.2021)" fill="#D7245B" stroke="#1F2855"/>
<path d="M6.09077 4.0431C6.09077 5.59571 4.83743 6.85108 3.29538 6.85108C1.75333 6.85108 0.5 5.59571 0.5 4.0431V0.5H6.09077V4.0431Z" transform="translate(93.001 82.2021)" fill="white" stroke="#1F2855"/>
<path d="M6.09077 4.0431C6.09077 5.59571 4.83743 6.85108 3.29538 6.85108C1.75333 6.85108 0.5 5.59571 0.5 4.0431V0.5H6.09077V4.0431Z" transform="translate(99.168 82.2021)" fill="#D7245B" stroke="#1F2855"/>
<path d="M6.09077 4.0431C6.09077 5.59571 4.83743 6.85108 3.29538 6.85108C1.75333 6.85108 0.5 5.59571 0.5 4.0431V0.5H6.09077V4.0431Z" transform="translate(105.334 82.2021)" fill="white" stroke="#1F2855"/>
<path d="M6.09077 4.0431C6.09077 5.59571 4.83743 6.85108 3.29538 6.85108C1.75333 6.85108 0.5 5.59571 0.5 4.0431V0.5H6.09077V4.0431Z" transform="translate(111.501 82.2021)" fill="#D7245B" stroke="#1F2855"/>
<path d="M6.09077 4.0431C6.09077 5.59571 4.83743 6.85108 3.29538 6.85108C1.75333 6.85108 0.5 5.59571 0.5 4.0431V0.5H6.09077V4.0431Z" transform="translate(117.668 82.2021)" fill="white" stroke="#1F2855"/>
<path d="M6.09077 4.0431C6.09077 5.59571 4.83743 6.85108 3.29538 6.85108C1.75333 6.85108 0.5 5.59571 0.5 4.0431V0.5H6.09077V4.0431Z" transform="translate(123.835 82.2021)" fill="#D7245B" stroke="#1F2855"/>
<path d="M6.09077 4.0431C6.09077 5.59571 4.83743 6.85108 3.29538 6.85108C1.75333 6.85108 0.5 5.59571 0.5 4.0431V0.5H6.09077V4.0431Z" transform="translate(130.001 82.2021)" fill="white" stroke="#1F2855"/>
<path d="M6.09077 4.0431C6.09077 5.59571 4.83743 6.85108 3.29538 6.85108C1.75333 6.85108 0.5 5.59571 0.5 4.0431V0.5H6.09077V4.0431Z" transform="translate(136.168 82.2021)" fill="#D7245B" stroke="#1F2855"/>
<path d="M6.09077 4.0431C6.09077 5.59571 4.83743 6.85108 3.29538 6.85108C1.75333 6.85108 0.5 5.59571 0.5 4.0431V0.5H6.09077V4.0431Z" transform="translate(142.335 82.2021)" fill="white" stroke="#1F2855"/>
<path d="M6.09077 4.0431C6.09077 5.59571 4.83743 6.85108 3.29538 6.85108C1.75333 6.85108 0.5 5.59571 0.5 4.0431V0.5H6.09077V4.0431Z" transform="translate(148.502 82.2021)" fill="#D7245B" stroke="#1F2855"/>
<path d="M6.09077 4.0431C6.09077 5.59571 4.83743 6.85108 3.29538 6.85108C1.75333 6.85108 0.5 5.59571 0.5 4.0431V0.5H6.09077V4.0431Z" transform="translate(154.669 82.2021)" fill="white" stroke="#1F2855"/>
<rect x="0.5" y="0.5" width="12.8753" height="12.9284" transform="translate(63.7085 44.2852)" fill="#1F2855" stroke="#1F2855"/>
<path d="M0.5 0.5H16.4587V18.1843V35.8685H0.5V18.1843V0.5Z" transform="translate(63.7085 96.1299)" fill="#F3994A" stroke="#1F2855"/>
<rect x="0.5" y="0.5" width="12.8753" height="12.9284" transform="translate(140.793 44.2852)" fill="#1F2855" stroke="#1F2855"/>
<rect x="0.5" y="0.5" width="12.8753" height="12.9284" transform="translate(121.522 44.2852)" fill="#1F2855" stroke="#1F2855"/>
<rect x="0.5" y="0.5" width="12.8753" height="12.9284" transform="translate(102.251 44.2852)" fill="#1F2855" stroke="#1F2855"/>
<rect x="0.5" y="0.5" width="12.8753" height="12.9284" transform="translate(82.9795 44.2852)" fill="#1F2855" stroke="#1F2855"/>
<path d="M0.5 0.5H61.168V24.2615H0.5V0.5Z" transform="translate(89.9175 96.9033)" fill="#F3994A" stroke="#1F2855"/>
<path d="M0.5 0.5H61.168V3.36899H0.5V0.5Z" transform="translate(89.9175 96.1299)" stroke="#1F2855"/>
<path d="M0.5 0.5H61.168V3.36899H0.5V0.5Z" transform="translate(89.9175 117.796)" stroke="#1F2855"/>
</svg>
