<svg width="229" height="153" viewBox="0 0 229 153" fill="none" xmlns="http://www.w3.org/2000/svg">
<path d="M21.5655 4.4043C20.9908 2.68017 18.2034 -0.595697 11.6517 0.0939584C9.64022 0.668781 5.61723 2.7667 5.61723 6.55981C3.74942 6.41613 0.0137856 7.33567 0.0137856 12.1633C-0.129893 14.0311 0.789648 17.7667 5.61723 17.7667H24.1518C25.876 17.3357 29.3242 15.3529 29.3242 10.8702C29.1805 8.71487 27.4275 4.4043 21.5655 4.4043ZM21.5655 4.4043C20.4161 4.69177 18.0311 5.52532 17.6863 6.55981" transform="translate(190.586 8.2334)" stroke="#BDBDBD" stroke-width="1.5"/>
<path d="M15.9483 4.4043C15.3736 2.68017 12.5862 -0.595697 6.03448 0.0939584C4.02299 0.668781 0 2.7667 0 6.55981M15.9483 4.4043C21.8103 4.4043 23.5633 8.71487 23.707 10.8702C23.707 15.3529 20.2587 17.3357 18.5346 17.7667H16.3793M15.9483 4.4043C14.7989 4.69177 12.4139 5.52532 12.0691 6.55981" transform="translate(203.545 1)" stroke="#BDBDBD" stroke-width="1.5"/>
<path d="M0 0H13.7931" transform="translate(175.5 25.5684)" stroke="#BDBDBD" stroke-width="1.5"/>
<path d="M18.9776 3.87579C18.4719 2.35855 16.019 -0.524213 10.2535 0.0826834C8.4834 0.588527 4.94317 2.4347 4.94317 5.77263C3.29949 5.64619 0.0121313 6.45539 0.0121313 10.7037C-0.114305 12.3473 0.69489 15.6347 4.94317 15.6347H21.2536C22.7708 15.2554 25.8053 13.5106 25.8053 9.56573C25.6788 7.66908 24.1362 3.87579 18.9776 3.87579ZM18.9776 3.87579C17.9662 4.12876 15.8674 4.86228 15.5639 5.77263" transform="translate(13.2754 72.3652)" stroke="#BDBDBD" stroke-width="1.5"/>
<path d="M14.0345 3.87579C13.5287 2.35855 11.0759 -0.524213 5.31035 0.0826834C3.54023 0.588527 0 2.4347 0 5.77263M14.0345 3.87579C19.193 3.87579 20.7357 7.66908 20.8622 9.56573C20.8622 13.5106 17.8277 15.2554 16.3104 15.6347H14.4138M14.0345 3.87579C13.023 4.12876 10.9242 4.86228 10.6208 5.77263" transform="translate(24.6792 66)" stroke="#BDBDBD" stroke-width="1.5"/>
<path d="M0 0H12.1379" transform="translate(0 87.6211)" stroke="#BDBDBD" stroke-width="1.5"/>
<path d="M0 0H112.059" transform="translate(65 150.594)" stroke="#1F2855" stroke-width="3"/>
<path d="M88.4951 36.5988H0.504867C0.696503 26.7541 6.53014 17.8031 14.8782 11.2595C23.3656 4.60677 34.3841 0.5 44.5 0.5C54.6159 0.5 65.6344 4.60677 74.1218 11.2595C82.4699 17.8031 88.3035 26.7541 88.4951 36.5988Z" transform="translate(76 112.902)" fill="#1F2855" stroke="#1F2855"/>
<path d="M1.94546 1.83247L3.09028 0H21.6319L22.5557 1.8483C23.4872 3.71203 23.1653 5.95802 21.7479 7.48511L16.0694 13.6029H7.41667L2.389 7.73484C0.967406 6.07562 0.7878 3.6855 1.94546 1.83247Z" transform="translate(108.758 109.191)" fill="#FFFFFE" stroke="#1F2855"/>
<path d="M12.3611 4.3282L6.79861 0L0 10.5113L8.65278 17.3128L12.3611 4.3282Z" transform="translate(125.445 112.283)" fill="#FFFEFF" stroke="#1F2855"/>
<path d="M12.3611 4.3282L6.79861 0L0 10.5113L8.65278 17.3128L12.3611 4.3282Z" transform="translate(116.791 112.902) scale(-1 1)" fill="white" stroke="#1F2855"/>
<path d="M0 23L3.375 0H6.1875L9 23H0Z" transform="translate(116 128)" fill="#D7245B" stroke="#1F2855"/>
<path d="M0 2.47326L1.85417 0H10.5069L12.3611 2.47326L6.18056 8.03808L0 2.47326Z" transform="translate(114.32 122.793)" fill="#D7245B" stroke="#1F2855"/>
<path d="M3.49735 16.1969V3.83063C8.93642 -1.61072 16.0646 -0.0852786 18.9488 1.35761C27.8488 6.30412 33.3701 5.06734 35.0182 3.83063C38.4793 1.35738 40.1687 2.80011 40.5807 3.83063V16.1969C44.5363 15.2076 44.7011 19.4946 44.2891 21.7617C43.7946 25.7189 40.7867 26.296 39.3446 26.0899C34.8946 39.9402 27.8125 44.1862 23.2752 44.021C13.3805 43.6609 7.20572 32.2731 5.96961 26.0899C3.00294 27.5739 1.02514 23.8228 0.407068 21.7617C-1.07627 15.3313 1.8492 15.3725 3.49735 16.1969Z" transform="translate(98.25 70.8555)" fill="white" stroke="#1F2855"/>
<path d="M33.5717 18.252C37.0328 15.7788 38.7222 17.2215 39.1342 18.252C39.3402 11.4103 42.5893 1.40556 28.6272 0.200182C21.4166 -0.422327 6.74211 0.00652647 9.21433 7.43636C4.4759 7.31076 -3.8825 7.46631 2.05083 18.252C7.48991 12.8107 14.6181 14.3361 17.5023 15.779C26.4023 20.7255 31.9236 19.4887 33.5717 18.252Z" transform="translate(99.543 56)" fill="#F7941E" stroke="#1F2855"/>
</svg>
