<svg width="197" height="140" viewBox="0 0 197 140" fill="none" xmlns="http://www.w3.org/2000/svg">
<path d="M21.5655 4.4043C20.9908 2.68017 18.2034 -0.595697 11.6517 0.0939584C9.64022 0.668781 5.61723 2.7667 5.61723 6.55981C3.74942 6.41613 0.0137856 7.33567 0.0137856 12.1633C-0.129893 14.0311 0.789648 17.7667 5.61723 17.7667H24.1518C25.876 17.3357 29.3242 15.3529 29.3242 10.8702C29.1805 8.71487 27.4275 4.4043 21.5655 4.4043ZM21.5655 4.4043C20.4161 4.69177 18.0311 5.52532 17.6863 6.55981" transform="translate(159.086 8.2334)" stroke="#BDBDBD" stroke-width="1.5"/>
<path d="M15.9483 4.4043C15.3736 2.68017 12.5862 -0.595697 6.03448 0.0939584C4.02299 0.668781 0 2.7667 0 6.55981M15.9483 4.4043C21.8103 4.4043 23.5633 8.71487 23.707 10.8702C23.707 15.3529 20.2587 17.3357 18.5346 17.7667H16.3793M15.9483 4.4043C14.7989 4.69177 12.4139 5.52532 12.0691 6.55981" transform="translate(172.045 1)" stroke="#BDBDBD" stroke-width="1.5"/>
<path d="M0 0H13.7931" transform="translate(144 25.5684)" stroke="#BDBDBD" stroke-width="1.5"/>
<path d="M18.9776 3.87579C18.4719 2.35855 16.019 -0.524213 10.2535 0.0826834C8.4834 0.588527 4.94317 2.4347 4.94317 5.77263C3.29949 5.64619 0.0121313 6.45539 0.0121313 10.7037C-0.114305 12.3473 0.69489 15.6347 4.94317 15.6347H21.2536C22.7708 15.2554 25.8053 13.5106 25.8053 9.56573C25.6788 7.66908 24.1362 3.87579 18.9776 3.87579ZM18.9776 3.87579C17.9662 4.12876 15.8674 4.86228 15.5639 5.77263" transform="translate(13.2754 59.3652)" stroke="#BDBDBD" stroke-width="1.5"/>
<path d="M14.0345 3.87579C13.5287 2.35855 11.0759 -0.524213 5.31035 0.0826834C3.54023 0.588527 0 2.4347 0 5.77263M14.0345 3.87579C19.193 3.87579 20.7357 7.66908 20.8622 9.56573C20.8622 13.5106 17.8277 15.2554 16.3104 15.6347H14.4138M14.0345 3.87579C13.023 4.12876 10.9242 4.86228 10.6208 5.77263" transform="translate(24.6792 53)" stroke="#BDBDBD" stroke-width="1.5"/>
<path d="M0 0H12.1379" transform="translate(0 74.6211)" stroke="#BDBDBD" stroke-width="1.5"/>
<path d="M0 0H112.059" transform="translate(40 138)" stroke="black" stroke-width="3"/>
<path d="M1.15341 5.78859H3.84471V0L0 1.54362L1.15341 5.78859Z" transform="translate(58.9146 131.212)" fill="#1F2855" stroke="black"/>
<path d="M8.84284 25.8557L0 16.2081L16.5323 0H28.8354L33.8335 5.01678H25.3751V11.9631V16.594V21.2248L19.9925 22.4254L14.6099 23.626L11.5341 24.3121L8.84284 25.8557Z" transform="translate(37 79.5703)" fill="white"/>
<path d="M14.6099 23.626L11.5341 24.3121L8.84284 25.8557L0 16.2081L16.5323 0H28.8353L33.8335 5.01678H25.3751V11.9631M14.6099 23.626L25.3751 11.9631M14.6099 23.626L19.9925 22.4254M25.3751 11.9631V16.594M19.9925 22.4254L25.3751 21.2248V16.594M19.9925 22.4254L25.3751 16.594" transform="translate(37 79.5703)" stroke="#1F2855"/>
<path d="M9.84247 0H0L4.61366 4.63087L9.84247 0Z" transform="translate(54.687 79.957)" fill="#1F2855" stroke="#1F2855"/>
<path d="M1.92236 0H4.99813L3.84471 4.24497H0L1.92236 0Z" transform="translate(114.664 86.0605)" fill="#1F2855" stroke="black"/>
<path d="M1.92236 0H4.99813L3.84471 4.24497H0L1.92236 0Z" transform="translate(116.971 86.0605)" fill="#1F2855" stroke="black"/>
<path d="M33.449 7.71812L31.9111 0H1.53789L0 7.71812" transform="translate(88.5195 78.3428)" stroke="black" stroke-width="2"/>
<rect x="0.5" y="0.5" width="8.99626" height="2.08725" transform="translate(72.3721 81.8154)" fill="#1F2855" stroke="black"/>
<rect x="0.5" y="0.5" width="8.99626" height="2.08725" transform="translate(128.503 81.8154)" fill="#1F2855" stroke="black"/>
<path d="M0 24.698V0H25.3751V24.698H0Z" transform="translate(93.9023 22)" fill="#D7245B" stroke="#1F2855" stroke-width="2"/>
<path d="M0 52.8691V0H4.22919H25.3751L28.4509 6.1745H57.6707L59.9775 0H80.739V52.8691H4.22919H0Z" transform="translate(62.375 84.1299)" fill="#F3994A"/>
<path d="M4.22919 0H25.3751L28.4509 6.1745H57.6707L59.9775 0H80.739V52.8691H4.22919M4.22919 0H0V52.8691H4.22919M4.22919 0V52.8691" transform="translate(62.375 84.1299)" stroke="#1F2855"/>
<path d="M11.1497 8.48993V0H27.6819V9.64765C29.835 9.64765 30.6296 11.7058 30.7577 12.7349V31.6443C30.7577 34.1141 29.2198 34.9888 28.4509 35.1175C25.9903 35.1175 25.3751 32.802 25.3751 31.6443C25.3751 36.2752 23.3246 37.4329 22.2993 37.4329C20.1463 37.4329 19.0954 35.8893 18.8391 35.1175C18.8391 37.896 16.276 38.5906 15.3789 38.5906C12.6107 38.5906 11.9186 36.2752 11.9186 35.1175C11.9186 36.6611 9.99626 37.4329 9.22731 37.4329C7.38185 37.4329 6.53601 35.7606 6.53601 35.1175V24.698C6.53601 29.9463 2.17867 30.2293 0 29.7148V18.1376L11.1497 8.48993Z" transform="translate(87.3657 46.3125)" fill="white"/>
<path d="M11.9186 35.1175C11.9186 36.6611 9.99626 37.4329 9.22731 37.4329C7.38185 37.4329 6.53601 35.7606 6.53601 35.1175V18.1376V24.698C6.53601 29.9463 2.17867 30.2293 0 29.7148V18.1376L11.1497 8.48993V0H27.6819V9.64765C29.835 9.64765 30.6296 11.7058 30.7577 12.7349V31.6443C30.7577 34.1141 29.2198 34.9888 28.4509 35.1175C25.9903 35.1175 25.3751 32.802 25.3751 31.6443C25.3751 36.2752 23.3246 37.4329 22.2993 37.4329C20.1463 37.4329 19.0954 35.8893 18.8391 35.1175M11.9186 35.1175V31.6443M11.9186 35.1175C11.9186 36.2752 12.6107 38.5906 15.3789 38.5906C16.276 38.5906 18.8391 37.896 18.8391 35.1175M18.8391 35.1175V31.6443" transform="translate(87.3657 46.3125)" stroke="#1F2855" stroke-width="2"/>
<path d="M6.92048 3.08725L22.2993 0V18.1376V32.4161L5.76707 34.7603L0 12.7349L6.92048 3.08725Z" transform="translate(40.0762 99.1807)" fill="white"/>
<path d="M12.6876 7.71812L17.6857 27.3993M15.7633 7.71812L20.377 25.8557M18.8391 6.1745L22.2993 18.1376M22.2993 18.1376V32.4161L5.76707 34.7603L0 12.7349L6.92048 3.08725L22.2993 0V18.1376Z" transform="translate(40.0762 99.1807)" stroke="#1F2855"/>
<path d="M0 8.48993L6.09003 0L7.10503 7.13154L0 8.48993Z" transform="translate(40.8452 103.04)" fill="#1F2855" stroke="#1F2855"/>
<path d="M12.6876 2.31544L0 0V16.9799V33.9597H6.53601L12.6876 2.31544Z" transform="translate(143.115 103.04)" fill="white"/>
<path d="M6.53601 5.78859L1.92236 25.0839M1.92236 5.78859L0 16.9799M0 16.9799V33.9597H6.53601L12.6876 2.31544L0 0V16.9799Z" transform="translate(143.115 103.04)" stroke="#1F2855"/>
</svg>
