<svg width="19" height="16" viewBox="0 0 19 16" fill="none" xmlns="http://www.w3.org/2000/svg">
<path d="M0 -0.375C-0.207107 -0.375 -0.375 -0.207107 -0.375 0C-0.375 0.207107 -0.207107 0.375 0 0.375V-0.375ZM7.26516 0.265165C7.41161 0.118718 7.41161 -0.118718 7.26516 -0.265165L4.87868 -2.65165C4.73223 -2.7981 4.4948 -2.7981 4.34835 -2.65165C4.2019 -2.5052 4.2019 -2.26777 4.34835 -2.12132L6.46967 0L4.34835 2.12132C4.2019 2.26777 4.2019 2.5052 4.34835 2.65165C4.4948 2.7981 4.73223 2.7981 4.87868 2.65165L7.26516 0.265165ZM0 0.375H7V-0.375H0V0.375Z" transform="translate(9 15) rotate(-90)" fill="#D7245B"/>
<path d="M12.5 12.6865C15.1112 11.8429 17 9.39204 17 6.5C17 2.91015 14.0898 0 10.5 0C7.60794 0 5.15703 1.88874 4.31348 4.5C2.87565 4.43783 0 5.1508 0 8.5C0.0423177 9.8955 0.964258 12.6865 4.31348 12.6865" transform="translate(1 1)" stroke="#D7245B" stroke-linecap="round"/>
</svg>
