<svg width="105" height="105" viewBox="0 0 105 105" fill="none" xmlns="http://www.w3.org/2000/svg">
<path d="M50.4492 0C77.6323 0 100.898 23.2661 100.898 50.4492C100.898 77.6323 77.6323 100.898 50.4492 100.898C23.2661 100.898 0 77.6323 0 50.4492C0 23.2661 23.2661 0 50.4492 0Z" transform="translate(2.05078 2.05078)" fill="#DB1A00"/>
<path d="M39.213 1.80264C41.6165 4.2041 41.6165 8.10059 39.213 10.5021L29.2072 20.5078L39.213 30.5136C41.6165 32.915 41.6165 36.8115 39.213 39.213C38.0112 40.4147 36.4383 41.0156 34.8633 41.0156C33.2883 41.0156 31.7153 40.4147 30.5136 39.213L20.5078 29.2072L10.5021 39.213C9.30029 40.4147 7.72734 41.0156 6.15234 41.0156C4.57734 41.0156 3.00439 40.4147 1.80264 39.213C-0.60088 36.8115 -0.60088 32.915 1.80264 30.5136L11.8084 20.5078L1.80264 10.5021C-0.60088 8.10059 -0.60088 4.2041 1.80264 1.80264C4.20615 -0.60088 8.09854 -0.60088 10.5021 1.80264L20.5078 11.8084L30.5136 1.80264C32.9171 -0.60088 36.8095 -0.60088 39.213 1.80264Z" transform="translate(31.9917 31.9922)" fill="white"/>
<path d="M100.77 32.333C98.0735 26.1198 94.2373 20.5006 89.3683 15.6317C84.4994 10.7627 78.8802 6.92651 72.667 4.22974C66.2011 1.42304 59.4158 0 52.5 0C45.5842 0 38.7989 1.42304 32.333 4.22974C26.1198 6.92651 20.5006 10.7627 15.6317 15.6317C10.7627 20.5006 6.92651 26.1198 4.22974 32.333C1.42304 38.7989 0 45.5842 0 52.5C0 59.4158 1.42304 66.2011 4.22974 72.667C6.92651 78.8802 10.7627 84.4994 15.6317 89.3683C20.5006 94.2373 26.1198 98.0735 32.333 100.77C38.7989 103.577 45.5842 105 52.5 105C59.4158 105 66.2011 103.577 72.667 100.77C78.8802 98.0735 84.4994 94.2373 89.3683 89.3683C94.2373 84.4994 98.0735 78.8802 100.77 72.667C103.577 66.2011 105 59.4158 105 52.5C105 45.5842 103.577 38.7989 100.77 32.333ZM52.5 100.898C26.2654 100.898 4.10156 78.7346 4.10156 52.5C4.10156 26.2654 26.2654 4.10156 52.5 4.10156C78.7346 4.10156 100.898 26.2654 100.898 52.5C100.898 78.7346 78.7346 100.898 52.5 100.898Z" fill="#363636"/>
<path d="M83.8718 26.825C81.6426 21.6456 78.4653 16.9723 74.4282 12.9353C70.391 8.89813 65.7179 5.72086 60.5384 3.49166C55.1554 1.17469 49.4839 0 43.6816 0C35.7939 0 27.5717 2.6935 19.9039 7.78907C18.9605 8.416 18.7039 9.68892 19.3309 10.6321C19.9578 11.5754 21.2309 11.8318 22.1739 11.2051C29.167 6.55799 36.6042 4.10156 43.6816 4.10156C65.1363 4.10156 83.2617 22.227 83.2617 43.6816C83.2617 65.1363 65.1363 83.2617 43.6816 83.2617C22.227 83.2617 4.10156 65.1363 4.10156 43.6816C4.10156 36.6056 6.55737 29.1681 11.2032 22.1737C11.8299 21.2301 11.5732 19.9574 10.6298 19.3307C9.68604 18.7039 8.41333 18.9609 7.78682 19.9043C2.69268 27.5736 0 35.7956 0 43.6816C0 49.4839 1.17469 55.1554 3.49146 60.5382C5.72065 65.7177 8.89793 70.391 12.9351 74.428C16.9723 78.4651 21.6454 81.6424 26.8248 83.8716C32.2079 86.1886 37.8794 87.3633 43.6816 87.3633C49.4839 87.3633 55.1554 86.1886 60.5382 83.8718C65.7177 81.6426 70.391 78.4653 74.428 74.4282C78.4651 70.391 81.6424 65.7179 83.8716 60.5384C86.1886 55.1554 87.3633 49.4839 87.3633 43.6816C87.3633 37.8794 86.1886 32.2079 83.8718 26.825Z" transform="translate(8.81787 8.81836)" fill="#363636"/>
<path d="M2.05078 0C0.91875 0 0 0.91875 0 2.05078C0 3.18281 0.91875 4.10156 2.05078 4.10156C3.18281 4.10156 4.10156 3.18281 4.10156 2.05078C4.10156 0.91875 3.18281 0 2.05078 0Z" transform="translate(21.3276 21.5332)" fill="#363636"/>
<path d="M0 36.9141C0 39.1057 0.853739 41.1655 2.40331 42.7139C3.95309 44.2637 6.01289 45.1172 8.20313 45.1172C10.3934 45.1172 12.4532 44.2637 14.0029 42.7139L22.5586 34.1582L31.1143 42.7139C32.664 44.2637 34.7238 45.1172 36.9141 45.1172C39.1043 45.1172 41.1641 44.2637 42.7133 42.7145C44.2635 41.1655 45.1172 39.1057 45.1172 36.9141C45.1172 34.7224 44.2635 32.6626 42.7139 31.1142L34.1582 22.5586L42.7133 14.0036C44.2635 12.4546 45.1172 10.3948 45.1172 8.20312C45.1172 6.01146 44.2635 3.95165 42.7139 2.40331C41.1641 0.853534 39.1045 0 36.9141 0C34.7236 0 32.664 0.853534 31.1143 2.40331L22.5586 10.959L14.0029 2.40331C12.4532 0.853534 10.3936 0 8.20313 0C6.01269 0 3.95309 0.853536 2.40393 2.4027C0.85374 3.95165 0 6.01146 0 8.20312C0 10.3948 0.853739 12.4546 2.40331 14.0029L10.959 22.5586L2.40393 31.1136C0.85374 32.6626 0 34.7224 0 36.9141ZM5.30352 34.0145L15.3093 24.0087C16.1101 23.2079 16.1101 21.9093 15.3093 21.1085L5.30291 11.1021C4.52833 10.3279 4.10156 9.29845 4.10156 8.20312C4.10156 7.1078 4.52833 6.07831 5.30352 5.30352C6.07872 4.52853 7.10842 4.10156 8.20313 4.10156C9.29783 4.10156 10.3275 4.52853 11.1027 5.30352L21.1085 15.3093C21.9093 16.1101 23.2079 16.1101 24.0089 15.3093L34.0147 5.30332C34.7897 4.52854 35.8194 4.10156 36.9141 4.10156C38.0088 4.10156 39.0385 4.52853 39.8143 5.30414C40.5889 6.07831 41.0156 7.1078 41.0156 8.20312C41.0156 9.29845 40.5889 10.3279 39.8137 11.1027L29.8079 21.1087C29.0071 21.9095 29.0071 23.2081 29.8079 24.0089L39.8143 34.0153C40.5889 34.7892 41.0156 35.8187 41.0156 36.9141C41.0156 38.0094 40.5889 39.0389 39.8137 39.8137C39.0385 40.5887 38.0088 41.0156 36.9141 41.0156C35.8194 41.0156 34.7897 40.5887 34.0145 39.8137L24.0087 29.8079C23.6082 29.4074 23.0834 29.2072 22.5586 29.2072C22.0338 29.2072 21.5088 29.4074 21.1085 29.8079L11.1027 39.8137C10.3275 40.5887 9.29783 41.0156 8.20313 41.0156C7.10842 41.0156 6.07872 40.5886 5.30291 39.813C4.52833 39.0389 4.10156 38.0094 4.10156 36.9141C4.10156 35.8187 4.52833 34.7892 5.30352 34.0145Z" transform="translate(29.9414 29.9414)" fill="#363636"/>
</svg>
