<svg width="125" height="113" viewBox="0 0 125 113" fill="none" xmlns="http://www.w3.org/2000/svg">
<path d="M31.4331 9.4216L75.0701 84.798C76.6705 87.5622 77.5907 90.7669 77.5907 94.188C77.5907 104.577 69.1453 113 58.7274 113H15.0906L0 56.4999L15.0906 0C22.0779 0 28.1734 3.79167 31.4331 9.4216Z" transform="translate(47.4094)" fill="#3B4145"/>
<path d="M46.1575 9.4216L2.52027 84.798C0.920167 87.5622 0 90.7669 0 94.188C0 104.577 8.44532 113 18.8633 113H62.5001V0C55.5127 0 49.4173 3.79167 46.1575 9.4216Z" fill="#525A61"/>
<path d="M53.1211 81.0292L9.48438 5.65354C7.51758 2.25484 3.90601 0.110295 0 0L37.3216 97.9448H43.3125C49.5525 97.9448 54.6304 92.881 54.6304 86.6577C54.6304 84.6812 54.1072 82.7348 53.1211 81.0292Z" transform="translate(62.8242 7.53125)" fill="#FFB751"/>
<path d="M101.061 81.0368C101.914 82.7423 102.364 84.6887 102.364 86.6653C102.364 92.8883 97.9854 97.9524 92.6004 97.9524H11.3179C5.07789 97.9524 0 92.8883 0 86.6653C0 84.6887 0.523194 82.7423 1.50904 81.0368L45.1458 5.66109C47.168 2.16963 50.9256 0 54.9546 0C55.0628 0 55.171 0.00243434 55.2791 0.00754736C58.6317 0.138051 61.7278 2.27749 63.4153 5.66109L101.061 81.0368Z" transform="translate(7.54639 7.52344)" fill="#FFD764"/>
<path d="M0 0V12.5413C3.47339 12.5413 6.28785 9.73446 6.28785 6.27051C6.28785 2.80681 3.47339 0 0 0Z" transform="translate(62.5 80.3926)" fill="#3B4145"/>
<path d="M6.28785 0C6.98194 0 7.54542 2.8068 7.54542 6.27075C7.54542 9.7347 6.98194 12.5415 6.28785 12.5415C2.81446 12.5415 0 9.7347 0 6.27075C0 2.8068 2.81446 0 6.28785 0Z" transform="translate(56.2124 80.3926)" fill="#525A61"/>
<path d="M0 0V46.4029C3.47339 46.4029 6.28785 43.5936 6.28785 40.1321V6.27076C6.28785 2.80681 3.47339 0 0 0Z" transform="translate(62.5 26.4658)" fill="#3B4145"/>
<path d="M6.28785 0C6.98194 0 7.54542 2.80681 7.54542 6.27076V40.1321C7.54542 43.5934 6.98194 46.4029 6.28785 46.4029C2.81446 46.4029 0 43.5936 0 40.1321V6.27076C0 2.80681 2.81446 0 6.28785 0Z" transform="translate(56.2124 26.4658)" fill="#525A61"/>
</svg>
