<svg width="32" height="32" viewBox="0 0 32 32" fill="none" xmlns="http://www.w3.org/2000/svg">
<path fill-rule="evenodd" clip-rule="evenodd" d="M16 32C24.8364 32 32 24.8359 32 16C32 7.16406 24.8364 0 16 0C7.16357 0 0 7.16406 0 16C0 24.8359 7.16357 32 16 32ZM10.5757 25.168L11.0854 25.0234C11.188 24.9961 11.2988 24.9707 11.4136 24.9453C11.9653 24.8203 12.603 24.6777 12.8154 24.1367C12.8154 24.1367 13.1577 23.1191 13.0171 21.3574C13.0171 21.3574 11.9678 21.2012 12.1094 18.1875C12.1094 18.1875 11.2617 18.873 11.0601 17.1699C11.0601 17.1699 10.8384 15.9941 10.6772 15.7793C10.6772 15.7793 10.2329 14.625 11.04 14.7812C11.04 14.7812 10.8984 12.5098 10.7983 12.002C10.7114 11.5625 10.7622 11.0508 10.8413 10.6172C10.9106 10.2383 11.0332 9.85742 11.2559 9.53516C11.5117 9.16602 11.9658 8.99414 12.3232 8.73828C12.7812 8.41016 13.2188 8.04883 13.7104 7.76758C13.9043 7.6582 14.1025 7.55469 14.3057 7.46094C14.3486 7.44141 14.4458 7.41797 14.5537 7.39062C14.7314 7.3457 14.937 7.29297 14.9731 7.24609C14.9731 7.24609 15.0332 7.16797 15.1577 7.10156C15.249 7.05273 15.3755 7.00977 15.5381 7.00977C15.9482 6.98633 16.3647 7.00586 16.7729 7.04297C17.144 7.07812 17.5132 7.13477 17.8726 7.23047C18.313 7.34961 18.7573 7.56836 19.187 7.73047C19.5029 7.84961 19.8047 8.00391 20.0825 8.19141C20.9028 8.74609 21.3579 9.53906 21.4883 10.4941C21.4883 10.4941 21.7505 12.4121 21.1455 14.6445C21.1455 14.6445 21.6245 14.4043 21.73 14.9102C21.7832 15.166 21.7397 15.6152 21.4883 16.3867C21.4883 16.3867 21.2866 17.0723 21.2471 17.4434C21.2471 17.4434 21.186 18.4219 20.4199 17.9512C20.4199 17.9512 20.48 21.2012 19.3911 21.3379C19.3911 21.3379 19.27 24.2949 19.9756 24.6074C19.9756 24.6074 20.6411 25.0977 22.8403 25.5078C22.8403 25.5078 24.6895 26.1035 26 26.6953C23.4771 28.7559 20.2246 30 16.6694 30C12.9497 30 9.56787 28.6309 7 26.3965C7.98877 26.0234 8.98486 25.666 9.99365 25.3457L10.5757 25.168Z" fill="url(#paint0_linear)"/>
<defs>
<linearGradient id="paint0_linear" x1="1.50829" y1="0" x2="1.50829" y2="28.9834" gradientUnits="userSpaceOnUse">
<stop stop-color="#BBBBBD"/>
<stop offset="1" stop-color="#66656A"/>
</linearGradient>
</defs>
</svg>
