<svg width="64" height="64" xmlns="http://www.w3.org/2000/svg">
 <defs>
  <linearGradient y2="0.905731" x2="0.047134" y1="0" x1="0.047134" id="paint0_linear">
   <stop stop-color="#BBBBBD"/>
   <stop stop-color="#66656A" offset="1"/>
  </linearGradient>
 </defs>
 <g>
  <title>background</title>
  <rect fill="none" id="canvas_background" height="66" width="66" y="-1" x="-1"/>
 </g>
 <g>
  <title>Layer 1</title>
  <path stroke="null" id="svg_1" fill="url(#paint0_linear)" d="m31.999999,63.642858c17.475559,0 31.642857,-14.168287 31.642857,-31.642857c0,-17.474649 -14.167298,-31.642857 -31.642857,-31.642857c-17.475618,0 -31.642857,14.168208 -31.642857,31.642857c0,17.47457 14.167239,31.642857 31.642857,31.642857zm-10.727522,-13.5115l1.008023,-0.285972c0.20291,-0.053991 0.422037,-0.104224 0.649074,-0.154457c1.091085,-0.24721 2.352251,-0.529227 2.77231,-1.599151c0,0 0.676959,-2.012486 0.398898,-5.496562c0,0 -2.075178,-0.308913 -1.795139,-6.269043c0,0 -1.676478,1.355699 -2.075178,-2.012486c0,0 -0.438451,-2.325354 -0.757253,-2.75016c0,0 -0.878683,-2.282834 0.717502,-1.973921c0,0 -0.280039,-4.492099 -0.478005,-5.496364c-0.17186,-0.86919 -0.071394,-1.881168 0.08504,-2.738689c0.137053,-0.749342 0.379517,-1.502601 0.819946,-2.139927c0.50589,-0.73004 1.403954,-1.069964 2.110776,-1.575973c0.905777,-0.648916 1.771209,-1.36351 2.743436,-1.919733c0.383472,-0.216318 0.775448,-0.421028 1.177312,-0.606435c0.084842,-0.038624 0.277073,-0.084981 0.490464,-0.13907c0.351433,-0.088837 0.758044,-0.19312 0.829438,-0.285834c0,0 0.118858,-0.154496 0.365079,-0.285834c0.180562,-0.09657 0.430738,-0.181531 0.752309,-0.181531c0.811046,-0.046357 1.634749,-0.007733 2.442038,0.065659c0.733917,0.069515 1.464075,0.181551 2.174853,0.370815c0.87097,0.235621 1.749652,0.668238 2.599461,0.988839c0.624749,0.235621 1.221612,0.540776 1.771011,0.911591c1.62229,1.096979 2.522331,2.665219 2.780221,4.553981c0,0 0.518547,3.793188 -0.677948,8.208157c0,0 0.947308,-0.475038 1.155953,0.525469c0.105213,0.50589 0.019183,1.394263 -0.478005,2.920042c0,0 -0.398898,1.355896 -0.477016,2.089813c0,0 -0.120836,1.935158 -1.635936,1.004265c0,0 0.118858,6.427455 -2.034636,6.697804c0,0 -0.239497,5.847996 1.155953,6.46602c0,0 1.316145,0.969656 5.665456,1.780702c0,0 3.657123,1.178103 6.248871,2.348493c-4.989485,4.075204 -11.421885,6.535634 -18.452928,6.535634c-7.356371,0 -14.044544,-2.70764 -19.122965,-7.126565c1.955469,-0.737872 3.925415,-1.444694 5.920477,-2.078145l1.151108,-0.351433z" clip-rule="evenodd" fill-rule="evenodd"/>
 </g>
</svg>