<svg width="375" height="44" viewBox="0 0 375 44" fill="none" xmlns="http://www.w3.org/2000/svg">
<path fill-rule="evenodd" clip-rule="evenodd" d="M0 0H375V44H0V0Z" fill="#F8F8F8"/>
<path fill-rule="evenodd" clip-rule="evenodd" d="M351.484 26.247L350.595 25.3585L360.235 15.7266L361.124 16.6151L351.484 26.247ZM349.739 24.5009L348.85 23.6124L358.489 13.9805L359.378 14.869L349.739 24.5009ZM348.122 27.2256L348.852 23.6113L351.488 26.2457L348.122 27.2256ZM362.629 13.2622L361.738 12.3717C361.243 11.8768 360.455 11.8778 359.969 12.3647L359.087 13.2452L361.755 15.9117L362.637 15.0312C363.126 14.5403 363.119 13.7522 362.629 13.2622ZM358.11 34.003H341.007V17.0643H353.927L354.924 16.0684H340V35H359.117V20.0872L358.11 21.0932V34.003Z" fill="#007AFF"/>
<mask id="path-3-inside-1" fill="white">
<path fill-rule="evenodd" clip-rule="evenodd" d="M265.066 13L253 21.7051L265.066 30.084V25.0156C266.24 24.916 272.853 24.7109 277.233 32H277.985C277.985 32 278.963 18.2656 265.066 18.1562V13Z"/>
</mask>
<path d="M253 21.7051L252.415 20.8941L251.269 21.7207L252.43 22.5265L253 21.7051ZM265.066 13H266.066V11.0455L264.481 12.189L265.066 13ZM265.066 30.084L264.496 30.9054L266.066 31.9958V30.084H265.066ZM265.066 25.0156L264.982 24.0192L264.066 24.0969V25.0156H265.066ZM277.233 32L276.376 32.5151L276.668 33H277.233V32ZM277.985 32V33H278.916L278.982 32.0711L277.985 32ZM265.066 18.1562H264.066V19.1484L265.059 19.1562L265.066 18.1562ZM253.585 22.5161L265.651 13.811L264.481 12.189L252.415 20.8941L253.585 22.5161ZM265.637 29.2626L253.57 20.8837L252.43 22.5265L264.496 30.9054L265.637 29.2626ZM264.066 25.0156V30.084H266.066V25.0156H264.066ZM265.151 26.012C266.161 25.9263 272.283 25.705 276.376 32.5151L278.091 31.4849C273.422 23.7168 266.318 23.9057 264.982 24.0192L265.151 26.012ZM277.233 33H277.985V31H277.233V33ZM277.985 32C278.982 32.0711 278.982 32.0705 278.982 32.0699C278.982 32.0697 278.982 32.069 278.983 32.0685C278.983 32.0674 278.983 32.0661 278.983 32.0646C278.983 32.0616 278.983 32.0578 278.984 32.0531C278.984 32.0438 278.985 32.0312 278.986 32.0154C278.987 31.9839 278.99 31.9395 278.992 31.8832C278.996 31.7707 279 31.6102 279 31.4086C278.999 31.0058 278.982 30.4365 278.916 29.7555C278.784 28.3989 278.455 26.5695 277.655 24.7218C276.852 22.8689 275.568 20.9779 273.521 19.5461C271.469 18.1107 268.72 17.185 265.074 17.1563L265.059 19.1562C268.361 19.1822 270.701 20.0143 272.374 21.1849C274.053 22.359 275.129 23.9221 275.819 25.5165C276.512 27.116 276.806 28.7271 276.925 29.9491C276.984 30.5574 276.999 31.062 277 31.4107C277 31.5848 276.996 31.7196 276.993 31.8082C276.991 31.8526 276.99 31.8854 276.989 31.9058C276.988 31.916 276.988 31.9231 276.988 31.927C276.987 31.9289 276.987 31.9301 276.987 31.9304C276.987 31.9306 276.987 31.9305 276.987 31.9303C276.987 31.9302 276.987 31.9298 276.987 31.9298C276.987 31.9294 276.987 31.9289 277.985 32ZM264.066 13V18.1562H266.066V13H264.066Z" fill="#007AFF" mask="url(#path-3-inside-1)"/>
<path fill-rule="evenodd" clip-rule="evenodd" d="M192 12C192 10.8955 191.105 10 190 10H185.001C183.896 10 183.001 10.8955 183.001 12V13H178V14H179.125L180 33.5C180 33.5 180.314 35 181.5 35C182.323 35 185.651 35 187 35C187 35 187.406 35 188 35C189.145 35 193.145 35 193.5 35C194.686 35 195 33.5 195 33.5L195.833 14H197V13H192V12ZM184 12C184 11.4475 184.523 11 185.167 11H189.834C190.478 11 191 11.448 191 12V13H184V12ZM193.5 34H188H187H181.5C181.5 34 181.084 33.773 181 33C180.917 32.227 180.125 14 180.125 14H194.792C194.792 14 194.084 32.227 194 33C193.917 33.773 193.5 34 193.5 34ZM191.5 16H190.5L190 32H191L191.5 16ZM185 32L184.5 16H183.5L184 32H185ZM187 16H188V32H187V16Z" fill="#007AFF"/>
<path fill-rule="evenodd" clip-rule="evenodd" d="M105.943 15L104.98 13H99.5C98.6715 13 98 13.672 98 14.5V29.5C98 30.3285 98.6715 31 99.5 31H117.5C118.329 31 119 30.328 119 29.5V16.5005C119 15.672 118.329 15 117.5 15H105.943ZM118 29.5C118 29.7765 117.77 30.0005 117.486 30.0005H99.5135C99.2301 30.0005 99 29.7765 99 29.5V19.5C99 19.2235 99.2301 19 99.5135 19H117.486C117.77 19 118 19.2235 118 19.5V29.5ZM118 18H99V14.5C99 14.224 99.224 14 99.5 14H104.492L105.489 16H117.5C117.776 16 118 16.224 118 16.5V17V18Z" fill="#007AFF"/>
<path d="M31.9 12.3359C31.8 12.4359 31.6 12.4359 31.5 12.5359C30.6 12.9359 29.1 13.5359 27.7 13.5359C24.2 13.5359 24 12.2359 21.1 12.0359C18.2 11.8359 16 12.5359 16 12.5359V22.4359V23.8359V23.9359V31.9359H17V22.9359C17.5 22.6359 18.4 22.4359 19.6 22.4359C21.9 22.4359 23.4 23.9359 27.1 23.9359C30.8 23.9359 32.5 22.7359 32.5 22.7359V13.1359V12.5359V12.0359C32.5 12.0359 32.3 12.1359 31.9 12.3359ZM31.5 22.1359C31.3 22.2359 31.1 22.3359 30.8 22.3359C29.8 22.6359 28.5 22.8359 27 22.8359C25.6 22.8359 24.5 22.6359 23 22.1359C22.9 22.1359 22.3 21.9359 22.2 21.8359C22 21.9359 21.7 21.8359 21.5 21.7359C20.8 21.6359 20.2 21.5359 19.6 21.5359C18.6 21.4359 17.7 21.6359 17 21.9359V13.2359C17.1 13.2359 17.2 13.2359 17.3 13.1359C18.4 12.9359 19.7 12.8359 21 13.0359C22 13.1359 22.5 13.2359 23.5 13.7359C23.5 13.7359 23.5 13.7359 23.6 13.7359C25.1 14.3359 26 14.5359 27.8 14.5359C28.1 14.5359 28.5 14.5359 28.9 14.4359C29.7 14.3359 30.5 14.0359 31.4 13.7359C31.5 13.7359 31.5 13.6359 31.6 13.6359V22.1359H31.5Z" fill="#007AFF"/>
</svg>
