<svg width="375" height="216" viewBox="0 0 375 216" fill="none" xmlns="http://www.w3.org/2000/svg">
<path fill-rule="evenodd" clip-rule="evenodd" d="M0 173H375V216H0V173Z" fill="white"/>
<path fill-rule="evenodd" clip-rule="evenodd" d="M180 194.501C180 185.112 187.611 177.398 197 177.398H342C351.389 177.398 359 185.112 359 194.501C359 203.89 351.389 211.603 342 211.603H197C187.611 211.603 180 203.89 180 194.501Z" fill="#F9F9F9" stroke="#CDCED2" stroke-width="0.5"/>
<path fill-rule="evenodd" clip-rule="evenodd" d="M354 194.027C354 201.207 348.18 207.027 341 207.027C333.82 207.027 328 201.207 328 194.027C328 186.848 333.82 181.027 341 181.027C348.18 181.027 354 186.848 354 194.027ZM341 197.527C342.657 197.527 344 196.184 344 194.527V188.027C344 186.371 342.657 185.027 341 185.027C339.343 185.027 338 186.371 338 188.027V194.527C338 196.184 339.343 197.527 341 197.527ZM345 194.527V191.527H346V194.527C345.996 197.113 344.021 199.246 341.5 199.498V202.027H344.5V203.027H337.5V202.027H340.5V199.498C337.979 199.246 336.004 197.113 336 194.527V191.527H337V194.527C336.996 196.705 338.743 198.479 340.908 198.527H341.092C343.257 198.479 345.004 196.705 345 194.527Z" fill="#858E98"/>
<path d="M194.17 192.435H195.385V199.98H194.17V192.435ZM195.535 189.24V190.62H194.05V189.24H195.535ZM207.749 189.3V199.98H206.609V192.045L203.144 199.98H202.274L198.779 192.105L198.794 199.98H197.654V189.3H198.674L202.724 198.51L206.729 189.3H207.749ZM216.309 196.17H210.774C210.784 197.13 211.004 197.855 211.434 198.345C211.874 198.835 212.509 199.08 213.339 199.08C214.219 199.08 215.029 198.785 215.769 198.195L216.174 199.08C215.844 199.39 215.419 199.635 214.899 199.815C214.389 199.995 213.864 200.085 213.324 200.085C212.144 200.085 211.219 199.74 210.549 199.05C209.879 198.35 209.544 197.395 209.544 196.185C209.544 195.415 209.694 194.735 209.994 194.145C210.294 193.545 210.714 193.08 211.254 192.75C211.794 192.42 212.409 192.255 213.099 192.255C214.099 192.255 214.884 192.585 215.454 193.245C216.024 193.895 216.309 194.795 216.309 195.945V196.17ZM213.114 193.2C212.484 193.2 211.969 193.39 211.569 193.77C211.179 194.15 210.929 194.685 210.819 195.375H215.214C215.154 194.665 214.944 194.125 214.584 193.755C214.234 193.385 213.744 193.2 213.114 193.2ZM220.463 200.085C219.193 200.085 218.188 199.76 217.448 199.11L217.853 198.21C218.263 198.53 218.678 198.76 219.098 198.9C219.518 199.04 219.988 199.11 220.508 199.11C221.078 199.11 221.508 199.015 221.798 198.825C222.098 198.625 222.248 198.34 222.248 197.97C222.248 197.67 222.148 197.43 221.948 197.25C221.748 197.07 221.418 196.93 220.958 196.83L219.683 196.53C219.053 196.39 218.563 196.14 218.213 195.78C217.873 195.42 217.703 194.99 217.703 194.49C217.703 193.83 217.968 193.295 218.498 192.885C219.028 192.465 219.728 192.255 220.598 192.255C221.128 192.255 221.628 192.34 222.098 192.51C222.568 192.68 222.963 192.925 223.283 193.245L222.878 194.13C222.168 193.54 221.408 193.245 220.598 193.245C220.058 193.245 219.638 193.35 219.338 193.56C219.048 193.76 218.903 194.045 218.903 194.415C218.903 194.725 218.993 194.97 219.173 195.15C219.363 195.33 219.663 195.47 220.073 195.57L221.348 195.885C222.048 196.045 222.568 196.295 222.908 196.635C223.248 196.965 223.418 197.4 223.418 197.94C223.418 198.59 223.153 199.11 222.623 199.5C222.093 199.89 221.373 200.085 220.463 200.085ZM227.664 200.085C226.394 200.085 225.389 199.76 224.649 199.11L225.054 198.21C225.464 198.53 225.879 198.76 226.299 198.9C226.719 199.04 227.189 199.11 227.709 199.11C228.279 199.11 228.709 199.015 228.999 198.825C229.299 198.625 229.449 198.34 229.449 197.97C229.449 197.67 229.349 197.43 229.149 197.25C228.949 197.07 228.619 196.93 228.159 196.83L226.884 196.53C226.254 196.39 225.764 196.14 225.414 195.78C225.074 195.42 224.904 194.99 224.904 194.49C224.904 193.83 225.169 193.295 225.699 192.885C226.229 192.465 226.929 192.255 227.799 192.255C228.329 192.255 228.829 192.34 229.299 192.51C229.769 192.68 230.164 192.925 230.484 193.245L230.079 194.13C229.369 193.54 228.609 193.245 227.799 193.245C227.259 193.245 226.839 193.35 226.539 193.56C226.249 193.76 226.104 194.045 226.104 194.415C226.104 194.725 226.194 194.97 226.374 195.15C226.564 195.33 226.864 195.47 227.274 195.57L228.549 195.885C229.249 196.045 229.769 196.295 230.109 196.635C230.449 196.965 230.619 197.4 230.619 197.94C230.619 198.59 230.354 199.11 229.824 199.5C229.294 199.89 228.574 200.085 227.664 200.085ZM238.961 192.435V199.98H237.761V198.615C237.541 199.085 237.206 199.45 236.756 199.71C236.316 199.96 235.801 200.085 235.211 200.085C234.541 200.085 233.951 199.925 233.441 199.605C232.941 199.285 232.551 198.835 232.271 198.255C232.001 197.665 231.866 196.98 231.866 196.2C231.866 195.42 232.006 194.735 232.286 194.145C232.566 193.545 232.956 193.08 233.456 192.75C233.966 192.42 234.551 192.255 235.211 192.255C235.801 192.255 236.316 192.385 236.756 192.645C237.196 192.905 237.531 193.27 237.761 193.74V192.435H238.961ZM235.451 199.08C236.191 199.08 236.761 198.83 237.161 198.33C237.561 197.82 237.761 197.1 237.761 196.17C237.761 195.24 237.561 194.525 237.161 194.025C236.761 193.525 236.191 193.275 235.451 193.275C234.711 193.275 234.131 193.535 233.711 194.055C233.301 194.565 233.096 195.28 233.096 196.2C233.096 197.12 233.301 197.83 233.711 198.33C234.121 198.83 234.701 199.08 235.451 199.08ZM247.79 192.435V199.92C247.79 201.04 247.5 201.885 246.92 202.455C246.35 203.035 245.505 203.325 244.385 203.325C243.235 203.325 242.245 203.065 241.415 202.545L241.625 201.555C242.105 201.825 242.555 202.02 242.975 202.14C243.405 202.26 243.875 202.32 244.385 202.32C245.115 202.32 245.665 202.125 246.035 201.735C246.405 201.355 246.59 200.785 246.59 200.025V198.24C246.36 198.72 246.02 199.095 245.57 199.365C245.13 199.625 244.605 199.755 243.995 199.755C243.335 199.755 242.745 199.6 242.225 199.29C241.715 198.98 241.32 198.54 241.04 197.97C240.76 197.4 240.62 196.745 240.62 196.005C240.62 195.265 240.76 194.61 241.04 194.04C241.32 193.47 241.715 193.03 242.225 192.72C242.745 192.41 243.335 192.255 243.995 192.255C244.595 192.255 245.115 192.385 245.555 192.645C246.005 192.905 246.345 193.27 246.575 193.74V192.435H247.79ZM244.235 198.735C244.965 198.735 245.535 198.495 245.945 198.015C246.365 197.525 246.575 196.855 246.575 196.005C246.575 195.155 246.365 194.49 245.945 194.01C245.535 193.52 244.965 193.275 244.235 193.275C243.495 193.275 242.91 193.52 242.48 194.01C242.06 194.49 241.85 195.155 241.85 196.005C241.85 196.855 242.06 197.525 242.48 198.015C242.91 198.495 243.495 198.735 244.235 198.735ZM256.198 196.17H250.663C250.673 197.13 250.893 197.855 251.323 198.345C251.763 198.835 252.398 199.08 253.228 199.08C254.108 199.08 254.918 198.785 255.658 198.195L256.063 199.08C255.733 199.39 255.308 199.635 254.788 199.815C254.278 199.995 253.753 200.085 253.213 200.085C252.033 200.085 251.108 199.74 250.438 199.05C249.768 198.35 249.433 197.395 249.433 196.185C249.433 195.415 249.583 194.735 249.883 194.145C250.183 193.545 250.603 193.08 251.143 192.75C251.683 192.42 252.298 192.255 252.988 192.255C253.988 192.255 254.773 192.585 255.343 193.245C255.913 193.895 256.198 194.795 256.198 195.945V196.17ZM253.003 193.2C252.373 193.2 251.858 193.39 251.458 193.77C251.068 194.15 250.818 194.685 250.708 195.375H255.103C255.043 194.665 254.833 194.125 254.473 193.755C254.123 193.385 253.633 193.2 253.003 193.2Z" fill="#CDCED2"/>
<path fill-rule="evenodd" clip-rule="evenodd" d="M139.5 207.475H148.5C155.404 207.475 161 201.879 161 194.975C161 188.071 155.404 182.475 148.5 182.475H139.5C132.596 182.475 127 188.071 127 194.975C127 201.879 132.596 207.475 139.5 207.475ZM150.823 197.475L149.561 198.252C149.561 198.252 148.985 199.319 151.003 200.657C151.359 200.893 151.496 201.124 151.642 201.516C151.761 201.837 151.96 201.934 152.12 201.561C152.12 201.561 152.715 198.867 151.688 197.999C151.688 197.999 151.309 197.547 150.823 197.475ZM135.708 201.165C135.708 201.165 135.428 202.099 136.114 201.479C136.139 201.457 138.176 199.517 138.176 199.517L136.512 198.545L135.708 201.165ZM140.948 190.641L140.933 190.667L136.776 197.978L138.566 199L142.724 191.689L140.948 190.641ZM143.586 190.246C143.762 189.935 143.653 189.536 143.343 189.359L142.68 188.981C142.37 188.804 141.972 188.914 141.796 189.225L141.174 190.279L142.964 191.301L143.586 190.246ZM144.741 186.434C144.562 186.124 144.163 186.017 143.855 186.196L143.312 186.532C143.003 186.712 142.897 187.112 143.075 187.422L147.861 195.839L149.526 194.851L144.741 186.434ZM149.852 195.326L148.176 196.314L149.108 197.936L150.778 196.943L149.852 195.326ZM142.149 194.18L141.026 196.155H147.006L145.873 194.18H142.149ZM138.106 194.18H135.066V196.155H136.983L138.106 194.18ZM151.339 196.155H153.066V194.18H150.206L151.339 196.155Z" fill="#858E98"/>
<path fill-rule="evenodd" clip-rule="evenodd" d="M90.2134 190.385C89.8034 189.976 89.1374 189.976 88.7274 190.385L87.9154 191.196C87.5044 191.606 87.5044 192.271 87.9154 192.681L88.4004 193.165C88.9914 193.755 89.9494 193.755 90.5404 193.165L90.6984 193.007C91.2894 192.417 91.2894 191.46 90.6984 190.87L90.2134 190.385ZM86.7499 185.787C78.2279 176.983 60.6149 190.447 86.7499 206.5C87.6429 205.952 88.4809 205.406 89.2739 204.864L84.1439 199.739L83.9499 199.546C83.0639 198.661 83.0639 197.227 83.9499 196.342L84.3879 195.905C85.2739 195.02 86.7099 195.02 87.5959 195.905L87.7479 196.057L93.4079 201.71C93.8139 201.36 94.2059 201.013 94.5729 200.668L87.5189 193.621L87.3249 193.429C86.4389 192.544 86.4389 191.109 87.3249 190.224L87.7629 189.787C88.6489 188.902 90.0849 188.902 90.9709 189.787L91.1229 189.94L97.9909 196.8C105.798 185.729 93.4599 178.856 86.7499 185.787ZM86.8384 196.502C86.4284 196.093 85.7624 196.093 85.3524 196.502L84.5404 197.313C84.1294 197.723 84.1294 198.388 84.5404 198.798L85.0254 199.282C85.6164 199.872 86.5744 199.872 87.1654 199.282L87.3234 199.124C87.9144 198.534 87.9144 197.577 87.3234 196.987L86.8384 196.502Z" fill="#858E98"/>
<path fill-rule="evenodd" clip-rule="evenodd" d="M21.5283 186.883H24.5348V185.803H21.5283V186.883ZM32.9998 192.053C30.2168 192.053 27.96 194.265 27.96 196.993C27.96 199.722 30.2168 201.934 32.9998 201.934C35.7837 201.934 38.0396 199.722 38.0396 196.993C38.0396 194.265 35.7837 192.053 32.9998 192.053ZM42.1496 190.647C42.1496 191.13 41.7497 191.522 41.2567 191.522H41.2386C40.7456 191.522 40.3457 191.13 40.3457 190.647V190.629C40.3457 190.146 40.7456 189.754 41.2386 189.754H41.2567C41.7497 189.754 42.1496 190.146 42.1496 190.629V190.647ZM32.9999 203.304C29.4493 203.304 26.5601 200.472 26.5601 196.991C26.5601 193.51 29.4493 190.678 32.9999 190.678C36.5505 190.678 39.4397 193.51 39.4397 196.991C39.4397 200.472 36.5505 203.304 32.9999 203.304ZM43.9936 187.773H40.3197C39.9449 187.773 39.5951 187.589 39.3877 187.283L37.8123 184.968C37.6049 184.662 37.2551 184.479 36.8803 184.479H29.1197C28.7449 184.479 28.3951 184.662 28.1877 184.968L26.6123 187.283C26.4049 187.589 26.0551 187.773 25.6803 187.773H22.0064C20.3459 187.773 19 189.092 19 190.72V202.531C19 204.159 20.3459 205.479 22.0064 205.479H43.9936C45.6541 205.479 47 204.159 47 202.531V190.72C47 189.092 45.6541 187.773 43.9936 187.773Z" fill="#858E98"/>
<g filter="url(#filter0_b)">
<path fill-rule="evenodd" clip-rule="evenodd" d="M0 0H375V216H0V0Z" fill="#CFD2D9" fill-opacity="0.9"/>
</g>
<g filter="url(#filter1_d)">
<path fill-rule="evenodd" clip-rule="evenodd" d="M284 175C284 172.239 286.239 170 289 170H367C369.761 170 372 172.239 372 175V207C372 209.761 369.761 212 367 212H289C286.239 212 284 209.761 284 207V175Z" fill="#007AFF"/>
</g>
<path d="M307.64 196.128C305.859 196.128 304.44 195.648 303.384 194.688L303.88 193.68C304.446 194.16 305.022 194.501 305.608 194.704C306.195 194.907 306.878 195.008 307.656 195.008C308.574 195.008 309.278 194.832 309.768 194.48C310.27 194.117 310.52 193.611 310.52 192.96C310.52 192.576 310.398 192.267 310.152 192.032C309.918 191.787 309.603 191.595 309.208 191.456C308.824 191.317 308.307 191.173 307.656 191.024C306.782 190.832 306.062 190.624 305.496 190.4C304.931 190.176 304.472 189.856 304.12 189.44C303.768 189.013 303.592 188.459 303.592 187.776C303.592 187.125 303.763 186.555 304.104 186.064C304.446 185.563 304.926 185.173 305.544 184.896C306.174 184.619 306.904 184.48 307.736 184.48C308.526 184.48 309.262 184.603 309.944 184.848C310.627 185.093 311.203 185.451 311.672 185.92L311.16 186.928C310.627 186.469 310.083 186.133 309.528 185.92C308.984 185.707 308.387 185.6 307.736 185.6C306.851 185.6 306.158 185.792 305.656 186.176C305.155 186.549 304.904 187.067 304.904 187.728C304.904 188.304 305.123 188.736 305.56 189.024C305.998 189.312 306.67 189.563 307.576 189.776C308.558 190.011 309.326 190.229 309.88 190.432C310.446 190.624 310.915 190.923 311.288 191.328C311.662 191.723 311.848 192.251 311.848 192.912C311.848 193.552 311.678 194.117 311.336 194.608C310.995 195.088 310.504 195.461 309.864 195.728C309.235 195.995 308.494 196.128 307.64 196.128ZM320.249 191.936H314.345C314.356 192.96 314.59 193.733 315.049 194.256C315.518 194.779 316.196 195.04 317.081 195.04C318.02 195.04 318.884 194.725 319.673 194.096L320.105 195.04C319.753 195.371 319.3 195.632 318.745 195.824C318.201 196.016 317.641 196.112 317.065 196.112C315.806 196.112 314.82 195.744 314.105 195.008C313.39 194.261 313.033 193.243 313.033 191.952C313.033 191.131 313.193 190.405 313.513 189.776C313.833 189.136 314.281 188.64 314.857 188.288C315.433 187.936 316.089 187.76 316.825 187.76C317.892 187.76 318.729 188.112 319.337 188.816C319.945 189.509 320.249 190.469 320.249 191.696V191.936ZM316.841 188.768C316.169 188.768 315.62 188.971 315.193 189.376C314.777 189.781 314.51 190.352 314.393 191.088H319.081C319.017 190.331 318.793 189.755 318.409 189.36C318.036 188.965 317.513 188.768 316.841 188.768ZM328.984 187.952V196H327.704V194.544C327.469 195.045 327.112 195.435 326.632 195.712C326.163 195.979 325.613 196.112 324.984 196.112C324.269 196.112 323.64 195.941 323.096 195.6C322.563 195.259 322.147 194.779 321.848 194.16C321.56 193.531 321.416 192.8 321.416 191.968C321.416 191.136 321.565 190.405 321.864 189.776C322.163 189.136 322.579 188.64 323.112 188.288C323.656 187.936 324.28 187.76 324.984 187.76C325.613 187.76 326.163 187.899 326.632 188.176C327.101 188.453 327.459 188.843 327.704 189.344V187.952H328.984ZM325.24 195.04C326.029 195.04 326.637 194.773 327.064 194.24C327.491 193.696 327.704 192.928 327.704 191.936C327.704 190.944 327.491 190.181 327.064 189.648C326.637 189.115 326.029 188.848 325.24 188.848C324.451 188.848 323.832 189.125 323.384 189.68C322.947 190.224 322.728 190.987 322.728 191.968C322.728 192.949 322.947 193.707 323.384 194.24C323.821 194.773 324.44 195.04 325.24 195.04ZM334.914 187.76C335.181 187.76 335.426 187.792 335.65 187.856L335.618 189.04C335.373 188.955 335.09 188.912 334.77 188.912C333.991 188.912 333.41 189.157 333.026 189.648C332.653 190.128 332.466 190.715 332.466 191.408V196H331.17V190.208C331.17 189.376 331.127 188.624 331.042 187.952H332.274L332.402 189.44C332.605 188.896 332.93 188.48 333.378 188.192C333.826 187.904 334.338 187.76 334.914 187.76ZM339.867 196.112C339.088 196.112 338.405 195.941 337.819 195.6C337.243 195.259 336.795 194.779 336.475 194.16C336.165 193.531 336.011 192.8 336.011 191.968C336.011 191.136 336.171 190.405 336.491 189.776C336.811 189.136 337.264 188.64 337.851 188.288C338.448 187.936 339.141 187.76 339.931 187.76C340.475 187.76 340.997 187.856 341.499 188.048C342.011 188.229 342.432 188.485 342.763 188.816L342.331 189.776C341.925 189.456 341.531 189.221 341.147 189.072C340.773 188.923 340.389 188.848 339.995 188.848C339.173 188.848 338.528 189.125 338.059 189.68C337.589 190.224 337.355 190.987 337.355 191.968C337.355 192.939 337.584 193.696 338.043 194.24C338.512 194.773 339.163 195.04 339.995 195.04C340.389 195.04 340.773 194.965 341.147 194.816C341.531 194.667 341.925 194.432 342.331 194.112L342.763 195.072C342.421 195.392 341.989 195.648 341.467 195.84C340.955 196.021 340.421 196.112 339.867 196.112ZM348.108 187.76C350.039 187.76 351.004 188.821 351.004 190.944V196H349.708V191.008C349.708 190.261 349.559 189.717 349.26 189.376C348.962 189.024 348.492 188.848 347.852 188.848C347.106 188.848 346.508 189.077 346.06 189.536C345.612 189.995 345.388 190.613 345.388 191.392V196H344.092V184.224H345.388V189.264C345.644 188.773 346.007 188.4 346.476 188.144C346.956 187.888 347.5 187.76 348.108 187.76Z" fill="white"/>
<g filter="url(#filter2_d)">
<path fill-rule="evenodd" clip-rule="evenodd" d="M134 175C134 172.239 136.239 170 139 170H273.5C276.261 170 278.5 172.239 278.5 175V207C278.5 209.761 276.261 212 273.5 212H139C136.239 212 134 209.761 134 207V175Z" fill="white"/>
</g>
<path d="M188.393 196.112C187.038 196.112 185.966 195.765 185.177 195.072L185.609 194.112C186.046 194.453 186.489 194.699 186.937 194.848C187.385 194.997 187.886 195.072 188.441 195.072C189.049 195.072 189.508 194.971 189.817 194.768C190.137 194.555 190.297 194.251 190.297 193.856C190.297 193.536 190.19 193.28 189.977 193.088C189.764 192.896 189.412 192.747 188.921 192.64L187.561 192.32C186.889 192.171 186.366 191.904 185.993 191.52C185.63 191.136 185.449 190.677 185.449 190.144C185.449 189.44 185.732 188.869 186.297 188.432C186.862 187.984 187.609 187.76 188.537 187.76C189.102 187.76 189.636 187.851 190.137 188.032C190.638 188.213 191.06 188.475 191.401 188.816L190.969 189.76C190.212 189.131 189.401 188.816 188.537 188.816C187.961 188.816 187.513 188.928 187.193 189.152C186.884 189.365 186.729 189.669 186.729 190.064C186.729 190.395 186.825 190.656 187.017 190.848C187.22 191.04 187.54 191.189 187.977 191.296L189.337 191.632C190.084 191.803 190.638 192.069 191.001 192.432C191.364 192.784 191.545 193.248 191.545 193.824C191.545 194.517 191.262 195.072 190.697 195.488C190.132 195.904 189.364 196.112 188.393 196.112ZM197.306 187.76C198.01 187.76 198.634 187.936 199.178 188.288C199.722 188.64 200.144 189.136 200.443 189.776C200.741 190.405 200.891 191.136 200.891 191.968C200.891 192.8 200.741 193.531 200.443 194.16C200.144 194.779 199.722 195.259 199.178 195.6C198.645 195.941 198.021 196.112 197.306 196.112C196.677 196.112 196.128 195.973 195.658 195.696C195.189 195.419 194.832 195.024 194.586 194.512V199.456H193.29V190.208C193.29 189.376 193.248 188.624 193.162 187.952H194.394L194.522 189.504C194.746 188.949 195.098 188.523 195.578 188.224C196.069 187.915 196.645 187.76 197.306 187.76ZM197.066 195.04C197.856 195.04 198.464 194.773 198.891 194.24C199.328 193.707 199.546 192.949 199.546 191.968C199.546 190.987 199.328 190.224 198.891 189.68C198.453 189.125 197.845 188.848 197.066 188.848C196.266 188.848 195.653 189.115 195.226 189.648C194.8 190.181 194.586 190.944 194.586 191.936C194.586 192.928 194.8 193.696 195.226 194.24C195.653 194.773 196.266 195.04 197.066 195.04ZM209.652 187.952V196H208.372V194.544C208.138 195.045 207.78 195.435 207.3 195.712C206.831 195.979 206.282 196.112 205.652 196.112C204.938 196.112 204.308 195.941 203.764 195.6C203.231 195.259 202.815 194.779 202.516 194.16C202.228 193.531 202.084 192.8 202.084 191.968C202.084 191.136 202.234 190.405 202.532 189.776C202.831 189.136 203.247 188.64 203.78 188.288C204.324 187.936 204.948 187.76 205.652 187.76C206.282 187.76 206.831 187.899 207.3 188.176C207.77 188.453 208.127 188.843 208.372 189.344V187.952H209.652ZM205.908 195.04C206.698 195.04 207.306 194.773 207.732 194.24C208.159 193.696 208.372 192.928 208.372 191.936C208.372 190.944 208.159 190.181 207.732 189.648C207.306 189.115 206.698 188.848 205.908 188.848C205.119 188.848 204.5 189.125 204.052 189.68C203.615 190.224 203.396 190.987 203.396 191.968C203.396 192.949 203.615 193.707 204.052 194.24C204.49 194.773 205.108 195.04 205.908 195.04ZM215.214 196.112C214.435 196.112 213.753 195.941 213.166 195.6C212.59 195.259 212.142 194.779 211.822 194.16C211.513 193.531 211.358 192.8 211.358 191.968C211.358 191.136 211.518 190.405 211.838 189.776C212.158 189.136 212.611 188.64 213.198 188.288C213.795 187.936 214.489 187.76 215.278 187.76C215.822 187.76 216.345 187.856 216.846 188.048C217.358 188.229 217.779 188.485 218.11 188.816L217.678 189.776C217.273 189.456 216.878 189.221 216.494 189.072C216.121 188.923 215.737 188.848 215.342 188.848C214.521 188.848 213.875 189.125 213.406 189.68C212.937 190.224 212.702 190.987 212.702 191.968C212.702 192.939 212.931 193.696 213.39 194.24C213.859 194.773 214.51 195.04 215.342 195.04C215.737 195.04 216.121 194.965 216.494 194.816C216.878 194.667 217.273 194.432 217.678 194.112L218.11 195.072C217.769 195.392 217.337 195.648 216.814 195.84C216.302 196.021 215.769 196.112 215.214 196.112ZM226.176 191.936H220.272C220.283 192.96 220.517 193.733 220.976 194.256C221.445 194.779 222.123 195.04 223.008 195.04C223.947 195.04 224.811 194.725 225.6 194.096L226.032 195.04C225.68 195.371 225.227 195.632 224.672 195.824C224.128 196.016 223.568 196.112 222.992 196.112C221.733 196.112 220.747 195.744 220.032 195.008C219.317 194.261 218.96 193.243 218.96 191.952C218.96 191.131 219.12 190.405 219.44 189.776C219.76 189.136 220.208 188.64 220.784 188.288C221.36 187.936 222.016 187.76 222.752 187.76C223.819 187.76 224.656 188.112 225.264 188.816C225.872 189.509 226.176 190.469 226.176 191.696V191.936ZM222.768 188.768C222.096 188.768 221.547 188.971 221.12 189.376C220.704 189.781 220.437 190.352 220.32 191.088H225.008C224.944 190.331 224.72 189.755 224.336 189.36C223.963 188.965 223.44 188.768 222.768 188.768Z" fill="black"/>
<g filter="url(#filter3_d)">
<path fill-rule="evenodd" clip-rule="evenodd" d="M96.5 175C96.5 172.239 98.7386 170 101.5 170H123.5C126.261 170 128.5 172.239 128.5 175V207C128.5 209.761 126.261 212 123.5 212H101.5C98.7386 212 96.5 209.761 96.5 207V175Z" fill="white"/>
</g>
<path d="M117.5 188.562V192.499C117.5 194.985 115.485 197 112.999 197H112.001C109.515 197 107.5 194.985 107.5 192.496V188.533L118 188.562H117.5Z" stroke="black"/>
<path fill-rule="evenodd" clip-rule="evenodd" d="M112.5 181.5C110.571 181.5 109 183.066 109 184.996V192.004C109 193.936 110.567 195.5 112.5 195.5C114.429 195.5 116 193.934 116 192.004V184.996C116 183.064 114.433 181.5 112.5 181.5ZM110 192.004V184.996C110 183.619 111.122 182.5 112.5 182.5C113.395 182.5 114.179 182.969 114.621 183.674C114.861 184.057 115 184.51 115 184.996V192.004C115 193.381 113.878 194.5 112.5 194.5C111.119 194.5 110 193.383 110 192.004Z" fill="black"/>
<path d="M112 197V200.938H113V197H112Z" fill="black"/>
<path d="M109 201.5H116V200.5H109V201.5Z" fill="black"/>
<g filter="url(#filter4_d)">
<path fill-rule="evenodd" clip-rule="evenodd" d="M49 175C49 172.239 51.2386 170 54 170H86C88.7614 170 91 172.239 91 175V207C91 209.761 88.7614 212 86 212H54C51.2386 212 49 209.761 49 207V175Z" fill="#ACB4BE"/>
</g>
<path d="M63.0938 198.768C63.1608 198.692 63.3054 198.547 63.5252 198.356C63.8983 198.03 64.3422 197.704 64.8544 197.398C66.3012 196.536 67.99 196.013 69.9097 196C71.8421 195.987 73.5759 196.535 75.0868 197.458C75.6095 197.777 76.0666 198.119 76.4543 198.46C76.5888 198.578 76.7045 198.687 76.801 198.784C76.8567 198.84 76.8924 198.878 76.9075 198.895L77.655 198.231C77.5568 198.12 77.3756 197.938 77.1144 197.709C76.6851 197.331 76.1822 196.955 75.6082 196.605C73.9472 195.59 72.0351 194.986 69.9028 195C67.7947 195.015 65.9347 195.59 64.3423 196.539C63.7766 196.877 63.2846 197.239 62.868 197.602C62.6139 197.823 62.4386 197.999 62.3438 198.107L63.0938 198.768Z" fill="black"/>
<path d="M62.3438 185.456C62.4386 185.563 62.6139 185.74 62.868 185.961C63.2846 186.324 63.7766 186.686 64.3423 187.023C65.9347 187.973 67.7947 188.548 69.9028 188.563C72.0351 188.577 73.9472 187.973 75.6082 186.958C76.1822 186.607 76.6851 186.231 77.1144 185.854C77.3756 185.625 77.5568 185.443 77.655 185.332L76.9075 184.668C76.8924 184.685 76.8567 184.723 76.801 184.779C76.7045 184.876 76.5888 184.985 76.4543 185.103C76.0666 185.444 75.6095 185.786 75.0868 186.105C73.5759 187.028 71.8421 187.576 69.9097 187.563C67.99 187.549 66.3012 187.027 64.8544 186.165C64.3422 185.859 63.8983 185.533 63.5252 185.207C63.3054 185.016 63.1608 184.87 63.0938 184.794L62.3438 185.456Z" fill="black"/>
<path fill-rule="evenodd" clip-rule="evenodd" d="M69.5 182.5H70.5V201H69.5V182.5Z" fill="black"/>
<path fill-rule="evenodd" clip-rule="evenodd" d="M60 191H80V192H60V191Z" fill="black"/>
<path fill-rule="evenodd" clip-rule="evenodd" d="M64.5 191.5C64.5 197.023 66.9624 201.5 70.2617 201.5C73.0376 201.5 75.5 197.023 75.5 191.5C75.5 185.977 73.0376 181.5 70.2617 181.5C66.9624 181.5 64.5 185.977 64.5 191.5ZM74.5 191.5C74.5 196.467 72.355 200.5 70.2617 200.5C67.707 200.5 65.5 196.615 65.5 191.5C65.5 186.385 67.707 182.5 70.2617 182.5C72.355 182.5 74.5 186.533 74.5 191.5Z" fill="black"/>
<path fill-rule="evenodd" clip-rule="evenodd" d="M60 191.5C60 197.023 64.4771 201.5 70 201.5C75.5229 201.5 80 197.023 80 191.5C80 185.977 75.5229 181.5 70 181.5C64.4771 181.5 60 185.977 60 191.5ZM79 191.5C79 196.471 74.9707 200.5 70 200.5C65.0293 200.5 61 196.471 61 191.5C61 186.529 65.0293 182.5 70 182.5C74.9707 182.5 79 186.529 79 191.5Z" fill="black"/>
<g filter="url(#filter5_d)">
<path fill-rule="evenodd" clip-rule="evenodd" d="M3 175C3 172.239 5.23858 170 8 170H38C40.7614 170 43 172.239 43 175V207C43 209.761 40.7614 212 38 212H8C5.23858 212 3 209.761 3 207V175Z" fill="#ACB4BE"/>
</g>
<path d="M21.6263 174.896V176H15.2742V174.896H17.7863V166.24L15.4502 167.728V166.464L18.3622 164.608H19.1143V174.896H21.6263ZM31.156 174.896V176H23.828V175.008L27.812 170.592C28.3453 169.995 28.7347 169.456 28.98 168.976C29.2253 168.496 29.348 168.016 29.348 167.536C29.348 166.907 29.1667 166.427 28.804 166.096C28.4413 165.755 27.924 165.584 27.252 165.584C26.164 165.584 25.0867 166.021 24.02 166.896L23.524 165.888C23.972 165.461 24.5373 165.12 25.22 164.864C25.9027 164.608 26.5907 164.48 27.284 164.48C28.3293 164.48 29.156 164.752 29.764 165.296C30.372 165.829 30.676 166.555 30.676 167.472C30.676 168.123 30.5267 168.752 30.228 169.36C29.94 169.957 29.4547 170.629 28.772 171.376L25.524 174.896H31.156ZM24.2311 190.144C24.9031 190.336 25.4151 190.667 25.7671 191.136C26.1191 191.605 26.2951 192.197 26.2951 192.912C26.2951 193.904 25.9591 194.688 25.2871 195.264C24.6151 195.829 23.7031 196.112 22.5511 196.112C21.8151 196.112 21.1058 195.989 20.4231 195.744C19.7511 195.499 19.1805 195.152 18.7111 194.704L19.2231 193.696C20.2791 194.571 21.3778 195.008 22.5191 195.008C23.3298 195.008 23.9431 194.827 24.3591 194.464C24.7858 194.101 24.9991 193.568 24.9991 192.864C24.9991 191.467 24.1245 190.768 22.3751 190.768H21.0631V189.664H22.1191C22.9618 189.664 23.6071 189.477 24.0551 189.104C24.5031 188.731 24.7271 188.197 24.7271 187.504C24.7271 186.885 24.5405 186.411 24.1671 186.08C23.8045 185.749 23.2871 185.584 22.6151 185.584C21.5271 185.584 20.4498 186.021 19.3831 186.896L18.8871 185.888C19.3458 185.451 19.9058 185.109 20.5671 184.864C21.2391 184.608 21.9378 184.48 22.6631 184.48C23.6871 184.48 24.5031 184.741 25.1111 185.264C25.7298 185.787 26.0391 186.491 26.0391 187.376C26.0391 188.027 25.8791 188.597 25.5591 189.088C25.2391 189.579 24.7965 189.931 24.2311 190.144Z" fill="black"/>
<g filter="url(#filter6_d)">
<path fill-rule="evenodd" clip-rule="evenodd" d="M330 123C330 120.239 332.239 118 335 118H367C369.761 118 372 120.239 372 123V155C372 157.761 369.761 160 367 160H335C332.239 160 330 157.761 330 155V123Z" fill="#ACB4BE"/>
</g>
<path d="M361.5 144.933C361.5 145.814 360.811 146.5 360.002 146.5H348.207L340.707 139L348.207 131.5H360.002C360.813 131.5 361.5 132.189 361.5 133.067V144.933Z" stroke="black"/>
<path fill-rule="evenodd" clip-rule="evenodd" d="M353.5 138.293L350.318 135.111L349.611 135.818L352.793 139L349.611 142.182L350.318 142.89L353.5 139.708L356.682 142.89L357.389 142.182L354.207 139L357.389 135.818L356.682 135.111L353.5 138.293Z" fill="black"/>
<g filter="url(#filter7_d)">
<path fill-rule="evenodd" clip-rule="evenodd" d="M284 123C284 120.239 286.239 118 289 118H311C313.761 118 316 120.239 316 123V155C316 157.761 313.761 160 311 160H289C286.239 160 284 157.761 284 155V123Z" fill="white"/>
</g>
<path d="M305.164 133.125C307.947 133.125 309.339 134.783 309.339 138.1V146H307.314V138.2C307.314 137.017 307.105 136.158 306.689 135.625C306.289 135.092 305.63 134.825 304.714 134.825C303.647 134.825 302.814 135.183 302.214 135.9C301.614 136.617 301.314 137.592 301.314 138.825V146H299.289V138.2C299.289 137.033 299.08 136.183 298.664 135.65C298.247 135.1 297.58 134.825 296.664 134.825C295.597 134.825 294.755 135.183 294.139 135.9C293.539 136.617 293.239 137.592 293.239 138.825V146H291.214V136.95C291.214 135.65 291.147 134.475 291.014 133.425H292.939L293.139 135.625C293.489 134.825 294.005 134.208 294.689 133.775C295.389 133.342 296.197 133.125 297.114 133.125C298.114 133.125 298.93 133.325 299.564 133.725C300.197 134.125 300.664 134.742 300.964 135.575C301.347 134.825 301.905 134.233 302.639 133.8C303.389 133.35 304.23 133.125 305.164 133.125Z" fill="black"/>
<g filter="url(#filter8_d)">
<path fill-rule="evenodd" clip-rule="evenodd" d="M246.5 123C246.5 120.239 248.739 118 251.5 118H273.5C276.261 118 278.5 120.239 278.5 123V155C278.5 157.761 276.261 160 273.5 160H251.5C248.739 160 246.5 157.761 246.5 155V123Z" fill="white"/>
</g>
<path d="M263.413 133.125C266.43 133.125 267.938 134.783 267.938 138.1V146H265.913V138.2C265.913 137.033 265.68 136.183 265.213 135.65C264.746 135.1 264.013 134.825 263.013 134.825C261.846 134.825 260.913 135.183 260.213 135.9C259.513 136.617 259.163 137.583 259.163 138.8V146H257.138V136.95C257.138 135.65 257.071 134.475 256.938 133.425H258.863L259.063 135.675C259.446 134.858 260.021 134.233 260.788 133.8C261.555 133.35 262.43 133.125 263.413 133.125Z" fill="black"/>
<g filter="url(#filter9_d)">
<path fill-rule="evenodd" clip-rule="evenodd" d="M209 123C209 120.239 211.239 118 214 118H236C238.761 118 241 120.239 241 123V155C241 157.761 238.761 160 236 160H214C211.239 160 209 157.761 209 155V123Z" fill="white"/>
</g>
<path d="M225.98 133.125C227.08 133.125 228.055 133.392 228.905 133.925C229.755 134.458 230.413 135.217 230.88 136.2C231.347 137.167 231.58 138.3 231.58 139.6C231.58 140.9 231.347 142.05 230.88 143.05C230.413 144.033 229.755 144.8 228.905 145.35C228.055 145.9 227.08 146.175 225.98 146.175C224.997 146.175 224.138 145.958 223.405 145.525C222.672 145.092 222.113 144.475 221.73 143.675V146H219.705V127.6H221.73V135.65C222.097 134.833 222.647 134.208 223.38 133.775C224.13 133.342 224.997 133.125 225.98 133.125ZM225.605 144.5C226.822 144.5 227.772 144.075 228.455 143.225C229.138 142.358 229.48 141.15 229.48 139.6C229.48 138.083 229.138 136.908 228.455 136.075C227.788 135.242 226.838 134.825 225.605 134.825C224.355 134.825 223.397 135.242 222.73 136.075C222.063 136.908 221.73 138.1 221.73 139.65C221.73 141.2 222.063 142.4 222.73 143.25C223.397 144.083 224.355 144.5 225.605 144.5Z" fill="black"/>
<g filter="url(#filter10_d)">
<path fill-rule="evenodd" clip-rule="evenodd" d="M171.5 123C171.5 120.239 173.739 118 176.5 118H198.5C201.261 118 203.5 120.239 203.5 123V155C203.5 157.761 201.261 160 198.5 160H176.5C173.739 160 171.5 157.761 171.5 155V123Z" fill="white"/>
</g>
<path d="M194.109 133.45L188.684 146H186.759L181.409 133.45H183.534L187.784 143.8L192.084 133.45H194.109Z" fill="black"/>
<g filter="url(#filter11_d)">
<path fill-rule="evenodd" clip-rule="evenodd" d="M134 123C134 120.239 136.239 118 139 118H161C163.761 118 166 120.239 166 123V155C166 157.761 163.761 160 161 160H139C136.239 160 134 157.761 134 155V123Z" fill="white"/>
</g>
<path d="M151.286 146.175C150.069 146.175 149.003 145.908 148.086 145.375C147.186 144.842 146.486 144.092 145.986 143.125C145.503 142.142 145.261 141 145.261 139.7C145.261 138.4 145.511 137.258 146.011 136.275C146.511 135.275 147.219 134.5 148.136 133.95C149.069 133.4 150.153 133.125 151.386 133.125C152.236 133.125 153.053 133.275 153.836 133.575C154.636 133.858 155.294 134.258 155.811 134.775L155.136 136.275C154.503 135.775 153.886 135.408 153.286 135.175C152.703 134.942 152.103 134.825 151.486 134.825C150.203 134.825 149.194 135.258 148.461 136.125C147.728 136.975 147.361 138.167 147.361 139.7C147.361 141.217 147.719 142.4 148.436 143.25C149.169 144.083 150.186 144.5 151.486 144.5C152.103 144.5 152.703 144.383 153.286 144.15C153.886 143.917 154.503 143.55 155.136 143.05L155.811 144.55C155.278 145.05 154.603 145.45 153.786 145.75C152.986 146.033 152.153 146.175 151.286 146.175Z" fill="black"/>
<g filter="url(#filter12_d)">
<path fill-rule="evenodd" clip-rule="evenodd" d="M96.5 123C96.5 120.239 98.7386 118 101.5 118H123.5C126.261 118 128.5 120.239 128.5 123V155C128.5 157.761 126.261 160 123.5 160H101.5C98.7386 160 96.5 157.761 96.5 155V123Z" fill="white"/>
</g>
<path d="M119.136 146H116.711L112.736 141.05L108.811 146H106.336L111.561 139.525L106.636 133.425H109.086L112.736 138.05L116.386 133.425H118.861L113.961 139.525L119.136 146Z" fill="black"/>
<g filter="url(#filter13_d)">
<path fill-rule="evenodd" clip-rule="evenodd" d="M59 123C59 120.239 61.2386 118 64 118H86C88.7614 118 91 120.239 91 123V155C91 157.761 88.7614 160 86 160H64C61.2386 160 59 157.761 59 155V123Z" fill="white"/>
</g>
<path d="M80.6553 144.4V146H70.0303V144.6L77.9553 135.025H70.3053V133.425H80.3803V134.9L72.5303 144.4H80.6553Z" fill="black"/>
<g filter="url(#filter14_d)">
<path fill-rule="evenodd" clip-rule="evenodd" d="M3 123C3 120.239 5.23858 118 8 118H40C42.7614 118 45 120.239 45 123V155C45 157.761 42.7614 160 40 160H8C5.23858 160 3 157.761 3 155V123Z" fill="#ACB4BE"/>
</g>
<path fill-rule="evenodd" clip-rule="evenodd" d="M27.6448 140.359L32.0562 140.366C32.607 140.367 32.7349 140.051 32.3442 139.66L23.9777 131.293C23.5847 130.9 22.9528 130.903 22.5612 131.295L14.2286 139.628C13.8329 140.023 13.9652 140.337 14.515 140.338L18.6448 140.345V144.525C18.6448 145.628 19.539 146.524 20.6421 146.524H25.6474C26.7489 146.524 27.6448 145.629 27.6448 144.525V140.359V140.359Z" stroke="black"/>
<g filter="url(#filter15_d)">
<path fill-rule="evenodd" clip-rule="evenodd" d="M321.5 69C321.5 66.2386 323.739 64 326.5 64H348.5C351.261 64 353.5 66.2386 353.5 69V101C353.5 103.761 351.261 106 348.5 106H326.5C323.739 106 321.5 103.761 321.5 101V69Z" fill="white"/>
</g>
<path d="M336.721 73.6H338.746V92H336.721V73.6Z" fill="black"/>
<g filter="url(#filter16_d)">
<path fill-rule="evenodd" clip-rule="evenodd" d="M284 69C284 66.2386 286.239 64 289 64H311C313.761 64 316 66.2386 316 69V101C316 103.761 313.761 106 311 106H289C286.239 106 284 103.761 284 101V69Z" fill="white"/>
</g>
<path d="M303.992 92L297.542 85.95V92H295.517V73.6H297.542V85.2L303.467 79.45H306.042L299.742 85.475L306.642 92H303.992Z" fill="black"/>
<g filter="url(#filter17_d)">
<path fill-rule="evenodd" clip-rule="evenodd" d="M246.5 69C246.5 66.2386 248.739 64 251.5 64H273.5C276.261 64 278.5 66.2386 278.5 69V101C278.5 103.761 276.261 106 273.5 106H251.5C248.739 106 246.5 103.761 246.5 101V69Z" fill="white"/>
</g>
<path d="M258.396 95.55C258.846 95.6833 259.255 95.75 259.621 95.75C261.021 95.75 261.721 94.9167 261.721 93.25V79.425H263.746V93.5C263.746 94.8167 263.413 95.8083 262.746 96.475C262.096 97.1583 261.196 97.5 260.046 97.5C259.496 97.5 258.946 97.425 258.396 97.275V95.55ZM263.971 74.1V76.4H261.496V74.1H263.971Z" fill="black"/>
<g filter="url(#filter18_d)">
<path fill-rule="evenodd" clip-rule="evenodd" d="M209 69C209 66.2386 211.239 64 214 64H236C238.761 64 241 66.2386 241 69V101C241 103.761 238.761 106 236 106H214C211.239 106 209 103.761 209 101V69Z" fill="white"/>
</g>
<path d="M226.163 79.125C229.18 79.125 230.688 80.7833 230.688 84.1V92H228.663V84.2C228.663 83.0333 228.43 82.1833 227.963 81.65C227.496 81.1 226.763 80.825 225.763 80.825C224.596 80.825 223.663 81.1833 222.963 81.9C222.263 82.6167 221.913 83.5833 221.913 84.8V92H219.888V73.6H221.913V81.475C222.313 80.7083 222.88 80.125 223.613 79.725C224.363 79.325 225.213 79.125 226.163 79.125Z" fill="black"/>
<g filter="url(#filter19_d)">
<path fill-rule="evenodd" clip-rule="evenodd" d="M171.5 69C171.5 66.2386 173.739 64 176.5 64H198.5C201.261 64 203.5 66.2386 203.5 69V101C203.5 103.761 201.261 106 198.5 106H176.5C173.739 106 171.5 103.761 171.5 101V69Z" fill="white"/>
</g>
<path d="M193.356 79.425V91.9C193.356 93.7667 192.873 95.175 191.906 96.125C190.956 97.0917 189.548 97.575 187.681 97.575C185.764 97.575 184.114 97.1417 182.731 96.275L183.081 94.625C183.881 95.075 184.631 95.4 185.331 95.6C186.048 95.8 186.831 95.9 187.681 95.9C188.898 95.9 189.814 95.575 190.431 94.925C191.048 94.2917 191.356 93.3417 191.356 92.075V89.1C190.973 89.9 190.406 90.525 189.656 90.975C188.923 91.4083 188.048 91.625 187.031 91.625C185.931 91.625 184.948 91.3667 184.081 90.85C183.231 90.3333 182.573 89.6 182.106 88.65C181.639 87.7 181.406 86.6083 181.406 85.375C181.406 84.1417 181.639 83.05 182.106 82.1C182.573 81.15 183.231 80.4167 184.081 79.9C184.948 79.3833 185.931 79.125 187.031 79.125C188.031 79.125 188.898 79.3417 189.631 79.775C190.381 80.2083 190.948 80.8167 191.331 81.6V79.425H193.356ZM187.431 89.925C188.648 89.925 189.598 89.525 190.281 88.725C190.981 87.9083 191.331 86.7917 191.331 85.375C191.331 83.9583 190.981 82.85 190.281 82.05C189.598 81.2333 188.648 80.825 187.431 80.825C186.198 80.825 185.223 81.2333 184.506 82.05C183.806 82.85 183.456 83.9583 183.456 85.375C183.456 86.7917 183.806 87.9083 184.506 88.725C185.223 89.525 186.198 89.925 187.431 89.925Z" fill="black"/>
<g filter="url(#filter20_d)">
<path fill-rule="evenodd" clip-rule="evenodd" d="M134 69C134 66.2386 136.239 64 139 64H161C163.761 64 166 66.2386 166 69V101C166 103.761 163.761 106 161 106H139C136.239 106 134 103.761 134 101V69Z" fill="white"/>
</g>
<path d="M152.814 75.25C152.147 75.25 151.622 75.4417 151.239 75.825C150.872 76.1917 150.689 76.8333 150.689 77.75V79.425H153.764V81.025H150.689V92H148.664V81.025H146.214V79.425H148.664V77.5C148.664 76.1833 148.989 75.1917 149.639 74.525C150.305 73.8417 151.23 73.5 152.414 73.5C152.997 73.5 153.564 73.575 154.114 73.725V75.45C153.647 75.3167 153.214 75.25 152.814 75.25Z" fill="black"/>
<g filter="url(#filter21_d)">
<path fill-rule="evenodd" clip-rule="evenodd" d="M96.5 69C96.5 66.2386 98.7386 64 101.5 64H123.5C126.261 64 128.5 66.2386 128.5 69V101C128.5 103.761 126.261 106 123.5 106H101.5C98.7386 106 96.5 103.761 96.5 101V69Z" fill="white"/>
</g>
<path d="M118.28 73.6V92H116.28V89.725C115.913 90.5083 115.355 91.1167 114.605 91.55C113.872 91.9667 113.013 92.175 112.03 92.175C110.93 92.175 109.955 91.9 109.105 91.35C108.272 90.8 107.622 90.0333 107.155 89.05C106.688 88.05 106.455 86.9 106.455 85.6C106.455 84.3 106.68 83.1667 107.13 82.2C107.597 81.2167 108.255 80.4583 109.105 79.925C109.955 79.3917 110.93 79.125 112.03 79.125C113.013 79.125 113.872 79.3417 114.605 79.775C115.338 80.1917 115.888 80.7833 116.255 81.55V73.6H118.28ZM112.43 90.5C113.663 90.5 114.613 90.0833 115.28 89.25C115.947 88.4 116.28 87.2 116.28 85.65C116.28 84.1167 115.947 82.9333 115.28 82.1C114.613 81.25 113.663 80.825 112.43 80.825C111.197 80.825 110.23 81.2417 109.53 82.075C108.847 82.9083 108.505 84.0833 108.505 85.6C108.505 87.15 108.847 88.3583 109.53 89.225C110.23 90.075 111.197 90.5 112.43 90.5Z" fill="black"/>
<g filter="url(#filter22_d)">
<path fill-rule="evenodd" clip-rule="evenodd" d="M59.5 69C59.5 66.2386 61.7386 64 64.5 64H86.5C89.2614 64 91.5 66.2386 91.5 69V101C91.5 103.761 89.2614 106 86.5 106H64.5C61.7386 106 59.5 103.761 59.5 101V69Z" fill="white"/>
</g>
<path d="M75.7488 92.175C73.6322 92.175 71.9572 91.6333 70.7238 90.55L71.3988 89.05C72.0822 89.5833 72.7738 89.9667 73.4738 90.2C74.1738 90.4333 74.9572 90.55 75.8238 90.55C76.7738 90.55 77.4905 90.3917 77.9738 90.075C78.4738 89.7417 78.7238 89.2667 78.7238 88.65C78.7238 88.15 78.5572 87.75 78.2238 87.45C77.8905 87.15 77.3405 86.9167 76.5738 86.75L74.4488 86.25C73.3988 86.0167 72.5822 85.6 71.9988 85C71.4322 84.4 71.1488 83.6833 71.1488 82.85C71.1488 81.75 71.5905 80.8583 72.4738 80.175C73.3572 79.475 74.5238 79.125 75.9738 79.125C76.8572 79.125 77.6905 79.2667 78.4738 79.55C79.2572 79.8333 79.9155 80.2417 80.4488 80.775L79.7738 82.25C78.5905 81.2667 77.3238 80.775 75.9738 80.775C75.0738 80.775 74.3738 80.95 73.8738 81.3C73.3905 81.6333 73.1488 82.1083 73.1488 82.725C73.1488 83.2417 73.2988 83.65 73.5988 83.95C73.9155 84.25 74.4155 84.4833 75.0988 84.65L77.2238 85.175C78.3905 85.4417 79.2572 85.8583 79.8238 86.425C80.3905 86.975 80.6738 87.7 80.6738 88.6C80.6738 89.6833 80.2322 90.55 79.3488 91.2C78.4655 91.85 77.2655 92.175 75.7488 92.175Z" fill="black"/>
<g filter="url(#filter23_d)">
<path fill-rule="evenodd" clip-rule="evenodd" d="M22 69C22 66.2386 24.2386 64 27 64H49C51.7614 64 54 66.2386 54 69V101C54 103.761 51.7614 106 49 106H27C24.2386 106 22 103.761 22 101V69Z" fill="white"/>
</g>
<path d="M43.5299 79.425V92H41.5299V89.725C41.1632 90.5083 40.6049 91.1167 39.8549 91.55C39.1215 91.9667 38.2632 92.175 37.2799 92.175C36.1632 92.175 35.1799 91.9083 34.3299 91.375C33.4965 90.8417 32.8465 90.0917 32.3799 89.125C31.9299 88.1417 31.7049 87 31.7049 85.7C31.7049 84.4 31.9382 83.2583 32.4049 82.275C32.8715 81.275 33.5215 80.5 34.3549 79.95C35.2049 79.4 36.1799 79.125 37.2799 79.125C38.2632 79.125 39.1215 79.3417 39.8549 79.775C40.5882 80.2083 41.1465 80.8167 41.5299 81.6V79.425H43.5299ZM37.6799 90.5C38.9132 90.5 39.8632 90.0833 40.5299 89.25C41.1965 88.4 41.5299 87.2 41.5299 85.65C41.5299 84.1 41.1965 82.9083 40.5299 82.075C39.8632 81.2417 38.9132 80.825 37.6799 80.825C36.4465 80.825 35.4799 81.2583 34.7799 82.125C34.0965 82.975 33.7549 84.1667 33.7549 85.7C33.7549 87.2333 34.0965 88.4167 34.7799 89.25C35.4632 90.0833 36.4299 90.5 37.6799 90.5Z" fill="black"/>
<g filter="url(#filter24_d)">
<path fill-rule="evenodd" clip-rule="evenodd" d="M340 15C340 12.2386 342.239 10 345 10H367C369.761 10 372 12.2386 372 15V47C372 49.7614 369.761 52 367 52H345C342.239 52 340 49.7614 340 47V15Z" fill="white"/>
</g>
<path d="M356.98 25.125C358.08 25.125 359.055 25.4 359.905 25.95C360.755 26.5 361.413 27.275 361.88 28.275C362.347 29.2583 362.58 30.4 362.58 31.7C362.58 33 362.347 34.1417 361.88 35.125C361.413 36.0917 360.755 36.8417 359.905 37.375C359.072 37.9083 358.097 38.175 356.98 38.175C355.997 38.175 355.138 37.9583 354.405 37.525C353.672 37.0917 353.113 36.475 352.73 35.675V43.4H350.705V28.95C350.705 27.65 350.638 26.475 350.505 25.425H352.43L352.63 27.85C352.98 26.9833 353.53 26.3167 354.28 25.85C355.047 25.3667 355.947 25.125 356.98 25.125ZM356.605 36.5C357.838 36.5 358.788 36.0833 359.455 35.25C360.138 34.4167 360.48 33.2333 360.48 31.7C360.48 30.1667 360.138 28.975 359.455 28.125C358.772 27.2583 357.822 26.825 356.605 26.825C355.355 26.825 354.397 27.2417 353.73 28.075C353.063 28.9083 352.73 30.1 352.73 31.65C352.73 33.2 353.063 34.4 353.73 35.25C354.397 36.0833 355.355 36.5 356.605 36.5Z" fill="black"/>
<g filter="url(#filter25_d)">
<path fill-rule="evenodd" clip-rule="evenodd" d="M302.5 15C302.5 12.2386 304.739 10 307.5 10H329.5C332.261 10 334.5 12.2386 334.5 15V47C334.5 49.7614 332.261 52 329.5 52H307.5C304.739 52 302.5 49.7614 302.5 47V15Z" fill="white"/>
</g>
<path d="M318.497 38.175C317.313 38.175 316.272 37.9083 315.372 37.375C314.472 36.8417 313.772 36.0833 313.272 35.1C312.788 34.1167 312.547 32.9667 312.547 31.65C312.547 30.3333 312.788 29.1833 313.272 28.2C313.772 27.2167 314.472 26.4583 315.372 25.925C316.272 25.3917 317.313 25.125 318.497 25.125C319.68 25.125 320.722 25.3917 321.622 25.925C322.522 26.4583 323.213 27.2167 323.697 28.2C324.197 29.1833 324.447 30.3333 324.447 31.65C324.447 32.9667 324.197 34.1167 323.697 35.1C323.213 36.0833 322.522 36.8417 321.622 37.375C320.722 37.9083 319.68 38.175 318.497 38.175ZM318.497 36.5C319.747 36.5 320.705 36.0917 321.372 35.275C322.038 34.4417 322.372 33.2333 322.372 31.65C322.372 30.1167 322.03 28.9333 321.347 28.1C320.663 27.25 319.713 26.825 318.497 26.825C317.263 26.825 316.305 27.25 315.622 28.1C314.938 28.9333 314.597 30.1167 314.597 31.65C314.597 33.2333 314.93 34.4417 315.597 35.275C316.28 36.0917 317.247 36.5 318.497 36.5Z" fill="black"/>
<g filter="url(#filter26_d)">
<path fill-rule="evenodd" clip-rule="evenodd" d="M265 15C265 12.2386 267.239 10 270 10H292C294.761 10 297 12.2386 297 15V47C297 49.7614 294.761 52 292 52H270C267.239 52 265 49.7614 265 47V15Z" fill="white"/>
</g>
<path d="M280.221 25.425H282.246V38H280.221V25.425ZM282.496 20.1V22.4H280.021V20.1H282.496Z" fill="black"/>
<g filter="url(#filter27_d)">
<path fill-rule="evenodd" clip-rule="evenodd" d="M227.5 15C227.5 12.2386 229.739 10 232.5 10H254.5C257.261 10 259.5 12.2386 259.5 15V47C259.5 49.7614 257.261 52 254.5 52H232.5C229.739 52 227.5 49.7614 227.5 47V15Z" fill="white"/>
</g>
<path d="M248.761 25.425V38H246.786V35.825C246.386 36.5917 245.827 37.175 245.111 37.575C244.394 37.975 243.586 38.175 242.686 38.175C241.202 38.175 240.077 37.7583 239.311 36.925C238.544 36.0917 238.161 34.8583 238.161 33.225V25.425H240.186V33.175C240.186 34.3083 240.419 35.1417 240.886 35.675C241.352 36.2083 242.061 36.475 243.011 36.475C244.127 36.475 245.027 36.1167 245.711 35.4C246.394 34.6667 246.736 33.7083 246.736 32.525V25.425H248.761Z" fill="black"/>
<g filter="url(#filter28_d)">
<path fill-rule="evenodd" clip-rule="evenodd" d="M190 15C190 12.2386 192.239 10 195 10H217C219.761 10 222 12.2386 222 15V47C222 49.7614 219.761 52 217 52H195C192.239 52 190 49.7614 190 47V15Z" fill="white"/>
</g>
<path d="M212.359 25.425L206.484 39.15C205.868 40.5833 205.093 41.6333 204.159 42.3C203.226 42.9667 202.076 43.425 200.709 43.675L200.284 42.1C201.468 41.8333 202.359 41.475 202.959 41.025C203.576 40.5917 204.084 39.9167 204.484 39L204.984 37.875L199.659 25.425H201.784L206.034 35.8L210.334 25.425H212.359Z" fill="black"/>
<g filter="url(#filter29_d)">
<path fill-rule="evenodd" clip-rule="evenodd" d="M152.5 15C152.5 12.2386 154.739 10 157.5 10H179.5C182.261 10 184.5 12.2386 184.5 15V47C184.5 49.7614 182.261 52 179.5 52H157.5C154.739 52 152.5 49.7614 152.5 47V15Z" fill="white"/>
</g>
<path d="M169.03 27.025V33.9C169.03 34.8333 169.222 35.4917 169.605 35.875C169.988 36.2417 170.53 36.425 171.23 36.425C171.697 36.425 172.147 36.35 172.58 36.2V37.925C172.063 38.0917 171.48 38.175 170.83 38.175C169.63 38.175 168.688 37.8417 168.005 37.175C167.338 36.4917 167.005 35.4917 167.005 34.175V27.025H164.555V25.425H167.005V22.2L169.03 21.475V25.425H172.63V27.025H169.03Z" fill="black"/>
<g filter="url(#filter30_d)">
<path fill-rule="evenodd" clip-rule="evenodd" d="M115 15C115 12.2386 117.239 10 120 10H142C144.761 10 147 12.2386 147 15V47C147 49.7614 144.761 52 142 52H120C117.239 52 115 49.7614 115 47V15Z" fill="white"/>
</g>
<path d="M134.521 25.125C134.938 25.125 135.321 25.175 135.671 25.275L135.621 27.125C135.238 26.9917 134.796 26.925 134.296 26.925C133.08 26.925 132.171 27.3083 131.571 28.075C130.988 28.825 130.696 29.7417 130.696 30.825V38H128.671V28.95C128.671 27.65 128.605 26.475 128.471 25.425H130.396L130.596 27.75C130.913 26.9 131.421 26.25 132.121 25.8C132.821 25.35 133.621 25.125 134.521 25.125Z" fill="black"/>
<g filter="url(#filter31_d)">
<path fill-rule="evenodd" clip-rule="evenodd" d="M77.5 15C77.5 12.2386 79.7386 10 82.5 10H104.5C107.261 10 109.5 12.2386 109.5 15V47C109.5 49.7614 107.261 52 104.5 52H82.5C79.7386 52 77.5 49.7614 77.5 47V15Z" fill="white"/>
</g>
<path d="M99.4257 31.65H90.2007C90.2174 33.25 90.584 34.4583 91.3007 35.275C92.034 36.0917 93.0924 36.5 94.4757 36.5C95.9424 36.5 97.2924 36.0083 98.5257 35.025L99.2007 36.5C98.6507 37.0167 97.9424 37.425 97.0757 37.725C96.2257 38.025 95.3507 38.175 94.4507 38.175C92.484 38.175 90.9424 37.6 89.8257 36.45C88.709 35.2833 88.1507 33.6917 88.1507 31.675C88.1507 30.3917 88.4007 29.2583 88.9007 28.275C89.4007 27.275 90.1007 26.5 91.0007 25.95C91.9007 25.4 92.9257 25.125 94.0757 25.125C95.7424 25.125 97.0507 25.675 98.0007 26.775C98.9507 27.8583 99.4257 29.3583 99.4257 31.275V31.65ZM94.1007 26.7C93.0507 26.7 92.1924 27.0167 91.5257 27.65C90.8757 28.2833 90.459 29.175 90.2757 30.325H97.6007C97.5007 29.1417 97.1507 28.2417 96.5507 27.625C95.9674 27.0083 95.1507 26.7 94.1007 26.7Z" fill="black"/>
<g filter="url(#filter32_d)">
<path fill-rule="evenodd" clip-rule="evenodd" d="M40.5 15C40.5 12.2386 42.7386 10 45.5 10H67.5C70.2614 10 72.5 12.2386 72.5 15V47C72.5 49.7614 70.2614 52 67.5 52H45.5C42.7386 52 40.5 49.7614 40.5 47V15Z" fill="white"/>
</g>
<path d="M66.9357 25.425L62.2857 38H60.3357L56.7357 28.175L53.1607 38H51.2107L46.5607 25.425H48.6857L52.2357 35.575L55.9107 25.425H57.6857L61.3107 35.6L64.9357 25.425H66.9357Z" fill="black"/>
<g filter="url(#filter33_d)">
<path fill-rule="evenodd" clip-rule="evenodd" d="M3 15C3 12.2386 5.23858 10 8 10H30C32.7614 10 35 12.2386 35 15V47C35 49.7614 32.7614 52 30 52H8C5.23858 52 3 49.7614 3 47V15Z" fill="white"/>
</g>
<path d="M24.9799 25.425C24.8466 26.475 24.7799 27.65 24.7799 28.95V43.4H22.7549V35.775C22.3882 36.5417 21.8382 37.1333 21.1049 37.55C20.3715 37.9667 19.5132 38.175 18.5299 38.175C17.4132 38.175 16.4299 37.9083 15.5799 37.375C14.7465 36.8417 14.0965 36.0917 13.6299 35.125C13.1799 34.1417 12.9549 33 12.9549 31.7C12.9549 30.4 13.1882 29.2583 13.6549 28.275C14.1215 27.275 14.7715 26.5 15.6049 25.95C16.4549 25.4 17.4299 25.125 18.5299 25.125C19.5465 25.125 20.4299 25.3583 21.1799 25.825C21.9299 26.275 22.4882 26.925 22.8549 27.775L23.1049 25.425H24.9799ZM18.9299 36.5C20.1632 36.5 21.1132 36.0833 21.7799 35.25C22.4465 34.4 22.7799 33.2 22.7799 31.65C22.7799 30.1 22.4465 28.9083 21.7799 28.075C21.1132 27.2417 20.1632 26.825 18.9299 26.825C17.6965 26.825 16.7299 27.2583 16.0299 28.125C15.3465 28.975 15.0049 30.1667 15.0049 31.7C15.0049 33.2333 15.3465 34.4167 16.0299 35.25C16.7132 36.0833 17.6799 36.5 18.9299 36.5Z" fill="black"/>
<defs>
<filter id="filter0_b" x="-27.1828" y="-27.1828" width="429.366" height="270.366" filterUnits="userSpaceOnUse" color-interpolation-filters="sRGB">
<feFlood flood-opacity="0" result="BackgroundImageFix"/>
<feGaussianBlur in="BackgroundImage" stdDeviation="13.5914"/>
<feComposite in2="SourceAlpha" operator="in" result="effect1_backgroundBlur"/>
<feBlend mode="normal" in="SourceGraphic" in2="effect1_backgroundBlur" result="shape"/>
</filter>
<filter id="filter1_d" x="284" y="170" width="88" height="43" filterUnits="userSpaceOnUse" color-interpolation-filters="sRGB">
<feFlood flood-opacity="0" result="BackgroundImageFix"/>
<feColorMatrix in="SourceAlpha" type="matrix" values="0 0 0 0 0 0 0 0 0 0 0 0 0 0 0 0 0 0 127 0"/>
<feOffset dy="1"/>
<feColorMatrix type="matrix" values="0 0 0 0 0 0 0 0 0 0 0 0 0 0 0 0 0 0 0.25 0"/>
<feBlend mode="normal" in2="BackgroundImageFix" result="effect1_dropShadow"/>
<feBlend mode="normal" in="SourceGraphic" in2="effect1_dropShadow" result="shape"/>
</filter>
<filter id="filter2_d" x="134" y="170" width="144.5" height="43" filterUnits="userSpaceOnUse" color-interpolation-filters="sRGB">
<feFlood flood-opacity="0" result="BackgroundImageFix"/>
<feColorMatrix in="SourceAlpha" type="matrix" values="0 0 0 0 0 0 0 0 0 0 0 0 0 0 0 0 0 0 127 0"/>
<feOffset dy="1"/>
<feColorMatrix type="matrix" values="0 0 0 0 0 0 0 0 0 0 0 0 0 0 0 0 0 0 0.25 0"/>
<feBlend mode="normal" in2="BackgroundImageFix" result="effect1_dropShadow"/>
<feBlend mode="normal" in="SourceGraphic" in2="effect1_dropShadow" result="shape"/>
</filter>
<filter id="filter3_d" x="96.5" y="170" width="32" height="43" filterUnits="userSpaceOnUse" color-interpolation-filters="sRGB">
<feFlood flood-opacity="0" result="BackgroundImageFix"/>
<feColorMatrix in="SourceAlpha" type="matrix" values="0 0 0 0 0 0 0 0 0 0 0 0 0 0 0 0 0 0 127 0"/>
<feOffset dy="1"/>
<feColorMatrix type="matrix" values="0 0 0 0 0 0 0 0 0 0 0 0 0 0 0 0 0 0 0.25 0"/>
<feBlend mode="normal" in2="BackgroundImageFix" result="effect1_dropShadow"/>
<feBlend mode="normal" in="SourceGraphic" in2="effect1_dropShadow" result="shape"/>
</filter>
<filter id="filter4_d" x="49" y="170" width="42" height="43" filterUnits="userSpaceOnUse" color-interpolation-filters="sRGB">
<feFlood flood-opacity="0" result="BackgroundImageFix"/>
<feColorMatrix in="SourceAlpha" type="matrix" values="0 0 0 0 0 0 0 0 0 0 0 0 0 0 0 0 0 0 127 0"/>
<feOffset dy="1"/>
<feColorMatrix type="matrix" values="0 0 0 0 0 0 0 0 0 0 0 0 0 0 0 0 0 0 0.25 0"/>
<feBlend mode="normal" in2="BackgroundImageFix" result="effect1_dropShadow"/>
<feBlend mode="normal" in="SourceGraphic" in2="effect1_dropShadow" result="shape"/>
</filter>
<filter id="filter5_d" x="3" y="170" width="40" height="43" filterUnits="userSpaceOnUse" color-interpolation-filters="sRGB">
<feFlood flood-opacity="0" result="BackgroundImageFix"/>
<feColorMatrix in="SourceAlpha" type="matrix" values="0 0 0 0 0 0 0 0 0 0 0 0 0 0 0 0 0 0 127 0"/>
<feOffset dy="1"/>
<feColorMatrix type="matrix" values="0 0 0 0 0 0 0 0 0 0 0 0 0 0 0 0 0 0 0.25 0"/>
<feBlend mode="normal" in2="BackgroundImageFix" result="effect1_dropShadow"/>
<feBlend mode="normal" in="SourceGraphic" in2="effect1_dropShadow" result="shape"/>
</filter>
<filter id="filter6_d" x="330" y="118" width="42" height="43" filterUnits="userSpaceOnUse" color-interpolation-filters="sRGB">
<feFlood flood-opacity="0" result="BackgroundImageFix"/>
<feColorMatrix in="SourceAlpha" type="matrix" values="0 0 0 0 0 0 0 0 0 0 0 0 0 0 0 0 0 0 127 0"/>
<feOffset dy="1"/>
<feColorMatrix type="matrix" values="0 0 0 0 0 0 0 0 0 0 0 0 0 0 0 0 0 0 0.25 0"/>
<feBlend mode="normal" in2="BackgroundImageFix" result="effect1_dropShadow"/>
<feBlend mode="normal" in="SourceGraphic" in2="effect1_dropShadow" result="shape"/>
</filter>
<filter id="filter7_d" x="284" y="118" width="32" height="43" filterUnits="userSpaceOnUse" color-interpolation-filters="sRGB">
<feFlood flood-opacity="0" result="BackgroundImageFix"/>
<feColorMatrix in="SourceAlpha" type="matrix" values="0 0 0 0 0 0 0 0 0 0 0 0 0 0 0 0 0 0 127 0"/>
<feOffset dy="1"/>
<feColorMatrix type="matrix" values="0 0 0 0 0 0 0 0 0 0 0 0 0 0 0 0 0 0 0.25 0"/>
<feBlend mode="normal" in2="BackgroundImageFix" result="effect1_dropShadow"/>
<feBlend mode="normal" in="SourceGraphic" in2="effect1_dropShadow" result="shape"/>
</filter>
<filter id="filter8_d" x="246.5" y="118" width="32" height="43" filterUnits="userSpaceOnUse" color-interpolation-filters="sRGB">
<feFlood flood-opacity="0" result="BackgroundImageFix"/>
<feColorMatrix in="SourceAlpha" type="matrix" values="0 0 0 0 0 0 0 0 0 0 0 0 0 0 0 0 0 0 127 0"/>
<feOffset dy="1"/>
<feColorMatrix type="matrix" values="0 0 0 0 0 0 0 0 0 0 0 0 0 0 0 0 0 0 0.25 0"/>
<feBlend mode="normal" in2="BackgroundImageFix" result="effect1_dropShadow"/>
<feBlend mode="normal" in="SourceGraphic" in2="effect1_dropShadow" result="shape"/>
</filter>
<filter id="filter9_d" x="209" y="118" width="32" height="43" filterUnits="userSpaceOnUse" color-interpolation-filters="sRGB">
<feFlood flood-opacity="0" result="BackgroundImageFix"/>
<feColorMatrix in="SourceAlpha" type="matrix" values="0 0 0 0 0 0 0 0 0 0 0 0 0 0 0 0 0 0 127 0"/>
<feOffset dy="1"/>
<feColorMatrix type="matrix" values="0 0 0 0 0 0 0 0 0 0 0 0 0 0 0 0 0 0 0.25 0"/>
<feBlend mode="normal" in2="BackgroundImageFix" result="effect1_dropShadow"/>
<feBlend mode="normal" in="SourceGraphic" in2="effect1_dropShadow" result="shape"/>
</filter>
<filter id="filter10_d" x="171.5" y="118" width="32" height="43" filterUnits="userSpaceOnUse" color-interpolation-filters="sRGB">
<feFlood flood-opacity="0" result="BackgroundImageFix"/>
<feColorMatrix in="SourceAlpha" type="matrix" values="0 0 0 0 0 0 0 0 0 0 0 0 0 0 0 0 0 0 127 0"/>
<feOffset dy="1"/>
<feColorMatrix type="matrix" values="0 0 0 0 0 0 0 0 0 0 0 0 0 0 0 0 0 0 0.25 0"/>
<feBlend mode="normal" in2="BackgroundImageFix" result="effect1_dropShadow"/>
<feBlend mode="normal" in="SourceGraphic" in2="effect1_dropShadow" result="shape"/>
</filter>
<filter id="filter11_d" x="134" y="118" width="32" height="43" filterUnits="userSpaceOnUse" color-interpolation-filters="sRGB">
<feFlood flood-opacity="0" result="BackgroundImageFix"/>
<feColorMatrix in="SourceAlpha" type="matrix" values="0 0 0 0 0 0 0 0 0 0 0 0 0 0 0 0 0 0 127 0"/>
<feOffset dy="1"/>
<feColorMatrix type="matrix" values="0 0 0 0 0 0 0 0 0 0 0 0 0 0 0 0 0 0 0.25 0"/>
<feBlend mode="normal" in2="BackgroundImageFix" result="effect1_dropShadow"/>
<feBlend mode="normal" in="SourceGraphic" in2="effect1_dropShadow" result="shape"/>
</filter>
<filter id="filter12_d" x="96.5" y="118" width="32" height="43" filterUnits="userSpaceOnUse" color-interpolation-filters="sRGB">
<feFlood flood-opacity="0" result="BackgroundImageFix"/>
<feColorMatrix in="SourceAlpha" type="matrix" values="0 0 0 0 0 0 0 0 0 0 0 0 0 0 0 0 0 0 127 0"/>
<feOffset dy="1"/>
<feColorMatrix type="matrix" values="0 0 0 0 0 0 0 0 0 0 0 0 0 0 0 0 0 0 0.25 0"/>
<feBlend mode="normal" in2="BackgroundImageFix" result="effect1_dropShadow"/>
<feBlend mode="normal" in="SourceGraphic" in2="effect1_dropShadow" result="shape"/>
</filter>
<filter id="filter13_d" x="59" y="118" width="32" height="43" filterUnits="userSpaceOnUse" color-interpolation-filters="sRGB">
<feFlood flood-opacity="0" result="BackgroundImageFix"/>
<feColorMatrix in="SourceAlpha" type="matrix" values="0 0 0 0 0 0 0 0 0 0 0 0 0 0 0 0 0 0 127 0"/>
<feOffset dy="1"/>
<feColorMatrix type="matrix" values="0 0 0 0 0 0 0 0 0 0 0 0 0 0 0 0 0 0 0.25 0"/>
<feBlend mode="normal" in2="BackgroundImageFix" result="effect1_dropShadow"/>
<feBlend mode="normal" in="SourceGraphic" in2="effect1_dropShadow" result="shape"/>
</filter>
<filter id="filter14_d" x="3" y="118" width="42" height="43" filterUnits="userSpaceOnUse" color-interpolation-filters="sRGB">
<feFlood flood-opacity="0" result="BackgroundImageFix"/>
<feColorMatrix in="SourceAlpha" type="matrix" values="0 0 0 0 0 0 0 0 0 0 0 0 0 0 0 0 0 0 127 0"/>
<feOffset dy="1"/>
<feColorMatrix type="matrix" values="0 0 0 0 0 0 0 0 0 0 0 0 0 0 0 0 0 0 0.25 0"/>
<feBlend mode="normal" in2="BackgroundImageFix" result="effect1_dropShadow"/>
<feBlend mode="normal" in="SourceGraphic" in2="effect1_dropShadow" result="shape"/>
</filter>
<filter id="filter15_d" x="321.5" y="64" width="32" height="43" filterUnits="userSpaceOnUse" color-interpolation-filters="sRGB">
<feFlood flood-opacity="0" result="BackgroundImageFix"/>
<feColorMatrix in="SourceAlpha" type="matrix" values="0 0 0 0 0 0 0 0 0 0 0 0 0 0 0 0 0 0 127 0"/>
<feOffset dy="1"/>
<feColorMatrix type="matrix" values="0 0 0 0 0 0 0 0 0 0 0 0 0 0 0 0 0 0 0.25 0"/>
<feBlend mode="normal" in2="BackgroundImageFix" result="effect1_dropShadow"/>
<feBlend mode="normal" in="SourceGraphic" in2="effect1_dropShadow" result="shape"/>
</filter>
<filter id="filter16_d" x="284" y="64" width="32" height="43" filterUnits="userSpaceOnUse" color-interpolation-filters="sRGB">
<feFlood flood-opacity="0" result="BackgroundImageFix"/>
<feColorMatrix in="SourceAlpha" type="matrix" values="0 0 0 0 0 0 0 0 0 0 0 0 0 0 0 0 0 0 127 0"/>
<feOffset dy="1"/>
<feColorMatrix type="matrix" values="0 0 0 0 0 0 0 0 0 0 0 0 0 0 0 0 0 0 0.25 0"/>
<feBlend mode="normal" in2="BackgroundImageFix" result="effect1_dropShadow"/>
<feBlend mode="normal" in="SourceGraphic" in2="effect1_dropShadow" result="shape"/>
</filter>
<filter id="filter17_d" x="246.5" y="64" width="32" height="43" filterUnits="userSpaceOnUse" color-interpolation-filters="sRGB">
<feFlood flood-opacity="0" result="BackgroundImageFix"/>
<feColorMatrix in="SourceAlpha" type="matrix" values="0 0 0 0 0 0 0 0 0 0 0 0 0 0 0 0 0 0 127 0"/>
<feOffset dy="1"/>
<feColorMatrix type="matrix" values="0 0 0 0 0 0 0 0 0 0 0 0 0 0 0 0 0 0 0.25 0"/>
<feBlend mode="normal" in2="BackgroundImageFix" result="effect1_dropShadow"/>
<feBlend mode="normal" in="SourceGraphic" in2="effect1_dropShadow" result="shape"/>
</filter>
<filter id="filter18_d" x="209" y="64" width="32" height="43" filterUnits="userSpaceOnUse" color-interpolation-filters="sRGB">
<feFlood flood-opacity="0" result="BackgroundImageFix"/>
<feColorMatrix in="SourceAlpha" type="matrix" values="0 0 0 0 0 0 0 0 0 0 0 0 0 0 0 0 0 0 127 0"/>
<feOffset dy="1"/>
<feColorMatrix type="matrix" values="0 0 0 0 0 0 0 0 0 0 0 0 0 0 0 0 0 0 0.25 0"/>
<feBlend mode="normal" in2="BackgroundImageFix" result="effect1_dropShadow"/>
<feBlend mode="normal" in="SourceGraphic" in2="effect1_dropShadow" result="shape"/>
</filter>
<filter id="filter19_d" x="171.5" y="64" width="32" height="43" filterUnits="userSpaceOnUse" color-interpolation-filters="sRGB">
<feFlood flood-opacity="0" result="BackgroundImageFix"/>
<feColorMatrix in="SourceAlpha" type="matrix" values="0 0 0 0 0 0 0 0 0 0 0 0 0 0 0 0 0 0 127 0"/>
<feOffset dy="1"/>
<feColorMatrix type="matrix" values="0 0 0 0 0 0 0 0 0 0 0 0 0 0 0 0 0 0 0.25 0"/>
<feBlend mode="normal" in2="BackgroundImageFix" result="effect1_dropShadow"/>
<feBlend mode="normal" in="SourceGraphic" in2="effect1_dropShadow" result="shape"/>
</filter>
<filter id="filter20_d" x="134" y="64" width="32" height="43" filterUnits="userSpaceOnUse" color-interpolation-filters="sRGB">
<feFlood flood-opacity="0" result="BackgroundImageFix"/>
<feColorMatrix in="SourceAlpha" type="matrix" values="0 0 0 0 0 0 0 0 0 0 0 0 0 0 0 0 0 0 127 0"/>
<feOffset dy="1"/>
<feColorMatrix type="matrix" values="0 0 0 0 0 0 0 0 0 0 0 0 0 0 0 0 0 0 0.25 0"/>
<feBlend mode="normal" in2="BackgroundImageFix" result="effect1_dropShadow"/>
<feBlend mode="normal" in="SourceGraphic" in2="effect1_dropShadow" result="shape"/>
</filter>
<filter id="filter21_d" x="96.5" y="64" width="32" height="43" filterUnits="userSpaceOnUse" color-interpolation-filters="sRGB">
<feFlood flood-opacity="0" result="BackgroundImageFix"/>
<feColorMatrix in="SourceAlpha" type="matrix" values="0 0 0 0 0 0 0 0 0 0 0 0 0 0 0 0 0 0 127 0"/>
<feOffset dy="1"/>
<feColorMatrix type="matrix" values="0 0 0 0 0 0 0 0 0 0 0 0 0 0 0 0 0 0 0.25 0"/>
<feBlend mode="normal" in2="BackgroundImageFix" result="effect1_dropShadow"/>
<feBlend mode="normal" in="SourceGraphic" in2="effect1_dropShadow" result="shape"/>
</filter>
<filter id="filter22_d" x="59.5" y="64" width="32" height="43" filterUnits="userSpaceOnUse" color-interpolation-filters="sRGB">
<feFlood flood-opacity="0" result="BackgroundImageFix"/>
<feColorMatrix in="SourceAlpha" type="matrix" values="0 0 0 0 0 0 0 0 0 0 0 0 0 0 0 0 0 0 127 0"/>
<feOffset dy="1"/>
<feColorMatrix type="matrix" values="0 0 0 0 0 0 0 0 0 0 0 0 0 0 0 0 0 0 0.25 0"/>
<feBlend mode="normal" in2="BackgroundImageFix" result="effect1_dropShadow"/>
<feBlend mode="normal" in="SourceGraphic" in2="effect1_dropShadow" result="shape"/>
</filter>
<filter id="filter23_d" x="22" y="64" width="32" height="43" filterUnits="userSpaceOnUse" color-interpolation-filters="sRGB">
<feFlood flood-opacity="0" result="BackgroundImageFix"/>
<feColorMatrix in="SourceAlpha" type="matrix" values="0 0 0 0 0 0 0 0 0 0 0 0 0 0 0 0 0 0 127 0"/>
<feOffset dy="1"/>
<feColorMatrix type="matrix" values="0 0 0 0 0 0 0 0 0 0 0 0 0 0 0 0 0 0 0.25 0"/>
<feBlend mode="normal" in2="BackgroundImageFix" result="effect1_dropShadow"/>
<feBlend mode="normal" in="SourceGraphic" in2="effect1_dropShadow" result="shape"/>
</filter>
<filter id="filter24_d" x="340" y="10" width="32" height="43" filterUnits="userSpaceOnUse" color-interpolation-filters="sRGB">
<feFlood flood-opacity="0" result="BackgroundImageFix"/>
<feColorMatrix in="SourceAlpha" type="matrix" values="0 0 0 0 0 0 0 0 0 0 0 0 0 0 0 0 0 0 127 0"/>
<feOffset dy="1"/>
<feColorMatrix type="matrix" values="0 0 0 0 0 0 0 0 0 0 0 0 0 0 0 0 0 0 0.25 0"/>
<feBlend mode="normal" in2="BackgroundImageFix" result="effect1_dropShadow"/>
<feBlend mode="normal" in="SourceGraphic" in2="effect1_dropShadow" result="shape"/>
</filter>
<filter id="filter25_d" x="302.5" y="10" width="32" height="43" filterUnits="userSpaceOnUse" color-interpolation-filters="sRGB">
<feFlood flood-opacity="0" result="BackgroundImageFix"/>
<feColorMatrix in="SourceAlpha" type="matrix" values="0 0 0 0 0 0 0 0 0 0 0 0 0 0 0 0 0 0 127 0"/>
<feOffset dy="1"/>
<feColorMatrix type="matrix" values="0 0 0 0 0 0 0 0 0 0 0 0 0 0 0 0 0 0 0.25 0"/>
<feBlend mode="normal" in2="BackgroundImageFix" result="effect1_dropShadow"/>
<feBlend mode="normal" in="SourceGraphic" in2="effect1_dropShadow" result="shape"/>
</filter>
<filter id="filter26_d" x="265" y="10" width="32" height="43" filterUnits="userSpaceOnUse" color-interpolation-filters="sRGB">
<feFlood flood-opacity="0" result="BackgroundImageFix"/>
<feColorMatrix in="SourceAlpha" type="matrix" values="0 0 0 0 0 0 0 0 0 0 0 0 0 0 0 0 0 0 127 0"/>
<feOffset dy="1"/>
<feColorMatrix type="matrix" values="0 0 0 0 0 0 0 0 0 0 0 0 0 0 0 0 0 0 0.25 0"/>
<feBlend mode="normal" in2="BackgroundImageFix" result="effect1_dropShadow"/>
<feBlend mode="normal" in="SourceGraphic" in2="effect1_dropShadow" result="shape"/>
</filter>
<filter id="filter27_d" x="227.5" y="10" width="32" height="43" filterUnits="userSpaceOnUse" color-interpolation-filters="sRGB">
<feFlood flood-opacity="0" result="BackgroundImageFix"/>
<feColorMatrix in="SourceAlpha" type="matrix" values="0 0 0 0 0 0 0 0 0 0 0 0 0 0 0 0 0 0 127 0"/>
<feOffset dy="1"/>
<feColorMatrix type="matrix" values="0 0 0 0 0 0 0 0 0 0 0 0 0 0 0 0 0 0 0.25 0"/>
<feBlend mode="normal" in2="BackgroundImageFix" result="effect1_dropShadow"/>
<feBlend mode="normal" in="SourceGraphic" in2="effect1_dropShadow" result="shape"/>
</filter>
<filter id="filter28_d" x="190" y="10" width="32" height="43" filterUnits="userSpaceOnUse" color-interpolation-filters="sRGB">
<feFlood flood-opacity="0" result="BackgroundImageFix"/>
<feColorMatrix in="SourceAlpha" type="matrix" values="0 0 0 0 0 0 0 0 0 0 0 0 0 0 0 0 0 0 127 0"/>
<feOffset dy="1"/>
<feColorMatrix type="matrix" values="0 0 0 0 0 0 0 0 0 0 0 0 0 0 0 0 0 0 0.25 0"/>
<feBlend mode="normal" in2="BackgroundImageFix" result="effect1_dropShadow"/>
<feBlend mode="normal" in="SourceGraphic" in2="effect1_dropShadow" result="shape"/>
</filter>
<filter id="filter29_d" x="152.5" y="10" width="32" height="43" filterUnits="userSpaceOnUse" color-interpolation-filters="sRGB">
<feFlood flood-opacity="0" result="BackgroundImageFix"/>
<feColorMatrix in="SourceAlpha" type="matrix" values="0 0 0 0 0 0 0 0 0 0 0 0 0 0 0 0 0 0 127 0"/>
<feOffset dy="1"/>
<feColorMatrix type="matrix" values="0 0 0 0 0 0 0 0 0 0 0 0 0 0 0 0 0 0 0.25 0"/>
<feBlend mode="normal" in2="BackgroundImageFix" result="effect1_dropShadow"/>
<feBlend mode="normal" in="SourceGraphic" in2="effect1_dropShadow" result="shape"/>
</filter>
<filter id="filter30_d" x="115" y="10" width="32" height="43" filterUnits="userSpaceOnUse" color-interpolation-filters="sRGB">
<feFlood flood-opacity="0" result="BackgroundImageFix"/>
<feColorMatrix in="SourceAlpha" type="matrix" values="0 0 0 0 0 0 0 0 0 0 0 0 0 0 0 0 0 0 127 0"/>
<feOffset dy="1"/>
<feColorMatrix type="matrix" values="0 0 0 0 0 0 0 0 0 0 0 0 0 0 0 0 0 0 0.25 0"/>
<feBlend mode="normal" in2="BackgroundImageFix" result="effect1_dropShadow"/>
<feBlend mode="normal" in="SourceGraphic" in2="effect1_dropShadow" result="shape"/>
</filter>
<filter id="filter31_d" x="77.5" y="10" width="32" height="43" filterUnits="userSpaceOnUse" color-interpolation-filters="sRGB">
<feFlood flood-opacity="0" result="BackgroundImageFix"/>
<feColorMatrix in="SourceAlpha" type="matrix" values="0 0 0 0 0 0 0 0 0 0 0 0 0 0 0 0 0 0 127 0"/>
<feOffset dy="1"/>
<feColorMatrix type="matrix" values="0 0 0 0 0 0 0 0 0 0 0 0 0 0 0 0 0 0 0.25 0"/>
<feBlend mode="normal" in2="BackgroundImageFix" result="effect1_dropShadow"/>
<feBlend mode="normal" in="SourceGraphic" in2="effect1_dropShadow" result="shape"/>
</filter>
<filter id="filter32_d" x="40.5" y="10" width="32" height="43" filterUnits="userSpaceOnUse" color-interpolation-filters="sRGB">
<feFlood flood-opacity="0" result="BackgroundImageFix"/>
<feColorMatrix in="SourceAlpha" type="matrix" values="0 0 0 0 0 0 0 0 0 0 0 0 0 0 0 0 0 0 127 0"/>
<feOffset dy="1"/>
<feColorMatrix type="matrix" values="0 0 0 0 0 0 0 0 0 0 0 0 0 0 0 0 0 0 0.25 0"/>
<feBlend mode="normal" in2="BackgroundImageFix" result="effect1_dropShadow"/>
<feBlend mode="normal" in="SourceGraphic" in2="effect1_dropShadow" result="shape"/>
</filter>
<filter id="filter33_d" x="3" y="10" width="32" height="43" filterUnits="userSpaceOnUse" color-interpolation-filters="sRGB">
<feFlood flood-opacity="0" result="BackgroundImageFix"/>
<feColorMatrix in="SourceAlpha" type="matrix" values="0 0 0 0 0 0 0 0 0 0 0 0 0 0 0 0 0 0 127 0"/>
<feOffset dy="1"/>
<feColorMatrix type="matrix" values="0 0 0 0 0 0 0 0 0 0 0 0 0 0 0 0 0 0 0.25 0"/>
<feBlend mode="normal" in2="BackgroundImageFix" result="effect1_dropShadow"/>
<feBlend mode="normal" in="SourceGraphic" in2="effect1_dropShadow" result="shape"/>
</filter>
</defs>
</svg>
