<svg width="375" height="65" viewBox="0 0 375 65" fill="none" xmlns="http://www.w3.org/2000/svg">
<g filter="url(#filter0_bd)">
<path fill-rule="evenodd" clip-rule="evenodd" d="M0 0H375V64H0V0Z" fill="#F9F9F9" fill-opacity="0.9"/>
</g>
<path fill-rule="evenodd" clip-rule="evenodd" d="M349.25 46.8594L349.095 47.0137L339.126 37.0449L340.184 35.9883L349.25 45.0547L358.316 35.9883L359.374 37.0449L349.405 47.0137L349.25 46.8594Z" fill="#007AFF"/>
<path fill-rule="evenodd" clip-rule="evenodd" d="M308.25 37.9453L317.316 47.0117L318.374 45.9551L308.405 35.9863L308.25 36.1406L308.095 35.9863L298.126 45.9551L299.184 47.0117L308.25 37.9453Z" fill="#007AFF"/>
<path d="M141.306 35.896V48H140.218L132.908 38.259V48H131.599V35.896H132.67L139.98 45.637V35.896H141.306ZM150.86 43.682H144.587C144.598 44.77 144.847 45.5917 145.335 46.147C145.833 46.7023 146.553 46.98 147.494 46.98C148.491 46.98 149.409 46.6457 150.248 45.977L150.707 46.98C150.333 47.3313 149.851 47.609 149.262 47.813C148.684 48.017 148.089 48.119 147.477 48.119C146.139 48.119 145.091 47.728 144.332 46.946C143.572 46.1527 143.193 45.0703 143.193 43.699C143.193 42.8263 143.363 42.0557 143.703 41.387C144.043 40.707 144.519 40.18 145.131 39.806C145.743 39.432 146.44 39.245 147.222 39.245C148.355 39.245 149.245 39.619 149.891 40.367C150.537 41.1037 150.86 42.1237 150.86 43.427V43.682ZM147.239 40.316C146.525 40.316 145.941 40.5313 145.488 40.962C145.046 41.3927 144.762 41.999 144.638 42.781H149.619C149.551 41.9763 149.313 41.3643 148.905 40.945C148.508 40.5257 147.953 40.316 147.239 40.316ZM165.428 39.449L162.266 48H160.94L158.492 41.319L156.061 48H154.735L151.573 39.449H153.018L155.432 46.351L157.931 39.449H159.138L161.603 46.368L164.068 39.449H165.428ZM182.439 35.896V48H181.147V39.007L177.22 48H176.234L172.273 39.075L172.29 48H170.998V35.896H172.154L176.744 46.334L181.283 35.896H182.439ZM192.002 43.682H185.729C185.74 44.77 185.99 45.5917 186.477 46.147C186.976 46.7023 187.695 46.98 188.636 46.98C189.633 46.98 190.551 46.6457 191.39 45.977L191.849 46.98C191.475 47.3313 190.993 47.609 190.404 47.813C189.826 48.017 189.231 48.119 188.619 48.119C187.282 48.119 186.233 47.728 185.474 46.946C184.715 46.1527 184.335 45.0703 184.335 43.699C184.335 42.8263 184.505 42.0557 184.845 41.387C185.185 40.707 185.661 40.18 186.273 39.806C186.885 39.432 187.582 39.245 188.364 39.245C189.497 39.245 190.387 39.619 191.033 40.367C191.679 41.1037 192.002 42.1237 192.002 43.427V43.682ZM188.381 40.316C187.667 40.316 187.083 40.5313 186.63 40.962C186.188 41.3927 185.905 41.999 185.78 42.781H190.761C190.693 41.9763 190.455 41.3643 190.047 40.945C189.65 40.5257 189.095 40.316 188.381 40.316ZM196.572 48.119C195.133 48.119 193.994 47.7507 193.155 47.014L193.614 45.994C194.079 46.3567 194.549 46.6173 195.025 46.776C195.501 46.9347 196.034 47.014 196.623 47.014C197.269 47.014 197.756 46.9063 198.085 46.691C198.425 46.4643 198.595 46.1413 198.595 45.722C198.595 45.382 198.482 45.11 198.255 44.906C198.028 44.702 197.654 44.5433 197.133 44.43L195.688 44.09C194.974 43.9313 194.419 43.648 194.022 43.24C193.637 42.832 193.444 42.3447 193.444 41.778C193.444 41.03 193.744 40.4237 194.345 39.959C194.946 39.483 195.739 39.245 196.725 39.245C197.326 39.245 197.892 39.3413 198.425 39.534C198.958 39.7267 199.405 40.0043 199.768 40.367L199.309 41.37C198.504 40.7013 197.643 40.367 196.725 40.367C196.113 40.367 195.637 40.486 195.297 40.724C194.968 40.9507 194.804 41.2737 194.804 41.693C194.804 42.0443 194.906 42.322 195.11 42.526C195.325 42.73 195.665 42.8887 196.13 43.002L197.575 43.359C198.368 43.5403 198.958 43.8237 199.343 44.209C199.728 44.583 199.921 45.076 199.921 45.688C199.921 46.4247 199.621 47.014 199.02 47.456C198.419 47.898 197.603 48.119 196.572 48.119ZM204.596 48.119C203.156 48.119 202.017 47.7507 201.179 47.014L201.638 45.994C202.102 46.3567 202.573 46.6173 203.049 46.776C203.525 46.9347 204.057 47.014 204.647 47.014C205.293 47.014 205.78 46.9063 206.109 46.691C206.449 46.4643 206.619 46.1413 206.619 45.722C206.619 45.382 206.505 45.11 206.279 44.906C206.052 44.702 205.678 44.5433 205.157 44.43L203.712 44.09C202.998 43.9313 202.442 43.648 202.046 43.24C201.66 42.832 201.468 42.3447 201.468 41.778C201.468 41.03 201.768 40.4237 202.369 39.959C202.969 39.483 203.763 39.245 204.749 39.245C205.349 39.245 205.916 39.3413 206.449 39.534C206.981 39.7267 207.429 40.0043 207.792 40.367L207.333 41.37C206.528 40.7013 205.667 40.367 204.749 40.367C204.137 40.367 203.661 40.486 203.321 40.724C202.992 40.9507 202.828 41.2737 202.828 41.693C202.828 42.0443 202.93 42.322 203.134 42.526C203.349 42.73 203.689 42.8887 204.154 43.002L205.599 43.359C206.392 43.5403 206.981 43.8237 207.367 44.209C207.752 44.583 207.945 45.076 207.945 45.688C207.945 46.4247 207.644 47.014 207.044 47.456C206.443 47.898 205.627 48.119 204.596 48.119ZM217.26 39.449V48H215.9V46.453C215.651 46.9857 215.271 47.3993 214.761 47.694C214.262 47.9773 213.679 48.119 213.01 48.119C212.251 48.119 211.582 47.9377 211.004 47.575C210.437 47.2123 209.995 46.7023 209.678 46.045C209.372 45.3763 209.219 44.6 209.219 43.716C209.219 42.832 209.378 42.0557 209.695 41.387C210.012 40.707 210.454 40.18 211.021 39.806C211.599 39.432 212.262 39.245 213.01 39.245C213.679 39.245 214.262 39.3923 214.761 39.687C215.26 39.9817 215.639 40.3953 215.9 40.928V39.449H217.26ZM213.282 46.98C214.121 46.98 214.767 46.6967 215.22 46.13C215.673 45.552 215.9 44.736 215.9 43.682C215.9 42.628 215.673 41.8177 215.22 41.251C214.767 40.6843 214.121 40.401 213.282 40.401C212.443 40.401 211.786 40.6957 211.31 41.285C210.845 41.863 210.613 42.6733 210.613 43.716C210.613 44.7587 210.845 45.5633 211.31 46.13C211.775 46.6967 212.432 46.98 213.282 46.98ZM227.129 39.449V47.932C227.129 49.2013 226.8 50.159 226.143 50.805C225.497 51.4623 224.539 51.791 223.27 51.791C221.966 51.791 220.844 51.4963 219.904 50.907L220.142 49.785C220.686 50.091 221.196 50.312 221.672 50.448C222.159 50.584 222.692 50.652 223.27 50.652C224.097 50.652 224.72 50.431 225.14 49.989C225.559 49.5583 225.769 48.9123 225.769 48.051V46.028C225.508 46.572 225.123 46.997 224.613 47.303C224.114 47.5977 223.519 47.745 222.828 47.745C222.08 47.745 221.411 47.5693 220.822 47.218C220.244 46.8667 219.796 46.368 219.479 45.722C219.161 45.076 219.003 44.3337 219.003 43.495C219.003 42.6563 219.161 41.914 219.479 41.268C219.796 40.622 220.244 40.1233 220.822 39.772C221.411 39.4207 222.08 39.245 222.828 39.245C223.508 39.245 224.097 39.3923 224.596 39.687C225.106 39.9817 225.491 40.3953 225.752 40.928V39.449H227.129ZM223.1 46.589C223.927 46.589 224.573 46.317 225.038 45.773C225.514 45.2177 225.752 44.4583 225.752 43.495C225.752 42.5317 225.514 41.778 225.038 41.234C224.573 40.6787 223.927 40.401 223.1 40.401C222.261 40.401 221.598 40.6787 221.111 41.234C220.635 41.778 220.397 42.5317 220.397 43.495C220.397 44.4583 220.635 45.2177 221.111 45.773C221.598 46.317 222.261 46.589 223.1 46.589ZM236.519 43.682H230.246C230.258 44.77 230.507 45.5917 230.994 46.147C231.493 46.7023 232.213 46.98 233.153 46.98C234.151 46.98 235.069 46.6457 235.907 45.977L236.366 46.98C235.992 47.3313 235.511 47.609 234.921 47.813C234.343 48.017 233.748 48.119 233.136 48.119C231.799 48.119 230.751 47.728 229.991 46.946C229.232 46.1527 228.852 45.0703 228.852 43.699C228.852 42.8263 229.022 42.0557 229.362 41.387C229.702 40.707 230.178 40.18 230.79 39.806C231.402 39.432 232.099 39.245 232.881 39.245C234.015 39.245 234.904 39.619 235.55 40.367C236.196 41.1037 236.519 42.1237 236.519 43.427V43.682ZM232.898 40.316C232.184 40.316 231.601 40.5313 231.147 40.962C230.705 41.3927 230.422 41.999 230.297 42.781H235.278C235.21 41.9763 234.972 41.3643 234.564 40.945C234.168 40.5257 233.612 40.316 232.898 40.316ZM241.089 48.119C239.65 48.119 238.511 47.7507 237.672 47.014L238.131 45.994C238.596 46.3567 239.066 46.6173 239.542 46.776C240.018 46.9347 240.551 47.014 241.14 47.014C241.786 47.014 242.274 46.9063 242.602 46.691C242.942 46.4643 243.112 46.1413 243.112 45.722C243.112 45.382 242.999 45.11 242.772 44.906C242.546 44.702 242.172 44.5433 241.65 44.43L240.205 44.09C239.491 43.9313 238.936 43.648 238.539 43.24C238.154 42.832 237.961 42.3447 237.961 41.778C237.961 41.03 238.262 40.4237 238.862 39.959C239.463 39.483 240.256 39.245 241.242 39.245C241.843 39.245 242.41 39.3413 242.942 39.534C243.475 39.7267 243.923 40.0043 244.285 40.367L243.826 41.37C243.022 40.7013 242.16 40.367 241.242 40.367C240.63 40.367 240.154 40.486 239.814 40.724C239.486 40.9507 239.321 41.2737 239.321 41.693C239.321 42.0443 239.423 42.322 239.627 42.526C239.843 42.73 240.183 42.8887 240.647 43.002L242.092 43.359C242.886 43.5403 243.475 43.8237 243.86 44.209C244.246 44.583 244.438 45.076 244.438 45.688C244.438 46.4247 244.138 47.014 243.537 47.456C242.937 47.898 242.121 48.119 241.089 48.119Z" fill="black"/>
<path d="M28.496 35.896H29.89V48H28.496V35.896ZM36.5678 39.245C38.6191 39.245 39.6448 40.3727 39.6448 42.628V48H38.2678V42.696C38.2678 41.9027 38.1091 41.3247 37.7918 40.962C37.4745 40.588 36.9758 40.401 36.2958 40.401C35.5025 40.401 34.8678 40.6447 34.3918 41.132C33.9158 41.6193 33.6778 42.2767 33.6778 43.104V48H32.3008V41.846C32.3008 40.962 32.2555 40.163 32.1648 39.449H33.4738L33.6098 40.979C33.8705 40.4237 34.2615 39.9987 34.7828 39.704C35.3041 39.398 35.8991 39.245 36.5678 39.245ZM46.1041 39.245C46.8521 39.245 47.5151 39.4263 48.0931 39.789C48.6711 40.1517 49.1188 40.6673 49.4361 41.336C49.7535 41.9933 49.9121 42.764 49.9121 43.648C49.9121 44.532 49.7535 45.314 49.4361 45.994C49.1188 46.6627 48.6711 47.184 48.0931 47.558C47.5151 47.932 46.8521 48.119 46.1041 48.119C45.4355 48.119 44.8518 47.9717 44.3531 47.677C43.8545 47.3823 43.4748 46.963 43.2141 46.419V48H41.8371V35.488H43.2141V40.962C43.4635 40.4067 43.8375 39.9817 44.3361 39.687C44.8461 39.3923 45.4355 39.245 46.1041 39.245ZM45.8491 46.98C46.6765 46.98 47.3225 46.691 47.7871 46.113C48.2518 45.5237 48.4841 44.702 48.4841 43.648C48.4841 42.6167 48.2518 41.8177 47.7871 41.251C47.3338 40.6843 46.6878 40.401 45.8491 40.401C44.9991 40.401 44.3475 40.6843 43.8941 41.251C43.4408 41.8177 43.2141 42.628 43.2141 43.682C43.2141 44.736 43.4408 45.552 43.8941 46.13C44.3475 46.6967 44.9991 46.98 45.8491 46.98ZM55.1585 48.119C54.3538 48.119 53.6455 47.9377 53.0335 47.575C52.4215 47.2123 51.9455 46.6967 51.6055 46.028C51.2768 45.3593 51.1125 44.5773 51.1125 43.682C51.1125 42.7867 51.2768 42.0047 51.6055 41.336C51.9455 40.6673 52.4215 40.1517 53.0335 39.789C53.6455 39.4263 54.3538 39.245 55.1585 39.245C55.9632 39.245 56.6715 39.4263 57.2835 39.789C57.8955 40.1517 58.3658 40.6673 58.6945 41.336C59.0345 42.0047 59.2045 42.7867 59.2045 43.682C59.2045 44.5773 59.0345 45.3593 58.6945 46.028C58.3658 46.6967 57.8955 47.2123 57.2835 47.575C56.6715 47.9377 55.9632 48.119 55.1585 48.119ZM55.1585 46.98C56.0085 46.98 56.6602 46.7023 57.1135 46.147C57.5668 45.5803 57.7935 44.7587 57.7935 43.682C57.7935 42.6393 57.5612 41.8347 57.0965 41.268C56.6318 40.69 55.9858 40.401 55.1585 40.401C54.3198 40.401 53.6682 40.69 53.2035 41.268C52.7388 41.8347 52.5065 42.6393 52.5065 43.682C52.5065 44.7587 52.7332 45.5803 53.1865 46.147C53.6512 46.7023 54.3085 46.98 55.1585 46.98ZM68.342 48H66.693L63.99 44.634L61.321 48H59.638L63.191 43.597L59.842 39.449H61.508L63.99 42.594L66.472 39.449H68.155L64.823 43.597L68.342 48Z" fill="#007AFF"/>
<path fill-rule="evenodd" clip-rule="evenodd" d="M18.9376 32L8 42.5L18.9376 53L21 51.0201L12.1248 42.5L21 33.9799L18.9376 32Z" fill="#007AFF"/>
<path fill-rule="evenodd" clip-rule="evenodd" d="M0 0V20H375V0H0Z" fill="black" fill-opacity="0.01"/>
<path fill-rule="evenodd" clip-rule="evenodd" d="M365.998 5.5H346.502C346.118 5.5 345.768 5.64258 345.502 5.87891C345.194 6.15234 345 6.55273 345 7V13.5C345 13.9004 345.158 14.2637 345.414 14.5332C345.688 14.8203 346.074 15 346.502 15H365.998C366.827 15 367.5 14.332 367.5 13.5V7C367.5 6.17188 366.827 5.5 365.998 5.5ZM345.5 7C345.5 6.44531 345.947 6 346.502 6H365.998C366.551 6 367 6.44727 367 7V13.5C367 14.0547 366.553 14.5 365.998 14.5H346.502C345.949 14.5 345.5 14.0527 345.5 13.5V7Z" fill="black"/>
<path fill-rule="evenodd" clip-rule="evenodd" d="M346.5 6.5C346.224 6.5 346 6.72386 346 7V13.5C346 13.7761 346.224 14 346.5 14H355V6.5H346.5Z" fill="black"/>
<path fill-rule="evenodd" clip-rule="evenodd" d="M369.5 10.25C369.5 11.1406 368.848 11.8775 368 12V8.5C368.848 8.62255 369.5 9.35936 369.5 10.25Z" fill="black"/>
<path d="M317.96 -6.364C318.496 -6.364 318.964 -6.248 319.364 -6.016C319.772 -5.792 320.084 -5.476 320.3 -5.068C320.516 -4.66 320.624 -4.188 320.624 -3.652C320.624 -3.116 320.504 -2.64 320.264 -2.224C320.032 -1.808 319.696 -1.484 319.256 -1.252C318.824 -1.028 318.316 -0.916 317.732 -0.916C317.212 -0.916 316.7 -1.008 316.196 -1.192C315.692 -1.384 315.268 -1.644 314.924 -1.972L315.296 -2.728C316.088 -2.072 316.9 -1.744 317.732 -1.744C318.332 -1.744 318.8 -1.912 319.136 -2.248C319.48 -2.592 319.652 -3.056 319.652 -3.64C319.652 -4.208 319.484 -4.664 319.148 -5.008C318.812 -5.36 318.364 -5.536 317.804 -5.536C316.988 -5.536 316.336 -5.204 315.848 -4.54H315.164V-9.544H320.288V-8.728H316.148V-5.68C316.62 -6.136 317.224 -6.364 317.96 -6.364ZM326.091 -5.392C326.651 -5.24 327.083 -4.976 327.387 -4.6C327.699 -4.232 327.855 -3.788 327.855 -3.268C327.855 -2.54 327.579 -1.964 327.027 -1.54C326.475 -1.124 325.731 -0.916 324.795 -0.916C323.859 -0.916 323.115 -1.124 322.563 -1.54C322.011 -1.964 321.735 -2.54 321.735 -3.268C321.735 -3.788 321.891 -4.236 322.203 -4.612C322.523 -4.988 322.959 -5.248 323.511 -5.392C322.999 -5.544 322.607 -5.792 322.335 -6.136C322.063 -6.488 321.927 -6.9 321.927 -7.372C321.927 -7.828 322.047 -8.224 322.287 -8.56C322.527 -8.904 322.863 -9.168 323.295 -9.352C323.735 -9.544 324.235 -9.64 324.795 -9.64C325.355 -9.64 325.851 -9.544 326.283 -9.352C326.723 -9.168 327.063 -8.904 327.303 -8.56C327.543 -8.224 327.663 -7.828 327.663 -7.372C327.663 -6.9 327.523 -6.488 327.243 -6.136C326.971 -5.792 326.587 -5.544 326.091 -5.392ZM322.911 -7.3C322.911 -6.844 323.079 -6.472 323.415 -6.184C323.759 -5.904 324.219 -5.732 324.795 -5.668C325.371 -5.732 325.827 -5.904 326.163 -6.184C326.507 -6.472 326.679 -6.844 326.679 -7.3C326.679 -7.772 326.511 -8.144 326.175 -8.416C325.847 -8.688 325.387 -8.824 324.795 -8.824C324.203 -8.824 323.739 -8.688 323.403 -8.416C323.075 -8.144 322.911 -7.772 322.911 -7.3ZM324.795 -1.732C325.467 -1.732 325.983 -1.868 326.343 -2.14C326.703 -2.412 326.883 -2.808 326.883 -3.328C326.883 -3.8 326.691 -4.176 326.307 -4.456C325.931 -4.744 325.427 -4.92 324.795 -4.984C324.163 -4.92 323.655 -4.744 323.271 -4.456C322.895 -4.176 322.707 -3.8 322.707 -3.328C322.707 -2.808 322.887 -2.412 323.247 -2.14C323.607 -1.868 324.123 -1.732 324.795 -1.732ZM316.724 10.58C316.076 10.58 315.572 10.36 315.212 9.92C314.852 9.48 314.672 8.828 314.672 7.964C314.672 7.108 314.852 6.46 315.212 6.02C315.572 5.58 316.076 5.36 316.724 5.36C317.372 5.36 317.876 5.58 318.236 6.02C318.604 6.46 318.788 7.108 318.788 7.964C318.788 8.828 318.604 9.48 318.236 9.92C317.876 10.36 317.372 10.58 316.724 10.58ZM316.688 14L321.632 5.456H322.58L317.636 14H316.688ZM316.724 9.884C317.124 9.884 317.416 9.732 317.6 9.428C317.792 9.116 317.888 8.628 317.888 7.964C317.888 7.308 317.792 6.828 317.6 6.524C317.416 6.212 317.124 6.056 316.724 6.056C316.332 6.056 316.04 6.212 315.848 6.524C315.656 6.828 315.56 7.308 315.56 7.964C315.56 8.628 315.656 9.116 315.848 9.428C316.04 9.732 316.332 9.884 316.724 9.884ZM322.544 14.084C321.896 14.084 321.392 13.864 321.032 13.424C320.672 12.984 320.492 12.332 320.492 11.468C320.492 10.604 320.672 9.956 321.032 9.524C321.392 9.084 321.896 8.864 322.544 8.864C323.192 8.864 323.696 9.084 324.056 9.524C324.424 9.956 324.608 10.604 324.608 11.468C324.608 12.332 324.424 12.984 324.056 13.424C323.696 13.864 323.192 14.084 322.544 14.084ZM322.544 13.388C322.952 13.388 323.248 13.236 323.432 12.932C323.624 12.628 323.72 12.14 323.72 11.468C323.72 10.812 323.624 10.332 323.432 10.028C323.24 9.716 322.944 9.56 322.544 9.56C322.144 9.56 321.848 9.716 321.656 10.028C321.472 10.332 321.38 10.812 321.38 11.468C321.38 12.132 321.472 12.62 321.656 12.932C321.848 13.236 322.144 13.388 322.544 13.388Z" fill="black"/>
<path opacity="0.4" fill-rule="evenodd" clip-rule="evenodd" d="M304.689 14.8514V11.2988L306.503 13.1603L304.689 14.8514ZM306.586 7.84118L304.689 9.63959V6.23242L306.586 7.84118ZM305.145 10.5005L307.959 7.84041L303.761 4H303.661V9.34133L300.811 6.52481L300 7.32389L303.429 10.5005L300 13.6766L300.811 14.4757L303.661 11.6591V17H303.843L308 13.15L305.145 10.5005Z" fill="black"/>
<path d="M167.3 5.348C168.444 5.348 169.324 5.72 169.94 6.464C170.564 7.208 170.876 8.268 170.876 9.644C170.876 10.564 170.728 11.36 170.432 12.032C170.136 12.704 169.708 13.22 169.148 13.58C168.588 13.932 167.924 14.108 167.156 14.108C166.612 14.108 166.088 14.028 165.584 13.868C165.08 13.708 164.652 13.484 164.3 13.196L165.008 11.6C165.72 12.112 166.4 12.368 167.048 12.368C168.008 12.368 168.536 11.66 168.632 10.244C168.448 10.508 168.2 10.716 167.888 10.868C167.576 11.012 167.232 11.084 166.856 11.084C166.368 11.084 165.928 10.964 165.536 10.724C165.152 10.484 164.848 10.156 164.624 9.74C164.408 9.316 164.3 8.836 164.3 8.3C164.3 7.732 164.428 7.224 164.684 6.776C164.94 6.328 165.296 5.98 165.752 5.732C166.208 5.476 166.724 5.348 167.3 5.348ZM167.432 9.344C167.736 9.344 167.98 9.24 168.164 9.032C168.356 8.824 168.452 8.548 168.452 8.204C168.452 7.876 168.356 7.608 168.164 7.4C167.972 7.184 167.728 7.076 167.432 7.076C167.12 7.076 166.872 7.18 166.688 7.388C166.504 7.596 166.412 7.868 166.412 8.204C166.412 8.556 166.5 8.836 166.676 9.044C166.86 9.244 167.112 9.344 167.432 9.344ZM173.979 8.036V10.256H171.711V8.036H173.979ZM173.979 11.768V14H171.711V11.768H173.979ZM181.568 12.56H180.464V14H178.256V12.56H174.836V10.904L178.664 5.456H180.464V10.844H181.568V12.56ZM178.256 10.844V8.828L176.852 10.844H178.256ZM188.739 12.212V14H182.811V12.212H184.647V7.904L182.931 8.888V6.956L185.571 5.456H186.891V12.212H188.739ZM198.911 12.236H195.119L194.363 14H192.107L196.103 5.456H197.879L201.887 14H199.667L198.911 12.236ZM198.179 10.544L197.015 7.844L195.851 10.544H198.179ZM211.025 5.456V14H209.057L209.045 10.088L207.425 14H205.997L204.365 10.136V14H202.409V5.456H204.173L206.729 11.288L209.273 5.456H211.025Z" fill="black"/>
<path fill-rule="evenodd" clip-rule="evenodd" d="M69.9958 7.52088C71.9355 7.52088 73.7034 8.23545 75.0589 9.40718L76 8.36811C74.3946 6.97447 72.2979 6 69.9958 6C67.6971 6 65.6034 6.97151 64 8.36071L64.9391 9.40126C66.2936 8.23299 68.0585 7.52088 69.9958 7.52088ZM69.9959 10.5199C71.1585 10.5199 72.2206 10.942 73.0398 11.6374L74.0354 10.5376C72.9518 9.60756 71.5423 9 69.9959 9C68.4525 9 67.044 9.60608 65.9614 10.5332L66.9556 11.6344C67.7742 10.9405 68.8348 10.5199 69.9959 10.5199ZM72.0437 12.7377C71.4894 12.2776 70.7756 11.959 69.9954 11.959C69.2167 11.959 68.504 12.2771 67.9497 12.7352L69.9954 15.0002L72.0437 12.7377Z" fill="black"/>
<path d="M51.812 9.548V13.508C51.476 13.684 51.036 13.828 50.492 13.94C49.948 14.044 49.396 14.096 48.836 14.096C47.988 14.096 47.256 13.924 46.64 13.58C46.024 13.228 45.552 12.724 45.224 12.068C44.904 11.412 44.744 10.628 44.744 9.716C44.744 8.812 44.904 8.036 45.224 7.388C45.552 6.732 46.016 6.232 46.616 5.888C47.224 5.536 47.94 5.36 48.764 5.36C49.364 5.36 49.912 5.452 50.408 5.636C50.912 5.812 51.344 6.08 51.704 6.44L51.32 7.196C50.904 6.844 50.496 6.592 50.096 6.44C49.704 6.28 49.26 6.2 48.764 6.2C47.796 6.2 47.052 6.504 46.532 7.112C46.02 7.712 45.764 8.58 45.764 9.716C45.764 10.876 46.028 11.76 46.556 12.368C47.084 12.968 47.852 13.268 48.86 13.268C49.572 13.268 50.256 13.156 50.912 12.932V10.328H48.788V9.548H51.812ZM56.5453 14.096C55.2093 14.096 54.1453 13.736 53.3533 13.016L53.7253 12.26C54.1493 12.62 54.5813 12.876 55.0213 13.028C55.4613 13.18 55.9733 13.256 56.5573 13.256C57.2453 13.256 57.7733 13.124 58.1413 12.86C58.5173 12.588 58.7053 12.208 58.7053 11.72C58.7053 11.432 58.6133 11.2 58.4293 11.024C58.2533 10.84 58.0173 10.696 57.7213 10.592C57.4333 10.488 57.0453 10.38 56.5573 10.268C55.9013 10.124 55.3613 9.968 54.9373 9.8C54.5133 9.632 54.1693 9.392 53.9053 9.08C53.6413 8.76 53.5093 8.344 53.5093 7.832C53.5093 7.344 53.6373 6.916 53.8933 6.548C54.1493 6.172 54.5093 5.88 54.9733 5.672C55.4453 5.464 55.9933 5.36 56.6173 5.36C57.2093 5.36 57.7613 5.452 58.2733 5.636C58.7853 5.82 59.2173 6.088 59.5693 6.44L59.1853 7.196C58.7853 6.852 58.3773 6.6 57.9613 6.44C57.5533 6.28 57.1053 6.2 56.6173 6.2C55.9533 6.2 55.4333 6.344 55.0573 6.632C54.6813 6.912 54.4933 7.3 54.4933 7.796C54.4933 8.228 54.6573 8.552 54.9853 8.768C55.3133 8.984 55.8173 9.172 56.4973 9.332C57.2333 9.508 57.8093 9.672 58.2253 9.824C58.6493 9.968 59.0013 10.192 59.2813 10.496C59.5613 10.792 59.7013 11.188 59.7013 11.684C59.7013 12.164 59.5733 12.588 59.3173 12.956C59.0613 13.316 58.6933 13.596 58.2133 13.796C57.7413 13.996 57.1853 14.096 56.5453 14.096Z" fill="black"/>
<path fill-rule="evenodd" clip-rule="evenodd" d="M35 10.75C35 12.2695 36.2314 13.5 37.75 13.5C39.2686 13.5 40.5 12.2695 40.5 10.75C40.5 9.23047 39.2686 8 37.75 8C36.2314 8 35 9.23047 35 10.75ZM40 10.75C40 11.9922 38.9927 13 37.75 13C36.5073 13 35.5 11.9922 35.5 10.75C35.5 9.50781 36.5073 8.5 37.75 8.5C38.4863 8.5 39.1401 8.85352 39.5503 9.40039C39.8325 9.77734 40 10.2441 40 10.75Z" fill="black"/>
<path fill-rule="evenodd" clip-rule="evenodd" d="M28 10.75C28 12.2695 29.2314 13.5 30.75 13.5C32.2686 13.5 33.5 12.2695 33.5 10.75C33.5 9.23047 32.2686 8 30.75 8C29.2314 8 28 9.23047 28 10.75ZM33 10.75C33 11.9922 31.9927 13 30.75 13C29.5073 13 28.5 11.9922 28.5 10.75C28.5 9.50781 29.5073 8.5 30.75 8.5C31.9927 8.5 33 9.50781 33 10.75Z" fill="black"/>
<path fill-rule="evenodd" clip-rule="evenodd" d="M23.75 13.5C25.2688 13.5 26.5 12.2688 26.5 10.75C26.5 9.23122 25.2688 8 23.75 8C22.2312 8 21 9.23122 21 10.75C21 12.2688 22.2312 13.5 23.75 13.5Z" fill="black"/>
<path fill-rule="evenodd" clip-rule="evenodd" d="M16.75 13.5C18.2688 13.5 19.5 12.2688 19.5 10.75C19.5 9.23122 18.2688 8 16.75 8C15.2312 8 14 9.23122 14 10.75C14 12.2688 15.2312 13.5 16.75 13.5Z" fill="black"/>
<path fill-rule="evenodd" clip-rule="evenodd" d="M9.75 13.5C11.2688 13.5 12.5 12.2688 12.5 10.75C12.5 9.23122 11.2688 8 9.75 8C8.23122 8 7 9.23122 7 10.75C7 12.2688 8.23122 13.5 9.75 13.5Z" fill="black"/>
<defs>
<filter id="filter0_bd" x="-27.1828" y="-27.1828" width="429.366" height="118.366" filterUnits="userSpaceOnUse" color-interpolation-filters="sRGB">
<feFlood flood-opacity="0" result="BackgroundImageFix"/>
<feGaussianBlur in="BackgroundImage" stdDeviation="13.5914"/>
<feComposite in2="SourceAlpha" operator="in" result="effect1_backgroundBlur"/>
<feColorMatrix in="SourceAlpha" type="matrix" values="0 0 0 0 0 0 0 0 0 0 0 0 0 0 0 0 0 0 127 0"/>
<feOffset dy="0.5"/>
<feColorMatrix type="matrix" values="0 0 0 0 0 0 0 0 0 0 0 0 0 0 0 0 0 0 0.3 0"/>
<feBlend mode="normal" in2="effect1_backgroundBlur" result="effect2_dropShadow"/>
<feBlend mode="normal" in="SourceGraphic" in2="effect2_dropShadow" result="shape"/>
</filter>
</defs>
</svg>
