<svg width="507" height="454" viewBox="0 0 507 454" fill="none" xmlns="http://www.w3.org/2000/svg">
<path d="M0 104.112L21.6005 0L77.1086 8.2788L96.9509 36.1256L80.625 120.168L0 104.112Z" transform="matrix(0.988016 -0.15677 0.15739 0.987155 40.4805 83.8076)" fill="white" stroke="#1F2855" stroke-width="3"/>
<path d="M3.6657 0L19.754 22.5785L0 19.9342L3.6657 0Z" transform="matrix(0.988016 -0.15677 0.15739 0.987155 116.666 82.8916)" fill="#1F2855" stroke="#1F2855" stroke-width="3"/>
<path d="M0 0L28.2023 5.5815" transform="matrix(0.988283 -0.155071 0.155686 0.987426 70.2305 90.4961)" stroke="#1F2855" stroke-width="3"/>
<path d="M0 0L16.0748 3.01046" transform="matrix(0.988283 -0.155071 0.155686 0.987426 70.1777 96.2129)" stroke="#1F2855" stroke-width="3"/>
<path d="M0 149.849L31.1186 0L111.086 11.9157L139.672 51.9959L116.152 172.959L0 149.849Z" transform="matrix(0.908018 -0.418932 0.421184 0.906975 0 151.457)" fill="white" stroke="#1F2855" stroke-width="3"/>
<path d="M5.28096 0L28.4585 32.4974L0 28.6914L5.28096 0Z" transform="matrix(0.908018 -0.418932 0.421184 0.906975 105.262 120.391)" fill="#1F2855" stroke="#1F2855" stroke-width="3"/>
<path d="M0 0L77.7967 14.8043" transform="matrix(0.908737 -0.41737 0.419617 0.907701 65.875 239.775)" stroke="#1F2855" stroke-width="3"/>
<path d="M0 0L77.7967 14.8043" transform="matrix(0.908737 -0.41737 0.419617 0.907701 70.4199 249.608)" stroke="#1F2855" stroke-width="3"/>
<path d="M0 0L23.1581 4.33297" transform="matrix(0.908737 -0.41737 0.419617 0.907701 74.3594 258.129)" stroke="#1F2855" stroke-width="3"/>
<path d="M0 0L23.1581 4.33297" transform="matrix(0.908737 -0.41737 0.419617 0.907701 68.3379 141.916)" stroke="#1F2855" stroke-width="3"/>
<path d="M0 0L23.1581 4.33297" transform="matrix(0.908737 -0.41737 0.419617 0.907701 70.5098 149.854)" stroke="#1F2855" stroke-width="3"/>
<path d="M0 0L23.1581 4.33297" transform="matrix(0.908737 -0.41737 0.419617 0.907701 103.748 250.99)" stroke="#1F2855" stroke-width="3"/>
<path d="M91.1144 16.9138L11.9404 0L0 54.1643L81.0501 69.6915L91.1144 16.9138Z" transform="matrix(0.901907 -0.43193 0.434221 0.900807 41.1523 177.879)" stroke="#1F2855" stroke-width="2"/>
<path d="M20.472 0L0 20.4242L47.0857 30.6363L38.2145 13.6161L30.708 20.4242L20.472 0Z" transform="matrix(0.927458 -0.373928 0.376025 0.926609 68.3691 184.325)" fill="#D7245B" stroke="#1F2855"/>
<path d="M19.2749 10.1045C19.2749 15.1297 15.187 19.209 10.1374 19.209C5.0879 19.209 1 15.1297 1 10.1045C1 5.07929 5.0879 1 10.1374 1C15.187 1 19.2749 5.07929 19.2749 10.1045Z" transform="translate(45.8906 139.468)" stroke="#1F2855" stroke-width="2"/>
<path d="M6.51692 6.39485C4.61262 6.39485 2.8463 5.81535 1.38331 4.82334C2.45628 3.46763 4.09987 2.02243 6.05684 1.36529C8.1231 0.671444 10.6684 0.808158 13.4862 3.17884C11.8094 5.14725 9.30975 6.39485 6.51692 6.39485Z" transform="translate(49.5098 152.282)" stroke="#1F2855" stroke-width="2"/>
<path d="M5.51692 3.24787C5.51692 4.48627 4.50884 5.49574 3.25846 5.49574C2.00808 5.49574 1 4.48627 1 3.24787C1 2.00947 2.00808 1 3.25846 1C4.50884 1 5.51692 2.00947 5.51692 3.24787Z" transform="translate(53.1328 143.799)" stroke="#1F2855" stroke-width="2"/>
<path d="M0 232.362V0H281.152V232.362H0Z" transform="translate(116.4 204.658)" fill="white" stroke="#1F2855" stroke-width="3"/>
<path d="M0 28.5984V0H281.152V28.5984H0Z" transform="translate(116.4 204.658)" fill="#1F2855" stroke="#1F2855" stroke-width="3"/>
<rect x="1.5" y="1.5" width="168.915" height="37.2166" transform="translate(134.309 320.839)" fill="white" stroke="#1F2855" stroke-width="3"/>
<path d="M0 0H26.8617" transform="translate(154.902 218.957)" stroke="white" stroke-width="3"/>
<path d="M0 0H26.8617" transform="translate(195.193 218.957)" stroke="white" stroke-width="3"/>
<path d="M0 0H26.8617" transform="translate(235.486 218.957)" stroke="white" stroke-width="3"/>
<path d="M0 8.38387V1C0 0.447715 0.447715 0 1 0H12.8785C13.4308 0 13.8785 0.447715 13.8785 1V8.38387C13.8785 8.93615 13.4308 9.38387 12.8785 9.38387H7.99047C7.74588 9.38387 7.50977 9.47351 7.3268 9.63583L5.24522 11.4826C4.60011 12.055 3.58155 11.597 3.58155 10.7346V10.3839C3.58155 9.83158 3.13384 9.38387 2.58155 9.38387H1C0.447715 9.38387 0 8.93615 0 8.38387Z" transform="translate(125.355 213.147)" fill="#D7245B"/>
<path d="M26.9654 1C36.1835 1 44.4937 4.8733 50.3537 11.0805L44.5296 16.0268C41.2691 12.4404 35.8639 8.50089 29.424 7.57847C22.6131 6.60292 14.8696 9.03257 7.52941 18.2703L1.39351 13.6499C7.26417 5.96041 16.5341 1 26.9654 1Z" transform="translate(138.682 249.343)" fill="#1F2855" stroke="#1F2855" stroke-width="2"/>
<path d="M13.7566 1C22.7784 1 30.9129 4.80235 36.6522 10.8982L30.9722 15.7397C26.314 10.6102 17.0721 4.62857 6.80837 8.44771L1.73938 3.38012C5.44102 1.84654 9.49906 1 13.7566 1Z" transform="matrix(-0.169261 0.985571 -0.985677 -0.168642 199.557 270.86)" fill="white" stroke="#1F2855" stroke-width="2"/>
<path d="M13.7566 1C22.7784 1 30.9129 4.80235 36.6522 10.8982L30.9722 15.7397C26.314 10.6102 17.0721 4.62857 6.80837 8.44771L1.73938 3.38012C5.44102 1.84654 9.49906 1 13.7566 1Z" transform="matrix(0.169261 0.985571 0.985677 -0.168642 132.518 270.86)" fill="white" stroke="#1F2855" stroke-width="2"/>
<rect width="81.4804" height="4.46851" transform="translate(214.893 266.323)" fill="#1F2855"/>
<rect width="81.4804" height="4.46851" transform="translate(214.893 277.048)" fill="#1F2855"/>
<rect width="38.5017" height="4.46851" transform="translate(214.893 287.771)" fill="#1F2855"/>
<rect width="27.757" height="4.46851" rx="1" transform="translate(349.201 271.686)" fill="#1F2855"/>
<rect width="17.9078" height="4.46851" rx="1" transform="translate(349.201 280.622)" fill="#1F2855"/>
<rect width="81.4804" height="4.46851" rx="1" transform="translate(168.334 333.351)" fill="#1F2855"/>
<rect width="46.5602" height="4.46851" rx="1" transform="translate(168.334 344.075)" fill="#1F2855"/>
<rect width="18.8032" height="4.46851" transform="translate(257.871 287.771)" fill="#1F2855"/>
<rect x="1.5" y="1.5" width="168.915" height="37.2166" transform="translate(134.309 367.312)" fill="white" stroke="#1F2855" stroke-width="3"/>
<rect width="81.4804" height="4.46851" rx="1" transform="translate(168.334 379.823)" fill="#1F2855"/>
<rect width="46.5602" height="4.46851" rx="1" transform="translate(168.334 390.548)" fill="#1F2855"/>
<rect x="1.5" y="1.5" width="168.915" height="37.2166" transform="translate(134.309 413.784)" fill="white" stroke="#1F2855" stroke-width="3"/>
<rect width="81.4804" height="4.46851" rx="1" transform="translate(168.334 426.296)" fill="#1F2855"/>
<rect width="46.5602" height="4.46851" rx="1" transform="translate(168.334 437.021)" fill="#1F2855"/>
<path d="M24.0709 12.5118C24.0709 18.8678 18.9081 24.0236 12.5354 24.0236C6.16281 24.0236 1 18.8678 1 12.5118C1 6.15579 6.16281 1 12.5354 1C18.9081 1 24.0709 6.1558 24.0709 12.5118Z" transform="translate(316.967 264.535)" stroke="#1F2855" stroke-width="2"/>
<path d="M8.0585 8.15663C5.56389 8.15663 3.25619 7.3674 1.36963 6.02495C2.71123 4.26381 4.84334 2.3292 7.41467 1.46457C10.0975 0.562454 13.3943 0.775069 17.0088 3.90782C14.8926 6.50177 11.6694 8.15663 8.0585 8.15663Z" transform="translate(321.443 280.402)" fill="#D7245B" stroke="#1F2855" stroke-width="2"/>
<path d="M7.0585 4.02166C7.0585 5.68869 5.70404 7.04331 4.02925 7.04331C2.35446 7.04331 1 5.68869 1 4.02166C1 2.35462 2.35446 1 4.02925 1C5.70404 1 7.0585 2.35462 7.0585 4.02166Z" transform="translate(325.92 269.897)" fill="#D7245B" stroke="#1F2855" stroke-width="2"/>
<rect width="27.757" height="4.46851" rx="1" transform="translate(349.201 302.965)" fill="#1F2855"/>
<rect width="17.9078" height="4.46851" rx="1" transform="translate(349.201 311.901)" fill="#1F2855"/>
<path d="M24.0709 12.5118C24.0709 18.8678 18.9081 24.0236 12.5354 24.0236C6.16281 24.0236 1 18.8678 1 12.5118C1 6.15579 6.16281 1 12.5354 1C18.9081 1 24.0709 6.1558 24.0709 12.5118Z" transform="translate(316.967 295.814)" stroke="#1F2855" stroke-width="2"/>
<path d="M8.0585 8.15663C5.56389 8.15663 3.25619 7.3674 1.36963 6.02495C2.71123 4.26381 4.84334 2.3292 7.41467 1.46457C10.0975 0.562454 13.3943 0.775069 17.0088 3.90782C14.8926 6.50177 11.6694 8.15663 8.0585 8.15663Z" transform="translate(321.443 311.682)" fill="#D7245B" stroke="#1F2855" stroke-width="2"/>
<path d="M7.0585 4.02166C7.0585 5.68869 5.70404 7.04331 4.02925 7.04331C2.35446 7.04331 1 5.68869 1 4.02166C1 2.35462 2.35446 1 4.02925 1C5.70404 1 7.0585 2.35462 7.0585 4.02166Z" transform="translate(325.92 301.177)" fill="#D7245B" stroke="#1F2855" stroke-width="2"/>
<rect width="27.757" height="4.46851" rx="1" transform="translate(349.201 334.244)" fill="#1F2855"/>
<rect width="17.9078" height="4.46851" rx="1" transform="translate(349.201 343.182)" fill="#1F2855"/>
<path d="M24.0709 12.5118C24.0709 18.8678 18.9081 24.0236 12.5354 24.0236C6.16281 24.0236 1 18.8678 1 12.5118C1 6.15579 6.16281 1 12.5354 1C18.9081 1 24.0709 6.1558 24.0709 12.5118Z" transform="translate(316.967 327.095)" stroke="#1F2855" stroke-width="2"/>
<path d="M8.0585 8.15663C5.56389 8.15663 3.25619 7.3674 1.36963 6.02495C2.71123 4.26381 4.84334 2.3292 7.41467 1.46457C10.0975 0.562454 13.3943 0.775069 17.0088 3.90782C14.8926 6.50177 11.6694 8.15663 8.0585 8.15663Z" transform="translate(321.443 342.962)" fill="#D7245B" stroke="#1F2855" stroke-width="2"/>
<path d="M7.0585 4.02166C7.0585 5.68869 5.70404 7.04331 4.02925 7.04331C2.35446 7.04331 1 5.68869 1 4.02166C1 2.35462 2.35446 1 4.02925 1C5.70404 1 7.0585 2.35462 7.0585 4.02166Z" transform="translate(325.92 332.457)" fill="#D7245B" stroke="#1F2855" stroke-width="2"/>
<rect width="27.757" height="4.46851" rx="1" transform="translate(349.201 365.523)" fill="#1F2855"/>
<rect width="17.9078" height="4.46851" rx="1" transform="translate(349.201 374.461)" fill="#1F2855"/>
<path d="M24.0709 12.5118C24.0709 18.8678 18.9081 24.0236 12.5354 24.0236C6.16281 24.0236 1 18.8678 1 12.5118C1 6.15579 6.16281 1 12.5354 1C18.9081 1 24.0709 6.1558 24.0709 12.5118Z" transform="translate(316.967 358.374)" stroke="#1F2855" stroke-width="2"/>
<path d="M8.0585 8.15663C5.56389 8.15663 3.25619 7.3674 1.36963 6.02495C2.71123 4.26381 4.84334 2.3292 7.41467 1.46457C10.0975 0.562454 13.3943 0.775069 17.0088 3.90782C14.8926 6.50177 11.6694 8.15663 8.0585 8.15663Z" transform="translate(321.443 374.241)" fill="#D7245B" stroke="#1F2855" stroke-width="2"/>
<path d="M7.0585 4.02166C7.0585 5.68869 5.70404 7.04331 4.02925 7.04331C2.35446 7.04331 1 5.68869 1 4.02166C1 2.35462 2.35446 1 4.02925 1C5.70404 1 7.0585 2.35462 7.0585 4.02166Z" transform="translate(325.92 363.736)" fill="#D7245B" stroke="#1F2855" stroke-width="2"/>
<path d="M9.03433 0C13.9022 0 18.0687 4.15859 18.0687 9.01731C18.0687 13.876 13.9022 18.0346 9.03433 18.0346C4.16644 18.0346 0 13.876 0 9.01731C0 4.15859 4.16644 0 9.03433 0Z" transform="translate(274.355 333.718)" fill="#8BC751"/>
<path d="M8.49117 0.322204C8.92159 0.751442 8.92159 1.4479 8.49117 1.87714L4.08418 6.27583C3.86897 6.49063 3.58729 6.59803 3.30524 6.59803C3.0232 6.59803 2.74152 6.49063 2.52631 6.27583L0.322812 4.07648C-0.107604 3.64724 -0.107604 2.95079 0.322812 2.52155C0.753228 2.09194 1.45027 2.09194 1.88068 2.52155L3.30524 3.94342L6.9333 0.322204C7.36372 -0.107402 8.06075 -0.107402 8.49117 0.322204Z" transform="translate(278.984 339.803)" fill="white"/>
<path d="M18.0457 5.77921C17.5628 4.66866 16.8758 3.66429 16.0039 2.79401C15.132 1.92373 14.1257 1.23805 13.013 0.756024C11.8551 0.254354 10.6401 0 9.40158 0C8.16311 0 6.94803 0.254354 5.79013 0.756024C4.67747 1.23805 3.67121 1.92373 2.79928 2.79401C1.92736 3.66429 1.24038 4.66866 0.757452 5.77921C0.254834 6.93493 0 8.14772 0 9.38386C0 10.62 0.254834 11.8328 0.757452 12.9885C1.24038 14.0991 1.92736 15.1034 2.79928 15.9737C3.67121 16.844 4.67747 17.5297 5.79013 18.0117C6.94803 18.5134 8.16311 18.7677 9.40158 18.7677C10.6401 18.7677 11.8551 18.5134 13.013 18.0117C14.1257 17.5297 15.132 16.844 16.0039 15.9737C16.8758 15.1034 17.5628 14.0991 18.0457 12.9885C18.5483 11.8328 18.8032 10.62 18.8032 9.38386C18.8032 8.14772 18.5483 6.93493 18.0457 5.77921ZM9.40158 18.0346C4.70354 18.0346 0.734499 14.073 0.734499 9.38386C0.734499 4.69468 4.70354 0.733114 9.40158 0.733114C14.0996 0.733114 18.0687 4.69468 18.0687 9.38386C18.0687 14.073 14.0996 18.0346 9.40158 18.0346Z" transform="translate(273.988 333.351)" fill="#1F2855"/>
<path d="M0.430379 4.70223L2.63387 6.90158C2.91141 7.17858 3.28027 7.33114 3.67249 7.33114C4.06471 7.33114 4.43358 7.17858 4.71111 6.90158L9.11799 2.503C9.3956 2.22614 9.54848 1.85797 9.54848 1.46623C9.54848 1.07449 9.3956 0.706319 9.1181 0.429568C8.84057 0.152561 8.47174 0 8.07948 0C7.68722 0 7.3184 0.152561 7.04087 0.429568L3.67249 3.79159L2.50761 2.62891C2.23008 2.3519 1.86126 2.19934 1.469 2.19934C1.07674 2.19934 0.70791 2.3519 0.43049 2.6288C0.152886 2.90566 0 3.27383 0 3.66557C0 4.05731 0.152886 4.42548 0.430379 4.70223ZM0.949743 3.1473C1.08856 3.00877 1.27296 2.93246 1.469 2.93246C1.66503 2.93246 1.84943 3.00877 1.98825 3.1473L3.67249 4.82836L7.56023 0.947953C7.69905 0.809431 7.88345 0.733114 8.07948 0.733114C8.27552 0.733114 8.45992 0.809432 8.59885 0.948064C8.73756 1.08644 8.81398 1.27045 8.81398 1.46623C8.81398 1.66201 8.73756 1.84602 8.59874 1.9845L4.19175 6.38319C4.05293 6.52171 3.86853 6.59803 3.67249 6.59803C3.47645 6.59803 3.29206 6.52171 3.15324 6.38319L0.949633 4.18374C0.810923 4.04536 0.734499 3.86135 0.734499 3.66557C0.734499 3.46979 0.810923 3.28578 0.949743 3.1473Z" transform="translate(278.617 339.436)" fill="#363636"/>
<path d="M9.03433 0C13.9022 0 18.0687 4.15859 18.0687 9.01731C18.0687 13.876 13.9022 18.0346 9.03433 18.0346C4.16644 18.0346 0 13.876 0 9.01731C0 4.15859 4.16644 0 9.03433 0Z" transform="translate(274.355 380.19)" fill="#8BC751"/>
<path d="M8.49117 0.322204C8.92159 0.751442 8.92159 1.4479 8.49117 1.87714L4.08418 6.27583C3.86897 6.49063 3.58729 6.59803 3.30524 6.59803C3.0232 6.59803 2.74152 6.49063 2.52631 6.27583L0.322812 4.07648C-0.107604 3.64724 -0.107604 2.95079 0.322812 2.52155C0.753228 2.09194 1.45027 2.09194 1.88068 2.52155L3.30524 3.94342L6.9333 0.322204C7.36372 -0.107402 8.06075 -0.107402 8.49117 0.322204Z" transform="translate(278.984 386.274)" fill="white"/>
<path d="M18.0457 5.77921C17.5628 4.66866 16.8758 3.66429 16.0039 2.79401C15.132 1.92373 14.1257 1.23805 13.013 0.756024C11.8551 0.254354 10.6401 0 9.40158 0C8.16311 0 6.94803 0.254354 5.79013 0.756024C4.67747 1.23805 3.67121 1.92373 2.79928 2.79401C1.92736 3.66429 1.24038 4.66866 0.757452 5.77921C0.254834 6.93493 0 8.14772 0 9.38386C0 10.62 0.254834 11.8328 0.757452 12.9885C1.24038 14.0991 1.92736 15.1034 2.79928 15.9737C3.67121 16.844 4.67747 17.5297 5.79013 18.0117C6.94803 18.5134 8.16311 18.7677 9.40158 18.7677C10.6401 18.7677 11.8551 18.5134 13.013 18.0117C14.1257 17.5297 15.132 16.844 16.0039 15.9737C16.8758 15.1034 17.5628 14.0991 18.0457 12.9885C18.5483 11.8328 18.8032 10.62 18.8032 9.38386C18.8032 8.14772 18.5483 6.93493 18.0457 5.77921ZM9.40158 18.0346C4.70354 18.0346 0.734499 14.073 0.734499 9.38386C0.734499 4.69468 4.70354 0.733114 9.40158 0.733114C14.0996 0.733114 18.0687 4.69468 18.0687 9.38386C18.0687 14.073 14.0996 18.0346 9.40158 18.0346Z" transform="translate(273.988 379.823)" fill="#1F2855"/>
<path d="M0.430379 4.70223L2.63387 6.90158C2.91141 7.17858 3.28027 7.33114 3.67249 7.33114C4.06471 7.33114 4.43358 7.17858 4.71111 6.90158L9.11799 2.503C9.3956 2.22614 9.54848 1.85797 9.54848 1.46623C9.54848 1.07449 9.3956 0.706319 9.1181 0.429568C8.84057 0.152561 8.47174 0 8.07948 0C7.68722 0 7.3184 0.152561 7.04087 0.429568L3.67249 3.79159L2.50761 2.62891C2.23008 2.3519 1.86126 2.19934 1.469 2.19934C1.07674 2.19934 0.70791 2.3519 0.43049 2.6288C0.152886 2.90566 0 3.27383 0 3.66557C0 4.05731 0.152886 4.42548 0.430379 4.70223ZM0.949743 3.1473C1.08856 3.00877 1.27296 2.93246 1.469 2.93246C1.66503 2.93246 1.84943 3.00877 1.98825 3.1473L3.67249 4.82836L7.56023 0.947953C7.69905 0.809431 7.88345 0.733114 8.07948 0.733114C8.27552 0.733114 8.45992 0.809432 8.59885 0.948064C8.73756 1.08644 8.81398 1.27045 8.81398 1.46623C8.81398 1.66201 8.73756 1.84602 8.59874 1.9845L4.19175 6.38319C4.05293 6.52171 3.86853 6.59803 3.67249 6.59803C3.47645 6.59803 3.29206 6.52171 3.15324 6.38319L0.949633 4.18374C0.810923 4.04536 0.734499 3.86135 0.734499 3.66557C0.734499 3.46979 0.810923 3.28578 0.949743 3.1473Z" transform="translate(278.617 385.908)" fill="#363636"/>
<path d="M9.03433 0C13.9022 0 18.0687 4.15859 18.0687 9.01731C18.0687 13.876 13.9022 18.0346 9.03433 18.0346C4.16644 18.0346 0 13.876 0 9.01731C0 4.15859 4.16644 0 9.03433 0Z" transform="translate(274.355 426.662)" fill="#8BC751"/>
<path d="M8.49117 0.322204C8.92159 0.751442 8.92159 1.4479 8.49117 1.87714L4.08418 6.27583C3.86897 6.49063 3.58729 6.59803 3.30524 6.59803C3.0232 6.59803 2.74152 6.49063 2.52631 6.27583L0.322812 4.07648C-0.107604 3.64724 -0.107604 2.95079 0.322812 2.52155C0.753228 2.09194 1.45027 2.09194 1.88068 2.52155L3.30524 3.94342L6.9333 0.322204C7.36372 -0.107402 8.06075 -0.107402 8.49117 0.322204Z" transform="translate(278.984 432.747)" fill="white"/>
<path d="M18.0457 5.77921C17.5628 4.66866 16.8758 3.66429 16.0039 2.79401C15.132 1.92373 14.1257 1.23805 13.013 0.756024C11.8551 0.254354 10.6401 0 9.40158 0C8.16311 0 6.94803 0.254354 5.79013 0.756024C4.67747 1.23805 3.67121 1.92373 2.79928 2.79401C1.92736 3.66429 1.24038 4.66866 0.757452 5.77921C0.254834 6.93493 0 8.14772 0 9.38386C0 10.62 0.254834 11.8328 0.757452 12.9885C1.24038 14.0991 1.92736 15.1034 2.79928 15.9737C3.67121 16.844 4.67747 17.5297 5.79013 18.0117C6.94803 18.5134 8.16311 18.7677 9.40158 18.7677C10.6401 18.7677 11.8551 18.5134 13.013 18.0117C14.1257 17.5297 15.132 16.844 16.0039 15.9737C16.8758 15.1034 17.5628 14.0991 18.0457 12.9885C18.5483 11.8328 18.8032 10.62 18.8032 9.38386C18.8032 8.14772 18.5483 6.93493 18.0457 5.77921ZM9.40158 18.0346C4.70354 18.0346 0.734499 14.073 0.734499 9.38386C0.734499 4.69468 4.70354 0.733114 9.40158 0.733114C14.0996 0.733114 18.0687 4.69468 18.0687 9.38386C18.0687 14.073 14.0996 18.0346 9.40158 18.0346Z" transform="translate(273.988 426.296)" fill="#1F2855"/>
<path d="M0.430379 4.70223L2.63387 6.90158C2.91141 7.17858 3.28027 7.33114 3.67249 7.33114C4.06471 7.33114 4.43358 7.17858 4.71111 6.90158L9.11799 2.503C9.3956 2.22614 9.54848 1.85797 9.54848 1.46623C9.54848 1.07449 9.3956 0.706319 9.1181 0.429568C8.84057 0.152561 8.47174 0 8.07948 0C7.68722 0 7.3184 0.152561 7.04087 0.429568L3.67249 3.79159L2.50761 2.62891C2.23008 2.3519 1.86126 2.19934 1.469 2.19934C1.07674 2.19934 0.70791 2.3519 0.43049 2.6288C0.152886 2.90566 0 3.27383 0 3.66557C0 4.05731 0.152886 4.42548 0.430379 4.70223ZM0.949743 3.1473C1.08856 3.00877 1.27296 2.93246 1.469 2.93246C1.66503 2.93246 1.84943 3.00877 1.98825 3.1473L3.67249 4.82836L7.56023 0.947953C7.69905 0.809431 7.88345 0.733114 8.07948 0.733114C8.27552 0.733114 8.45992 0.809432 8.59885 0.948064C8.73756 1.08644 8.81398 1.27045 8.81398 1.46623C8.81398 1.66201 8.73756 1.84602 8.59874 1.9845L4.19175 6.38319C4.05293 6.52171 3.86853 6.59803 3.67249 6.59803C3.47645 6.59803 3.29206 6.52171 3.15324 6.38319L0.949633 4.18374C0.810923 4.04536 0.734499 3.86135 0.734499 3.66557C0.734499 3.46979 0.810923 3.28578 0.949743 3.1473Z" transform="translate(278.617 432.381)" fill="#363636"/>
<path d="M0 185.443L38.5017 0L137.442 14.7461L172.81 64.3465L143.71 214.041L0 185.443Z" transform="translate(332.189 62.5596)" fill="white" stroke="#1F2855" stroke-width="3"/>
<path d="M6.53392 0L35.2106 40.2166L0 35.5065L6.53392 0Z" transform="translate(466.498 82.2207)" fill="#1F2855" stroke="#1F2855" stroke-width="3"/>
<path d="M0 0L96.2543 18.3209" transform="translate(381.436 126.906)" stroke="#1F2855" stroke-width="3"/>
<path d="M0 0L96.2543 18.3209" transform="translate(381.436 140.312)" stroke="#1F2855" stroke-width="3"/>
<path d="M0 0L28.6524 5.36221" transform="translate(381.436 151.929)" stroke="#1F2855" stroke-width="3"/>
<path d="M0 0L28.6524 5.36221" transform="translate(418.146 159.078)" stroke="#1F2855" stroke-width="3"/>
<path d="M17.0124 12.065L19.6986 0L116.848 20.5551L105.208 86.2422L4.92464 67.0276L9.40158 50.941M17.0124 12.065L66.7065 24.5768L59.5433 60.3248L9.40158 50.941M17.0124 12.065L7.16311 10.7244L0 49.1536L9.40158 50.941" transform="translate(353.678 168.016)" stroke="#1F2855" stroke-width="2"/>
<path d="M13.4308 0L0 13.4055L30.8909 20.1083L25.0709 8.93701L20.1462 13.4055L13.4308 0Z" transform="translate(368.9 195.273)" fill="#D7245B" stroke="#1F2855"/>
<path d="M36.7109 0L31.3386 7.59646C15.9379 0.0893705 4.02925 10.7244 0 16.9803C7.87942 9.47324 20.8924 13.8524 26.414 16.9803L21.0416 26.3642L41.6356 21.4488L36.7109 0Z" transform="translate(407.402 195.273)" fill="#1F2855" stroke="#1F2855"/>
<path d="M51.1731 80.2377L50.7393 79.8268H50.1418C22.9687 79.8268 1.5 62.0144 1.5 40.6634C1.5 19.3124 22.9687 1.5 50.1418 1.5C77.3148 1.5 98.7835 19.3124 98.7835 40.6634C98.7835 57.2949 85.8164 71.7396 67.1691 77.3575L66.1018 77.679V78.7937V93.2121C66.1018 93.651 65.5768 93.8769 65.258 93.5751L51.1731 80.2377Z" transform="translate(325.92)" fill="#D7245B" stroke="#1F2855" stroke-width="3"/>
<path d="M15.5124 8.49016C15.5124 12.3481 12.3783 15.4803 8.50619 15.4803C4.63411 15.4803 1.5 12.3481 1.5 8.49016C1.5 4.63227 4.63411 1.5 8.50619 1.5C12.3783 1.5 15.5124 4.63227 15.5124 8.49016Z" transform="translate(341.143 32.1738)" fill="white" stroke="#1F2855" stroke-width="3"/>
<path d="M15.5124 8.49016C15.5124 12.3481 12.3783 15.4803 8.50619 15.4803C4.63411 15.4803 1.5 12.3481 1.5 8.49016C1.5 4.63227 4.63411 1.5 8.50619 1.5C12.3783 1.5 15.5124 4.63227 15.5124 8.49016Z" transform="translate(368.004 32.1738)" fill="white" stroke="#1F2855" stroke-width="3"/>
<path d="M15.5124 8.49016C15.5124 12.3481 12.3783 15.4803 8.50619 15.4803C4.63411 15.4803 1.5 12.3481 1.5 8.49016C1.5 4.63227 4.63411 1.5 8.50619 1.5C12.3783 1.5 15.5124 4.63227 15.5124 8.49016Z" transform="translate(394.867 32.1738)" fill="white" stroke="#1F2855" stroke-width="3"/>
</svg>
