<svg width="28" height="30" viewBox="0 0 28 30" fill="none" xmlns="http://www.w3.org/2000/svg">
<path d="M24.7694 0C24.1746 0 23.6924 0.479695 23.6924 1.07145V4.98535C18.1479 -0.355078 9.30185 -0.21257 3.93401 5.30351C1.40428 7.90313 -0.00697829 11.3817 2.59479e-05 15C2.59479e-05 15.5917 0.482183 16.0714 1.07698 16.0714C1.67177 16.0714 2.15386 15.5917 2.15386 15C2.15519 8.49093 7.45992 3.21529 14.0024 3.21661C17.3252 3.21724 20.4948 4.60622 22.7383 7.04463L17.9675 8.6271C17.4025 8.81412 17.0968 9.42138 17.2848 9.9835C17.4728 10.5456 18.0831 10.8498 18.6482 10.6628L25.1097 8.51993C25.5508 8.37378 25.8478 7.96246 25.8464 7.49996V1.07139C25.8463 0.479695 25.3641 0 24.7694 0Z" transform="translate(0 0.000976562)" fill="#2B2B2B"/>
<path d="M24.7695 0C24.1747 0 23.6925 0.479695 23.6925 1.07145C23.6912 7.58051 18.3864 12.8561 11.8439 12.8548C8.5212 12.8542 5.35156 11.4652 3.10806 9.02681L7.87883 7.44434C8.44384 7.25732 8.74956 6.65006 8.56158 6.08794C8.37361 5.52581 7.76323 5.22165 7.19822 5.40867L0.736649 7.5515C0.295572 7.69765 -0.00144603 8.10898 5.29512e-06 8.57148V15.0001C5.29512e-06 15.5918 0.482162 16.0715 1.07695 16.0715C1.67175 16.0715 2.1539 15.5918 2.1539 15.0001V11.0861C7.69836 16.4265 16.5445 16.2841 21.9123 10.7679C24.442 8.16831 25.8533 4.68978 25.8463 1.07145C25.8464 0.479695 25.3643 0 24.7695 0Z" transform="translate(2.15332 13.9287)" fill="#2B2B2B"/>
</svg>
