<svg width="101" height="101" viewBox="0 0 101 101" fill="none" xmlns="http://www.w3.org/2000/svg">
<path d="M48.5273 0C74.6749 0 97.0547 22.3798 97.0547 48.5273C97.0547 74.6749 74.6749 97.0547 48.5273 97.0547C22.3798 97.0547 0 74.6749 0 48.5273C0 22.3798 22.3798 0 48.5273 0Z" transform="translate(1.97266 1.97266)" fill="#27AE60"/>
<path d="M45.6098 1.73396C47.9217 4.04394 47.9217 7.79199 45.6098 10.102L21.9379 33.7738C20.7819 34.9298 19.2689 35.5078 17.7539 35.5078C16.2389 35.5078 14.7259 34.9298 13.5699 33.7738L1.73396 21.9379C-0.57799 19.6279 -0.57799 15.8799 1.73396 13.5699C4.04592 11.2579 7.79002 11.2579 10.102 13.5699L17.7539 21.2218L37.2418 1.73396C39.5537 -0.57799 43.2978 -0.57799 45.6098 1.73396Z" transform="translate(26.8281 34.7188)" fill="white"/>
<path d="M96.9314 31.1013C94.3374 25.1247 90.6473 19.7197 85.9638 15.0362C81.2803 10.3527 75.8753 6.66265 69.8987 4.0686C63.6791 1.36883 57.1524 0 50.5 0C43.8476 0 37.3209 1.36883 31.1013 4.0686C25.1247 6.66265 19.7197 10.3527 15.0362 15.0362C10.3527 19.7197 6.66265 25.1247 4.0686 31.1013C1.36883 37.3209 0 43.8476 0 50.5C0 57.1524 1.36883 63.6791 4.0686 69.8987C6.66265 75.8753 10.3527 81.2803 15.0362 85.9638C19.7197 90.6473 25.1247 94.3374 31.1013 96.9314C37.3209 99.6312 43.8476 101 50.5 101C57.1524 101 63.6791 99.6312 69.8987 96.9314C75.8753 94.3374 81.2803 90.6473 85.9638 85.9638C90.6473 81.2803 94.3374 75.8753 96.9314 69.8987C99.6312 63.6791 101 57.1524 101 50.5C101 43.8476 99.6312 37.3209 96.9314 31.1013ZM50.5 97.0547C25.2648 97.0547 3.94531 75.7352 3.94531 50.5C3.94531 25.2648 25.2648 3.94531 50.5 3.94531C75.7352 3.94531 97.0547 25.2648 97.0547 50.5C97.0547 75.7352 75.7352 97.0547 50.5 97.0547Z" fill="#363636"/>
<path d="M80.6767 25.8031C78.5324 20.821 75.4762 16.3257 71.5928 12.4425C67.7094 8.55916 63.2144 5.50292 58.2322 3.35864C53.0542 1.12994 47.5988 0 42.0176 0C34.4303 0 26.5214 2.59089 19.1456 7.49235C18.2382 8.09539 17.9914 9.31981 18.5945 10.227C19.1975 11.1345 20.4219 11.381 21.3291 10.7782C28.0559 6.30816 35.2097 3.94531 42.0176 3.94531C62.6549 3.94531 80.0898 21.3802 80.0898 42.0176C80.0898 62.6549 62.6549 80.0898 42.0176 80.0898C21.3802 80.0898 3.94531 62.6549 3.94531 42.0176C3.94531 35.2111 6.30757 28.0569 10.7764 21.329C11.3793 20.4213 11.1323 19.1971 10.2249 18.5943C9.31705 17.9914 8.09302 18.2386 7.49018 19.146C2.5901 26.5232 0 34.4319 0 42.0176C0 47.5988 1.12994 53.0542 3.35845 58.232C5.50273 63.2142 8.55896 67.7094 12.4423 71.5926C16.3257 75.476 20.8208 78.5322 25.8029 80.6765C30.981 82.9052 36.4363 84.0352 42.0176 84.0352C47.5988 84.0352 53.0542 82.9052 58.232 80.6767C63.2142 78.5324 67.7094 75.4762 71.5926 71.5928C75.476 67.7094 78.5322 63.2144 80.6765 58.2322C82.9052 53.0542 84.0352 47.5988 84.0352 42.0176C84.0352 36.4363 82.9052 30.981 80.6767 25.8031Z" transform="translate(8.48242 8.48242)" fill="#363636"/>
<path d="M2.31175 25.3054L14.1477 37.1414C15.6384 38.6321 17.6198 39.4531 19.7266 39.4531C21.8334 39.4531 23.8147 38.6321 25.3054 37.1414L48.9767 13.4701C50.4678 11.9801 51.2891 9.9988 51.2891 7.89062C51.2891 5.78245 50.4678 3.80111 48.9773 2.31175C47.4866 0.821018 45.5054 0 43.3984 0C41.2914 0 39.3103 0.821018 37.8196 2.31175L19.7266 20.4048L13.4695 14.1477C11.9788 12.657 9.99762 11.8359 7.89062 11.8359C5.78363 11.8359 3.80249 12.657 2.31235 14.1471C0.821217 15.637 0 17.6184 0 19.7266C0 21.8347 0.821216 23.8161 2.31175 25.3054ZM5.10148 16.9374C5.84715 16.192 6.83762 15.7812 7.89062 15.7812C8.94363 15.7812 9.9341 16.192 10.6798 16.9374L19.7266 25.9842L40.6093 5.10148C41.355 4.35602 42.3454 3.94531 43.3984 3.94531C44.4514 3.94531 45.4419 4.35602 46.1882 5.10208C46.9332 5.84676 47.3438 6.83703 47.3438 7.89062C47.3438 8.94422 46.9332 9.9345 46.1876 10.6798L22.5157 34.3516C21.77 35.0971 20.7796 35.5078 19.7266 35.5078C18.6736 35.5078 17.6831 35.0971 16.9374 34.3516L5.10089 22.5151C4.35582 21.7704 3.94531 20.7802 3.94531 19.7266C3.94531 18.673 4.35582 17.6827 5.10148 16.9374Z" transform="translate(24.8555 32.7461)" fill="#363636"/>
<path d="M1.97266 0C0.88375 0 0 0.88375 0 1.97266C0 3.06156 0.88375 3.94531 1.97266 3.94531C3.06156 3.94531 3.94531 3.06156 3.94531 1.97266C3.94531 0.88375 3.06156 0 1.97266 0Z" transform="translate(20.7129 20.7129)" fill="#363636"/>
</svg>
